<svg width="747" height="747" viewBox="0 0 747 747" fill="none" xmlns="http://www.w3.org/2000/svg">
<path d="M659.227 465.599C659.227 441.183 678.533 421.88 702.945 421.88C727.361 421.88 746.664 441.187 746.664 465.599V702.945C746.664 727.361 727.357 746.664 702.945 746.664H43.7187C19.8693 746.664 0 727.357 0 702.945V43.7187C0 19.8693 19.8747 0 43.7187 0H281.625C305.475 0 325.344 19.8747 325.344 43.7187C325.344 68.1347 305.469 88.0053 281.625 88.0053H88.012V659.219H659.225L659.227 465.599ZM726.795 6.812C727.362 7.37971 728.498 7.94741 729.065 8.51507L730.201 9.08277V9.65048H730.769V10.2182L731.904 10.7859L735.31 14.1922V14.7599L736.446 15.3276L737.013 15.8953V16.463L738.149 17.5984C738.716 18.7338 739.284 19.3015 739.852 19.8692V20.4369L740.42 21.0046L740.987 22.14L742.123 23.2754V24.4109H742.69V25.5463L743.258 26.114V26.6817C745.529 31.791 746.664 37.4681 746.664 43.7177V219.744C746.664 244.16 727.358 263.463 702.946 263.463C678.53 263.463 659.227 244.156 659.227 219.744V149.906L470.147 338.412C453.111 356.016 425.287 356.016 408.256 338.412C391.22 321.376 391.22 293.552 408.256 276.522L596.763 88.015H527.492C503.076 88.015 483.206 68.1403 483.206 43.7283C483.206 19.879 503.08 0.00968 527.492 0.00968H702.946C709.191 0.00968 714.868 1.14509 720.55 3.41595L721.685 3.98365L722.253 4.55136H722.821L723.388 5.11907H723.956L724.524 5.68677H725.091L725.659 6.25448L726.795 6.82219L726.795 6.812Z" fill="black"/>
</svg>
