<svg xmlns="http://www.w3.org/2000/svg" viewBox="0 0 517.19 218.31"><defs><style>.cls-1{fill:#222221;}</style></defs><g id="Capa_2" data-name="Capa 2"><g id="object"><path class="cls-1" d="M268.24,206.79a.77.77,0,0,1,.41.51,1.6,1.6,0,0,1-.14,1,2.54,2.54,0,0,1-1.07,1.13,3.26,3.26,0,0,1-1.86.42,3.86,3.86,0,0,1-1.19-.29,4.57,4.57,0,0,1-1.31-.81,5.37,5.37,0,0,1-1.07-1.25,5.89,5.89,0,0,1-.65-1.46,7.06,7.06,0,0,1-.24-1.41c0-.22,0-.43,0-.62s0-.37,0-.53.06-.31.08-.44.07-.23.1-.32.12-.27.17-.27.1.09.17.26l.26.68c.06.14.13.28.19.44l.23.48a8.13,8.13,0,0,0,.62,1,4.92,4.92,0,0,0,.79.79,3.73,3.73,0,0,0,.83.5,2.8,2.8,0,0,0,.72.21l.14,0h.32l.58,0a2.85,2.85,0,0,0,.58,0A2.74,2.74,0,0,1,268.24,206.79Z"/><path class="cls-1" d="M261.62,210.33a24.82,24.82,0,0,1-1.54-7s0-.06,0-.06L258.88,202a.38.38,0,0,0-.57,0l-1.16,1.31s0,0,0,.06a24.93,24.93,0,0,1-1.54,7s2.38,4.3,2.92,5.19a.12.12,0,0,0,.21,0C259.24,214.63,261.63,210.36,261.62,210.33Z"/><path class="cls-1" d="M248.8,206.79a.75.75,0,0,0-.41.51,1.54,1.54,0,0,0,.14,1,2.54,2.54,0,0,0,1.07,1.13,3.26,3.26,0,0,0,1.86.42,3.86,3.86,0,0,0,1.19-.29,4.71,4.71,0,0,0,1.31-.81,5.37,5.37,0,0,0,1.07-1.25,6.28,6.28,0,0,0,.65-1.46,7.06,7.06,0,0,0,.24-1.41c0-.22,0-.43,0-.62a4.15,4.15,0,0,0,0-.53c0-.16-.05-.31-.07-.44s-.07-.23-.1-.32-.12-.27-.17-.27-.1.09-.17.26l-.26.68c-.06.14-.13.28-.19.44s-.15.31-.24.48a6.94,6.94,0,0,1-.61,1,5.36,5.36,0,0,1-.79.79,3.57,3.57,0,0,1-.84.5,2.63,2.63,0,0,1-.71.21l-.14,0h-.32l-.58,0a2.84,2.84,0,0,1-.58,0A2.74,2.74,0,0,0,248.8,206.79Z"/><path class="cls-1" d="M258.57,201s-2.15-4.57,0-4.58S258.7,201.25,258.57,201Z"/><path class="cls-1" d="M259.74,201s1.44-3.5,2.53-2.31S259.65,201.17,259.74,201Z"/><path class="cls-1" d="M257.4,200.83s-3.74-.62-2.82-2S257.63,200.87,257.4,200.83Z"/><path class="cls-1" d="M344.09,209.69a10.3,10.3,0,0,1-1,2.68,10.59,10.59,0,0,1-1.48,2,11.86,11.86,0,0,1-1.71,1.55l-.46.33-.24.16-.25.16-.51.28-.26.14-.26.12a12.09,12.09,0,0,1-2.12.73,13.47,13.47,0,0,1-2.16.34,16.66,16.66,0,0,1-4.19-.19,16.14,16.14,0,0,1-2-.47c-.33-.09-.64-.2-.95-.31s-.31-.12-.47-.18l-.45-.19-.45-.2-.43-.22-.22-.11-.21-.12-.42-.24-.41-.27-.2-.13-.19-.14-.39-.28-.36-.3a2.67,2.67,0,0,1-.36-.31l-.34-.31c-.22-.23-.44-.44-.64-.69a10,10,0,0,1-1.06-1.48l-.22-.4-.1-.19-.09-.21-.18-.4-.15-.42-.07-.21-.06-.21-.1-.42c0-.14-.05-.28-.08-.42l0-.22,0-.21,0-.42c0-.14,0-.28,0-.42v-.2l0-.21,0-.41.06-.4,0-.19.05-.2L319,206l.12-.37.06-.18.07-.18.15-.35.17-.33.08-.17.1-.16.18-.31.21-.29a5.89,5.89,0,0,1,.44-.55,6.86,6.86,0,0,1,2-1.59,6.55,6.55,0,0,1,2.13-.67,6,6,0,0,1,1.86,0l.2,0,.19,0,.37.09c.23.08.45.15.64.23l.52.25.17.1a2.56,2.56,0,1,1-1.3.12l-.18,0-.34,0-.18,0h-.18a5.67,5.67,0,0,0-1.61.12,5.94,5.94,0,0,0-3.37,2.14c-.11.16-.23.31-.33.48a2.13,2.13,0,0,0-.16.25l-.14.26a.91.91,0,0,0-.07.14l-.07.14-.12.28-.1.29-.06.15a.83.83,0,0,1,0,.15l-.08.3-.06.32,0,.16a.78.78,0,0,0,0,.16l0,.32v.67l0,.33.05.34a1,1,0,0,0,0,.17l0,.17c0,.11,0,.22.08.34l.1.33.05.17.06.17.13.33.16.33.08.16.09.16.19.32a10.54,10.54,0,0,0,5,4l.41.16c.13.05.27.11.41.15s.56.19.85.27a14.63,14.63,0,0,0,1.77.38,14.8,14.8,0,0,0,3.71.13,11.65,11.65,0,0,0,1.86-.31,9.42,9.42,0,0,0,1.78-.63l.21-.09.21-.11.41-.23.19-.13a1.37,1.37,0,0,0,.2-.13l.4-.28a9.88,9.88,0,0,0,1.43-1.31,9,9,0,0,0,1.22-1.67,8.61,8.61,0,0,0,.85-2.18,9.55,9.55,0,0,0,.23-2.6c0-.23,0-.46-.05-.7s-.07-.47-.11-.71a13.09,13.09,0,0,0-.37-1.43,12.16,12.16,0,0,0-.57-1.43,12,12,0,0,0-.78-1.39,15.26,15.26,0,0,0-1-1.34c-.19-.21-.37-.42-.57-.62l-.29-.31-.32-.29a2.89,2.89,0,0,0-.32-.29l-.33-.28-.73-.56-.36-.28-.38-.27-.38-.26-.38-.26-.79-.5c-.27-.17-.54-.31-.82-.47s-.55-.29-.84-.43l-.43-.21-.44-.19-.44-.19-.45-.17-.92-.32-.94-.28c-.16-.05-.32-.08-.48-.12l-.48-.11a30.63,30.63,0,0,0-4-.61c-.34,0-.69,0-1-.08l-.52,0-.52,0-1.05,0-1.06,0h-2.14l-1.06,0h-.53l-.53,0-1.06.07-1.07.11c-.71.06-1.41.17-2.12.27-.36,0-.71.11-1.06.17s-.71.11-1.06.19c-.71.14-1.41.27-2.11.44-1.41.3-2.8.67-4.18,1s-2.76.78-4.12,1.19l-4,1.23c-1.33.41-2.66.8-4,1.19-2.6.78-5.13,1.58-7.59,2.22-1.24.33-2.45.6-3.65.83s-2.36.4-3.51.52a24.13,24.13,0,0,1-6.41-.19,13.42,13.42,0,0,1-2.74-.75,6.71,6.71,0,0,1-2.18-1.33,3.79,3.79,0,0,1-.73-.93,3.7,3.7,0,0,1-.39-1l0-.26a2.13,2.13,0,0,1,0-.25c0-.17,0-.33,0-.49a3.51,3.51,0,0,1,.17-.89,3.11,3.11,0,0,1,.76-1.3,1.85,1.85,0,0,1,1-.54,1.56,1.56,0,0,1,.68,0,.91.91,0,0,1,.17,0l.05,0a1,1,0,0,1-.23,0,1.66,1.66,0,0,0-.65,0,1.81,1.81,0,0,0-.87.55,3,3,0,0,0-.66,1.25,3.69,3.69,0,0,0-.13.84,3.4,3.4,0,0,0,0,.45,2,2,0,0,0,0,.24l.05.23a3.85,3.85,0,0,0,.39.92,3.64,3.64,0,0,0,.7.83,6.35,6.35,0,0,0,2.09,1.19,13.37,13.37,0,0,0,2.67.65,23.75,23.75,0,0,0,6.26,0c1.12-.14,2.27-.33,3.44-.58s2.36-.56,3.57-.9c2.42-.69,4.92-1.54,7.51-2.38l3.94-1.26c1.32-.44,2.66-.88,4-1.31s2.73-.86,4.12-1.27,2.79-.8,4.22-1.13c.71-.18,1.43-.33,2.14-.49l1.08-.21c.37-.06.72-.14,1.09-.19.73-.11,1.45-.24,2.18-.32.37,0,.73-.09,1.1-.12l1.1-.09.55-.05.55,0,1.1,0h3.24l1.08,0H323l.54,0,1.07.07a33.24,33.24,0,0,1,4.24.57l.52.12c.17,0,.35.07.52.12l1,.28,1,.34c.17.05.33.12.5.18l.48.2a4.89,4.89,0,0,1,.48.2l.47.22c.31.14.62.29.92.45s.6.32.89.5l.85.52.42.27c.13.1.27.19.41.28l.4.28c.14.09.26.2.39.29l.77.58.38.32a3.87,3.87,0,0,1,.37.32l.36.33.35.34c.23.23.44.48.65.71a16.15,16.15,0,0,1,1.14,1.51,17,17,0,0,1,.91,1.59,14.36,14.36,0,0,1,.68,1.65A12,12,0,0,1,344.09,209.69Z"/><path class="cls-1" d="M352.14,208.81c.27-.22.26-.71,0-1.33a7.24,7.24,0,0,0-1.24-2.11,24.36,24.36,0,0,0-3.74-3.43,13.17,13.17,0,0,0-2.18-1.35,4.12,4.12,0,0,0-.75-.3c-.18-.06-.3-.08-.32,0s.05.12.17.27l.52.58c.43.48,1,1.14,1.54,1.88,1.12,1.48,2.24,3.24,2.84,4a7.25,7.25,0,0,0,1.8,1.65C351.39,208.93,351.88,209,352.14,208.81Z"/><path class="cls-1" d="M361.82,201c0-.86-1.83-1.5-4-1.57-1.08,0-3.49.12-5.64-.06a27.14,27.14,0,0,1-2.84-.35l-.92-.15c-.22,0-.36,0-.38,0s.06.14.24.29a5.48,5.48,0,0,0,.76.57,14.46,14.46,0,0,0,2.72,1.4,21,21,0,0,0,3.36,1,16.28,16.28,0,0,0,2.59.37,7.55,7.55,0,0,0,2.92-.42C361.38,201.78,361.83,201.39,361.82,201Z"/><path class="cls-1" d="M344.37,195.71l-1.17-1a40.57,40.57,0,0,0-3.42-2.54,38.31,38.31,0,0,0-5.59-3,33.06,33.06,0,0,0-7.49-2.24,29.53,29.53,0,0,0-7.84-.29l-.44,0-.44.06-.86.13c-.28,0-.56.08-.83.14l-.8.18c-.52.12-1,.22-1.51.38l-.7.23-.65.24c-.85.33-1.58.66-2.24.93l-.9.37-.78.28-.33.12-.3.12a1.59,1.59,0,0,1-.43.18.91.91,0,0,1-.29,0l-.1,0,.09,0a1,1,0,0,0,.3.06,1.55,1.55,0,0,0,.49-.09,6.19,6.19,0,0,1,.64-.12c.25,0,.53-.08.83-.15s.63-.13,1-.22c.7-.16,1.48-.38,2.33-.59l.65-.14.69-.14c.45-.09.95-.13,1.46-.19l.77-.09c.27,0,.54,0,.81-.06l.82-.05.43,0H319a38.08,38.08,0,0,1,7.42.56,47,47,0,0,1,7.23,1.86,58.69,58.69,0,0,1,5.7,2.34c1.59.78,2.85,1.46,3.72,2Z"/><path class="cls-1" d="M353.52,192.22a2.27,2.27,0,0,0-2.61.72c-.2.2-.49.58-.84,1a10.49,10.49,0,0,1-1.17,1.23,2.55,2.55,0,0,1-1.2.63c-.38,0-.69-.06-.75,0s0,.12.05.26a1.53,1.53,0,0,0,.46.47,2.09,2.09,0,0,0,1,.34,3.55,3.55,0,0,0,1.17,0,7.27,7.27,0,0,0,2.16-.79,6.06,6.06,0,0,0,1.35-.94,3,3,0,0,0,.89-1.67A1.2,1.2,0,0,0,353.52,192.22Z"/><path class="cls-1" d="M173.1,209.72a10.37,10.37,0,0,0,1,2.67,11,11,0,0,0,1.47,2.05,11.42,11.42,0,0,0,1.72,1.55l.46.33.24.16.25.16c.16.1.34.19.51.28l.25.14.26.12a12.19,12.19,0,0,0,2.13.73,13.47,13.47,0,0,0,2.16.34,16.56,16.56,0,0,0,4.18-.19,15.87,15.87,0,0,0,2-.47c.32-.09.64-.2.95-.31.16-.05.31-.12.46-.18l.46-.19.45-.2.43-.22.22-.11.21-.12.42-.24.4-.27.2-.13.2-.14.38-.28.37-.3c.13-.09.24-.2.36-.3l.34-.32c.22-.23.44-.44.64-.69a10,10,0,0,0,1.06-1.48l.21-.4.11-.19.09-.21.18-.4c.05-.14.1-.28.14-.42l.08-.21c0-.07,0-.14.05-.21s.07-.28.11-.42.05-.28.08-.42l0-.22a1.49,1.49,0,0,0,0-.21l0-.42v-.62l0-.21,0-.41-.06-.4,0-.19-.05-.2-.09-.38-.12-.37-.06-.18-.08-.18-.14-.35-.17-.33-.08-.17s-.07-.1-.1-.16l-.19-.31c-.06-.1-.13-.19-.2-.29s-.29-.37-.44-.55a7.16,7.16,0,0,0-2-1.59,6.55,6.55,0,0,0-2.13-.67,6,6,0,0,0-1.86,0l-.2,0-.19.05-.37.09a6.65,6.65,0,0,0-.64.24l-.53.24-.16.1a2.56,2.56,0,1,0,1.3.12l.18,0,.34,0,.18,0h.18a5.67,5.67,0,0,1,1.61.12,6,6,0,0,1,3.37,2.14c.11.16.23.31.33.48s.11.16.16.25l.14.26.07.14.06.14.13.28.1.29,0,.15s0,.1.05.15l.08.3.06.32,0,.16s0,.1,0,.16,0,.21,0,.32V208c0,.11,0,.22,0,.33l-.05.34c0,.06,0,.11,0,.17l0,.17c0,.11,0,.22-.07.34l-.1.33c0,.06,0,.12,0,.17l-.07.17-.13.33-.15.33-.08.16-.1.16-.18.32a10.59,10.59,0,0,1-5,4l-.41.16c-.14.05-.27.11-.41.15s-.56.19-.85.27a15.05,15.05,0,0,1-1.77.38,14.36,14.36,0,0,1-3.71.13,11.65,11.65,0,0,1-1.86-.31,9.86,9.86,0,0,1-1.78-.62l-.22-.1-.2-.11-.41-.23-.2-.13-.19-.13-.4-.28a10.51,10.51,0,0,1-1.44-1.31,9.43,9.43,0,0,1-1.21-1.67,8.61,8.61,0,0,1-.85-2.18,9.17,9.17,0,0,1-.23-2.6c0-.23,0-.46.05-.7s.07-.47.11-.7a9.52,9.52,0,0,1,.37-1.44,12.16,12.16,0,0,1,.57-1.43,12,12,0,0,1,.78-1.39,13.46,13.46,0,0,1,1-1.34c.18-.2.36-.42.56-.62l.3-.31.32-.29.32-.29.33-.28.72-.56.37-.28.37-.27.38-.26.39-.26.79-.5c.26-.17.54-.31.81-.47s.56-.29.85-.43l.43-.21.44-.19.44-.18a3.52,3.52,0,0,1,.45-.18l.91-.32.95-.28c.15-.05.32-.08.48-.12l.48-.11a30.63,30.63,0,0,1,4-.61l1-.08.52,0,.53,0,1.05,0,1.06,0h2.14l1.05,0h.54l.53,0,1.06.07,1.06.11c.71.06,1.42.17,2.13.27.36,0,.71.11,1.06.17s.71.11,1.06.19c.71.14,1.41.27,2.11.44,1.41.3,2.8.67,4.18,1s2.76.78,4.11,1.19l4.05,1.23c1.33.41,2.66.8,4,1.19,2.6.78,5.13,1.58,7.59,2.22,1.23.33,2.45.6,3.64.84s2.37.39,3.52.51a24.13,24.13,0,0,0,6.41-.19,13.42,13.42,0,0,0,2.74-.75,6.82,6.82,0,0,0,2.18-1.33,4,4,0,0,0,.73-.93,3.7,3.7,0,0,0,.39-1l.05-.26c0-.08,0-.17,0-.25a2.69,2.69,0,0,0,0-.49,3.13,3.13,0,0,0-.16-.89,3.22,3.22,0,0,0-.76-1.3,2,2,0,0,0-1-.54,1.52,1.52,0,0,0-.67,0l-.17.05,0,0,.22,0a1.66,1.66,0,0,1,.65,0,1.79,1.79,0,0,1,.88.55,3,3,0,0,1,.66,1.25,3.28,3.28,0,0,1,.12.84,2.26,2.26,0,0,1,0,.45,2,2,0,0,1,0,.24l-.05.23a3.32,3.32,0,0,1-.38.92,3.64,3.64,0,0,1-.7.83,6.4,6.4,0,0,1-2.1,1.19,13.27,13.27,0,0,1-2.66.65,23.75,23.75,0,0,1-6.26,0c-1.12-.14-2.27-.33-3.44-.58s-2.36-.56-3.57-.9c-2.42-.69-4.92-1.54-7.52-2.38l-3.93-1.26-4-1.31c-1.36-.44-2.74-.86-4.12-1.27s-2.8-.8-4.22-1.13c-.71-.18-1.43-.33-2.15-.49-.35-.08-.72-.14-1.08-.21s-.72-.14-1.08-.19c-.73-.11-1.45-.24-2.18-.32-.37,0-.73-.09-1.1-.12l-1.1-.09-.55,0-.55,0-1.1,0h-3.25l-1.07,0h-.54l-.54,0-1.07.07a33.24,33.24,0,0,0-4.24.57l-.52.12c-.17,0-.35.07-.52.12l-1,.28-1,.34-.49.18-.48.2a4,4,0,0,0-.48.2l-.47.22c-.31.14-.62.29-.92.45s-.6.32-.89.5l-.86.52-.41.27-.41.28-.4.28c-.14.09-.26.2-.39.29l-.77.58-.38.32-.38.32-.36.33-.34.34c-.23.23-.44.48-.65.71a16.15,16.15,0,0,0-1.14,1.51,15,15,0,0,0-.91,1.59,13.8,13.8,0,0,0-.68,1.66A11.79,11.79,0,0,0,173.1,209.72Z"/><path class="cls-1" d="M165.05,208.83c.26.22.74.12,1.31-.22a7.28,7.28,0,0,0,1.81-1.65c.6-.72,1.73-2.48,2.85-3.94.55-.74,1.11-1.4,1.54-1.89l.52-.58c.12-.15.18-.25.15-.28s-.12,0-.31,0a5.45,5.45,0,0,0-.74.3A14.39,14.39,0,0,0,170,202a24.39,24.39,0,0,0-3.74,3.42A7.3,7.3,0,0,0,165,207.5C164.79,208.12,164.78,208.61,165.05,208.83Z"/><path class="cls-1" d="M155.37,201c0,.43.44.82,1.18,1.1a7.51,7.51,0,0,0,2.92.42,17.17,17.17,0,0,0,2.58-.36,20.73,20.73,0,0,0,3.37-1,14,14,0,0,0,2.73-1.4,6.17,6.17,0,0,0,.76-.57c.17-.16.25-.26.23-.31s-.15,0-.38,0l-.91.16a24.9,24.9,0,0,1-2.85.35c-2.15.17-4.56,0-5.64,0C157.2,199.48,155.38,200.12,155.37,201Z"/><path class="cls-1" d="M172.82,195.74l1.34-.78c.87-.5,2.13-1.18,3.72-2a58.27,58.27,0,0,1,5.69-2.35,47.17,47.17,0,0,1,7.24-1.86,38,38,0,0,1,7.41-.56h.43l.42,0,.83,0c.27,0,.54,0,.8.06l.78.09c.51.06,1,.1,1.46.19l.68.14.66.14c.85.21,1.63.43,2.32.59.35.09.67.16,1,.22s.57.11.82.15.47.07.64.12a1.65,1.65,0,0,0,.49.09.86.86,0,0,0,.3-.06l.1,0-.1,0a.92.92,0,0,1-.29,0,1.47,1.47,0,0,1-.43-.18l-.3-.12-.34-.12-.77-.28-.91-.37c-.65-.27-1.38-.6-2.23-.93l-.65-.24-.7-.23c-.49-.16-1-.25-1.51-.38l-.8-.18c-.27-.06-.55-.09-.83-.14l-.86-.13-.44-.06-.45,0a29.47,29.47,0,0,0-7.83.29,33.31,33.31,0,0,0-7.5,2.24,38.69,38.69,0,0,0-5.58,3,40.57,40.57,0,0,0-3.42,2.54Z"/><path class="cls-1" d="M163.66,192.24a1.19,1.19,0,0,0-.45,1.24,3,3,0,0,0,.88,1.67,7,7,0,0,0,1.35.95,7.27,7.27,0,0,0,2.16.79,3.93,3.93,0,0,0,1.18.05,2.32,2.32,0,0,0,1-.35,1.38,1.38,0,0,0,.45-.48c.07-.15.08-.24.05-.27s-.37,0-.75,0a2.57,2.57,0,0,1-1.21-.63,10.45,10.45,0,0,1-1.16-1.24c-.35-.43-.64-.81-.85-1A2.27,2.27,0,0,0,163.66,192.24Z"/><path class="cls-1" d="M517.19,157.08V89.25a1.36,1.36,0,0,0-1.35-1.35,26.63,26.63,0,0,1-26.53-26.11A1.36,1.36,0,0,0,488,60.45H30.36A1.35,1.35,0,0,0,29,61.79C29.4,77,16.21,88.93,1.35,88.41A1.36,1.36,0,0,0,0,89.76v67.89A1.36,1.36,0,0,0,1.35,159,26.64,26.64,0,0,1,29,184.54a1.36,1.36,0,0,0,1.34,1.35H488a1.37,1.37,0,0,0,1.35-1.35,26.63,26.63,0,0,1,26.53-26.11,1.35,1.35,0,0,0,0-2.69,29.37,29.37,0,0,0-29.22,28.8l1.34-1.35H30.36l1.35,1.35A29.37,29.37,0,0,0,1.35,156.3l1.34,1.35V89.76L1.35,91.11c16.29.56,30.78-12.74,30.36-29.32l-1.35,1.35H488l-1.34-1.35A29.38,29.38,0,0,0,515.84,90.6l-1.34-1.35v67.83A1.35,1.35,0,0,0,517.19,157.08Z"/><path class="cls-1" d="M509.82,152.77V93.55a.66.66,0,0,0-.66-.65c-14.3.26-26.47-11.25-26.13-25.73a.65.65,0,0,0-.65-.65l-29,0-73.53-.11-98.07-.14-102.58-.16-87.05-.13-51.5-.08H34.46a.66.66,0,0,0-.66.66c1.09,9.6-4.94,19.19-13.13,23.68A30.33,30.33,0,0,1,6.33,94a.67.67,0,0,0-.66.66V153a.67.67,0,0,0,.66.66c7.28-.13,13.61,1.41,19.21,6.32A28.53,28.53,0,0,1,35,180.23a.67.67,0,0,0,.66.66l29-.06,73.68-.13,98.15-.18L339,180.34l86.67-.16,50.7-.09h5.72a.66.66,0,0,0,.65-.66c.22-14.06,12.47-25.78,26.4-26a.66.66,0,0,0,0-1.31c-14.65.22-27.48,12.53-27.71,27.3l.66-.65-29,0L379.4,179l-98.15.18-102.49.18-86.67.16-50.7.09H35.67l.66.66a30.3,30.3,0,0,0-9.87-21.14c-5.68-5.25-12.62-6.83-20.13-6.7L7,153V94.63l-.65.66a32.41,32.41,0,0,0,15.8-4.42c8.18-4.66,14.06-14.85,13-24.37l-.65.66,29,0,73.53.11,98.07.15,102.57.15,87.06.13,51.49.08h6.24l-.66-.66c-.36,15.18,12.44,27.32,27.44,27l-.65-.66v59.22A.66.66,0,0,0,509.82,152.77Z"/><path class="cls-1" d="M393.83,23.12a16.69,16.69,0,0,0-1.68-4.38,17.77,17.77,0,0,0-2.4-3.34,20.2,20.2,0,0,0-2.8-2.53l-.76-.54a3.77,3.77,0,0,0-.39-.26l-.41-.25a8.28,8.28,0,0,0-.82-.47l-.42-.22-.43-.19a18,18,0,0,0-3.47-1.19,22.63,22.63,0,0,0-3.52-.57,28,28,0,0,0-10.06,1.07c-.53.15-1,.34-1.55.52l-.75.29-.75.31-.73.33-.71.36-.35.18-.35.2-.68.39-.66.43-.33.21-.32.23-.63.46-.6.49c-.2.15-.39.33-.58.5s-.38.34-.56.52c-.35.37-.72.72-1,1.11a16.81,16.81,0,0,0-1.73,2.43l-.35.64-.17.32-.15.34-.29.66-.24.68-.12.34-.09.35-.18.68-.12.7-.06.34,0,.35-.06.68c0,.23,0,.46,0,.68v.34l0,.34c0,.22,0,.44.05.66s.07.44.11.66,0,.21,0,.32l.07.31.15.63.2.6c0,.1.06.2.1.3l.12.29.23.57c.1.18.19.37.28.55l.14.27c0,.08.1.17.15.25l.31.51c.1.16.22.32.33.48.22.32.48.6.72.89a11.27,11.27,0,0,0,3.31,2.6,10.66,10.66,0,0,0,3.48,1.09,9.77,9.77,0,0,0,3-.06l.33,0,.32-.08.6-.15c.37-.13.73-.25,1-.38l.86-.41.27-.16a4.15,4.15,0,1,0-2.12-.18l-.3.06-.56.07-.28,0-.3,0a9.38,9.38,0,0,1-2.63-.21,9.54,9.54,0,0,1-5.49-3.49,8.43,8.43,0,0,1-.55-.78c-.09-.13-.18-.27-.26-.41L356,31l-.12-.22-.1-.23c-.06-.15-.13-.3-.2-.45l-.17-.48-.09-.24a2.33,2.33,0,0,0-.07-.25c0-.16-.09-.33-.13-.5s-.07-.34-.1-.51l-.05-.26,0-.26-.06-.53,0-.54v-.27l0-.28,0-.54.08-.55,0-.28.06-.28.12-.55c.06-.18.11-.36.17-.55s.05-.18.08-.27l.11-.27.21-.55.26-.53.13-.27.15-.26.3-.53a17.29,17.29,0,0,1,8.16-6.49c.22-.1.44-.18.67-.26s.44-.18.67-.25c.46-.15.92-.31,1.39-.43a25.11,25.11,0,0,1,8.95-.84,20.84,20.84,0,0,1,3,.51,16.08,16.08,0,0,1,2.9,1l.35.16.34.18c.22.12.45.23.66.37l.33.21.32.21.64.46a17,17,0,0,1,2.35,2.13,14.49,14.49,0,0,1,2,2.74,13.62,13.62,0,0,1,1.39,3.56,15.34,15.34,0,0,1,.38,4.24c0,.37-.06.75-.09,1.14s-.11.76-.17,1.15a18.77,18.77,0,0,1-.61,2.34,18.24,18.24,0,0,1-.93,2.33,20.53,20.53,0,0,1-1.27,2.28,23.39,23.39,0,0,1-1.6,2.18c-.3.34-.6.69-.93,1-.16.17-.31.34-.48.5l-.51.48c-.17.17-.35.32-.53.47l-.54.46-1.18.91c-.2.15-.39.31-.6.46l-.61.43-.62.44c-.21.14-.41.29-.63.42l-1.29.82c-.43.26-.88.5-1.33.75s-.91.48-1.38.71l-.7.34c-.23.12-.47.21-.71.31l-.73.31c-.24.1-.48.2-.73.28l-1.5.53-1.54.45c-.25.08-.52.13-.78.19l-.79.19a49.67,49.67,0,0,1-6.55,1c-.56.06-1.13.09-1.69.13l-.85.06-.86,0-1.72.07-1.73,0-1.74,0h-1.74l-1.73,0-.87,0-.86-.05-1.74-.12c-.58,0-1.16-.11-1.74-.17-1.16-.1-2.31-.28-3.47-.44-.58-.07-1.15-.19-1.73-.28s-1.16-.18-1.73-.31c-1.15-.23-2.3-.44-3.45-.71-1.64-.36-3.28-.77-4.9-1.19h.05l.49-.07.48-.08c.32-.06.64-.14,1-.21a13.67,13.67,0,0,0,1.81-.59,15,15,0,0,0,1.67-.78,13.09,13.09,0,0,0,1.52-1,11.91,11.91,0,0,0,4.07-5.12,10.26,10.26,0,0,0,.7-2.8,10.69,10.69,0,0,0,0-2.54,12.09,12.09,0,0,0-.52-2.27c-.06-.18-.12-.37-.19-.55s-.06-.18-.1-.27l-.12-.27a5,5,0,0,0-.25-.52l-.13-.26-.15-.25a11.84,11.84,0,0,0-1.33-1.84,15.17,15.17,0,0,0-1.58-1.53A16.68,16.68,0,0,0,333,24.83a16,16,0,0,0-1.9-.76c-.32-.11-.64-.2-1-.29l-.48-.12-.49-.11-.48-.09-.49-.07-.24,0-.25,0-.48,0-.49,0h-1l-.47,0-.48.05-.47.07c-.3.06-.61.11-.91.19a11.19,11.19,0,0,0-1.74.61l-.4.2-.2.11-.2.11-.38.23-.36.26-.18.13-.17.14-.33.29-.31.3-.15.16-.14.16-.28.33-.24.34-.12.17-.11.18-.21.35-.18.36-.09.19-.07.18-.15.37-.11.38-.06.18,0,.19c0,.12-.05.25-.08.37l-.06.37,0,.19c0,.06,0,.12,0,.18s0,.25,0,.37v.36c0,.24,0,.47,0,.7a6.92,6.92,0,0,0,.76,2.49,6.67,6.67,0,0,0,1.37,1.79,6.1,6.1,0,0,0,1.55,1l.19.09.18.07.36.14.66.18.58.1h.19a2.57,2.57,0,1,0-1-.84l-.18-.08-.3-.16-.16-.09-.16-.09a6.16,6.16,0,0,1-1.25-1,6,6,0,0,1-1-1.6,6.11,6.11,0,0,1-.5-2.11c0-.2,0-.39,0-.59s0-.2,0-.3l0-.3c0-.05,0-.1,0-.15l0-.15.06-.3c0-.1.06-.2.08-.3l.05-.15a.88.88,0,0,1,.05-.15l.11-.3.13-.3.07-.15s.05-.09.07-.14l.16-.29.18-.28.1-.14.1-.13.21-.27.23-.25.12-.13.12-.12.26-.23.28-.22.14-.11.15-.1.3-.2.32-.18.16-.09.17-.08.34-.15a10.65,10.65,0,0,1,6.42-.39l.43.1.43.12c.28.08.57.17.85.27a15.36,15.36,0,0,1,1.68.71,15.08,15.08,0,0,1,3.14,2,13.13,13.13,0,0,1,1.35,1.34,8.8,8.8,0,0,1,1.1,1.54l.12.2.11.21a3.36,3.36,0,0,1,.2.43l.09.21.09.23c0,.15.11.3.16.46a10.44,10.44,0,0,1,.43,1.9,9.05,9.05,0,0,1,0,2.09,8.32,8.32,0,0,1-.56,2.29,9.62,9.62,0,0,1-1.31,2.28c-.13.18-.29.36-.45.54s-.33.34-.49.52a13.53,13.53,0,0,1-1.14,1,12.14,12.14,0,0,1-1.3.85,14.27,14.27,0,0,1-3,1.23c-.27.06-.54.14-.82.19l-.43.08-.43.06-.43.05-.44,0-.91,0-.47,0h-1.39l-.94,0c-.32,0-.63-.06-.95-.09s-.63-.08-.94-.13l-.48-.08-.23-.05-1.27-.37c-2.22-.66-4.42-1.34-6.6-2l-6.47-1.94c-4.24-1.28-8.37-2.58-12.39-3.63-2-.53-4-1-6-1.36s-3.86-.64-5.73-.84A40,40,0,0,0,273,36.1a23.22,23.22,0,0,0-4.47,1.22A11.17,11.17,0,0,0,265,39.5,6.49,6.49,0,0,0,263.79,41a6.18,6.18,0,0,0-.64,1.66l-.08.42c0,.13,0,.27,0,.41a5.28,5.28,0,0,0,0,.79,6.1,6.1,0,0,0,.27,1.46,5.27,5.27,0,0,0,1.24,2.12,3.09,3.09,0,0,0,1.58.88,2.72,2.72,0,0,0,1.11,0l.27-.09.08,0a2,2,0,0,0-.37.05,2.61,2.61,0,0,1-1.06,0,2.89,2.89,0,0,1-1.43-.9,5.17,5.17,0,0,1-1.08-2,5.87,5.87,0,0,1-.2-1.36,4.68,4.68,0,0,1,.05-.74,2.47,2.47,0,0,1,0-.38c0-.13.05-.25.08-.38a5.81,5.81,0,0,1,.64-1.51,6.19,6.19,0,0,1,1.13-1.35,10.73,10.73,0,0,1,3.42-2,23.27,23.27,0,0,1,4.35-1.06,39.63,39.63,0,0,1,10.23,0c1.82.24,3.69.54,5.6,1s3.86.91,5.83,1.47l2.2.65a14.45,14.45,0,0,1,1.4.75l.6.21a3,3,0,0,1,.36.14l.36.15a3.68,3.68,0,0,1,.35.15l.34.16c.23.12.46.22.68.35l.66.37.63.4a3.28,3.28,0,0,1,.31.2l.3.21.3.22.3.22c.19.15.38.3.58.44l.26.23.26.23.26.23.23.24c.17.16.31.34.46.51a11.66,11.66,0,0,1,.79,1.06,11.22,11.22,0,0,1,.63,1.11,10.21,10.21,0,0,1,.46,1.15,9.59,9.59,0,0,1,.3,1.14c0,.19.07.38.09.57s0,.37,0,.55a7.37,7.37,0,0,1-.18,2.08,6.5,6.5,0,0,1-.67,1.75,7.38,7.38,0,0,1-1,1.35,7.56,7.56,0,0,1-1.15,1l-.32.23-.15.11-.16.1a3.47,3.47,0,0,1-.33.18l-.16.09-.17.08a7.07,7.07,0,0,1-1.42.51,9.46,9.46,0,0,1-1.49.25,11.77,11.77,0,0,1-3-.09,11.19,11.19,0,0,1-1.42-.3c-.23-.06-.45-.14-.68-.21l-.33-.12-.33-.13a8.45,8.45,0,0,1-4-3.16l-.15-.26-.08-.13-.06-.13-.13-.26-.1-.27-.06-.13a.65.65,0,0,0,0-.13,2.76,2.76,0,0,0-.08-.27l-.06-.27,0-.14s0-.09,0-.13l0-.27,0-.27V51.5l0-.26c0-.05,0-.09,0-.13l0-.13.05-.25.07-.25,0-.12,0-.12.08-.23.1-.22.05-.12.06-.1c0-.07.07-.15.11-.22l.13-.2a4.28,4.28,0,0,1,.26-.38,4.79,4.79,0,0,1,1.29-1.15,4.36,4.36,0,0,1,1.4-.57,4.51,4.51,0,0,1,1.29-.11h.28l.28,0,.15,0a2,2,0,1,0,1-.1l-.13-.08-.42-.19c-.16-.07-.33-.12-.51-.19l-.3-.07-.15,0-.16,0a4.59,4.59,0,0,0-1.49,0,5,5,0,0,0-1.7.55,5.39,5.39,0,0,0-1.62,1.28,4.7,4.7,0,0,0-.35.43l-.17.24-.15.25s-.05.08-.07.13l-.07.13-.13.27-.12.28-.05.14a1.21,1.21,0,0,0-.05.14l-.1.3c0,.1-.05.2-.07.31l0,.15c0,.06,0,.11,0,.16l0,.32c0,.11,0,.22,0,.33v.66l0,.34c0,.05,0,.11,0,.17l0,.17.06.34.09.33c0,.06,0,.12.05.17l0,.17.12.33.15.32.07.17.08.16.18.31a8.08,8.08,0,0,0,.85,1.19c.16.19.34.36.51.54l.28.25a3.47,3.47,0,0,0,.29.25l.29.24.31.22.16.11.16.11.32.2.34.2.17.09.17.09.35.17.36.16.36.16.38.14.76.25a13.67,13.67,0,0,0,4.93.5,10.56,10.56,0,0,0,1.73-.28,10.09,10.09,0,0,0,1.7-.59l.2-.1.21-.11a4.1,4.1,0,0,0,.4-.23l.2-.12.19-.13.37-.27a9.42,9.42,0,0,0,1.37-1.24,8.79,8.79,0,0,0,1.17-1.65,8.14,8.14,0,0,0,.82-2.14,9.42,9.42,0,0,0-.34-5.19,11.44,11.44,0,0,0-.54-1.32,11.64,11.64,0,0,0-.74-1.27,11.48,11.48,0,0,0-.91-1.2c-.17-.19-.34-.39-.53-.57l-.27-.27-.29-.27-.3-.25-.31-.25-.62-.47h0l2.65.86c2.12.68,4.26,1.36,6.42,2.07s4.35,1.43,6.57,2.14,4.46,1.4,6.72,2.08,4.56,1.29,6.89,1.84c1.16.29,2.33.53,3.5.79.58.13,1.18.22,1.76.34s1.18.23,1.77.32c1.19.18,2.37.39,3.57.51.6.07,1.19.16,1.79.21l1.79.15.9.07.9,0,1.79.07,1.77,0c.59,0,1.18,0,1.77,0h1.76l1.76,0,.88,0,.88,0c.58,0,1.17-.06,1.75-.11a53.3,53.3,0,0,0,6.92-.94l.85-.19c.28-.06.56-.12.84-.2l1.66-.46,1.63-.54c.28-.09.54-.2.81-.3l.79-.32c.26-.11.53-.21.78-.33l.76-.36c.51-.24,1-.47,1.51-.74s1-.53,1.45-.81l1.4-.85c.23-.14.45-.3.67-.45l.67-.46.66-.45c.22-.15.42-.32.64-.47l1.25-1,.62-.52c.21-.17.42-.34.61-.52l.59-.54.56-.56c.38-.37.72-.77,1.07-1.16a24.43,24.43,0,0,0,3.34-5.06,23.23,23.23,0,0,0,1.11-2.7A19.3,19.3,0,0,0,393.83,23.12Z"/><path class="cls-1" d="M277,32.75a1.28,1.28,0,0,0,1-.59,2.73,2.73,0,0,0,.42-1.76,4.62,4.62,0,0,0-1.08-2.55A5.78,5.78,0,0,0,274.51,26a6.7,6.7,0,0,0-2.15-.27,8.18,8.18,0,0,0-2.68.51,9.8,9.8,0,0,0-2.55,1.41,11.29,11.29,0,0,0-2,2,12.22,12.22,0,0,0-1.28,2.18q-.22.54-.39,1c-.1.33-.19.63-.26.92s-.1.54-.14.77a4.48,4.48,0,0,0,0,.59c0,.34,0,.53.1.56s.23-.09.45-.33l.87-1,.59-.61c.21-.21.45-.42.69-.64A11.46,11.46,0,0,1,267.33,32a8.5,8.5,0,0,1,1.8-.82,7,7,0,0,1,1.7-.31,5.08,5.08,0,0,1,1.31.11,1.4,1.4,0,0,1,.24.06,1.16,1.16,0,0,1,.22.06l.18.05.15.05,1,.3a7.18,7.18,0,0,1,1,.39C275.55,32.21,276.24,32.79,277,32.75Z"/><path class="cls-1" d="M240.3,32.75a1.28,1.28,0,0,1-1-.59,2.68,2.68,0,0,1-.41-1.76A4.53,4.53,0,0,1,240,27.85,5.82,5.82,0,0,1,242.79,26a6.7,6.7,0,0,1,2.15-.27,8.18,8.18,0,0,1,2.68.51,10,10,0,0,1,2.56,1.41,11.23,11.23,0,0,1,2,2,12.22,12.22,0,0,1,1.28,2.18q.22.54.39,1c.1.33.19.63.26.92s.1.54.14.77a4.48,4.48,0,0,1,0,.59c0,.34,0,.53-.1.56s-.23-.09-.45-.33l-.87-1-.59-.61c-.21-.21-.45-.42-.69-.64A11.46,11.46,0,0,0,250,32a8.5,8.5,0,0,0-1.8-.82,7,7,0,0,0-1.7-.31,5.08,5.08,0,0,0-1.31.11,1.4,1.4,0,0,0-.24.06,1.16,1.16,0,0,0-.22.06l-.18.05-.15.05-1,.3a7.18,7.18,0,0,0-1,.39C241.75,32.21,241.06,32.79,240.3,32.75Z"/><path class="cls-1" d="M262.45,24.88c6.48-9-3-23.5-3.9-24.86V0h0V0c-.91,1.36-10.38,15.82-3.89,24.86-4.06-4.55-14.14-4.07-11.24-3.27,13.66,3.79,12,14,12,14v.25A1.06,1.06,0,0,0,256.43,37h.31a.4.4,0,0,1,.4.4v2a.35.35,0,0,1,0,.17l-2.63,5.58,0,0c1.44,1.94,3.53,7.46,4,8.63a.09.09,0,0,0,.16,0c.43-1.17,2.53-6.69,4-8.63l0,0L260,39.52a.35.35,0,0,1,0-.17v-2a.4.4,0,0,1,.4-.4h.09a1.28,1.28,0,0,0,1.29-1.28v0s-1.7-10.28,12-14.07C276.58,20.81,266.5,20.33,262.45,24.88Z"/><path class="cls-1" d="M123.36,23.12A17,17,0,0,1,125,18.74a18.26,18.26,0,0,1,2.41-3.34,19.64,19.64,0,0,1,2.8-2.53l.75-.54c.13-.09.26-.18.4-.26l.4-.25c.27-.18.55-.32.83-.47l.42-.22.42-.19a18.12,18.12,0,0,1,3.48-1.19,22.7,22.7,0,0,1,3.51-.57,28.07,28.07,0,0,1,10.07,1.07c.52.15,1,.34,1.55.52l.75.29.74.31.73.33.72.36.35.18.34.2.69.39.66.43.33.21.31.23c.22.15.42.31.63.46s.41.32.6.49a7.08,7.08,0,0,1,.59.5c.18.18.38.34.56.52.35.37.72.72,1,1.11a16.89,16.89,0,0,1,1.74,2.43l.35.64.17.32.15.34c.09.22.19.44.29.66l.24.68.11.34c0,.12.07.23.1.35l.17.68c.05.23.09.47.13.7l.06.34,0,.35.06.68c0,.23,0,.46,0,.68v.34l0,.34c0,.22,0,.44-.05.66s-.06.44-.1.66,0,.21-.05.32l-.07.31c-.06.21-.1.42-.16.63s-.13.4-.19.6l-.1.3-.12.29-.24.57-.27.55-.14.27-.15.25-.31.51-.34.48a10.26,10.26,0,0,1-.71.89,11.31,11.31,0,0,1-3.32,2.6,10.54,10.54,0,0,1-3.47,1.09,9.85,9.85,0,0,1-3-.06l-.33,0-.31-.08-.6-.15c-.38-.13-.73-.25-1.05-.38l-.85-.41a1.75,1.75,0,0,1-.27-.16,4.15,4.15,0,1,1,2.12-.18l.3.06.55.07.29,0,.3,0a9.38,9.38,0,0,0,2.63-.21A9.64,9.64,0,0,0,157.49,35a9.77,9.77,0,0,0,2.63-2.34,8.43,8.43,0,0,0,.55-.78c.08-.13.18-.27.26-.41l.23-.43a1.51,1.51,0,0,0,.11-.22l.1-.23.21-.45.17-.48.08-.24a2.33,2.33,0,0,0,.07-.25c0-.16.09-.33.14-.5s.06-.34.1-.51l.05-.26,0-.26.06-.53c0-.18,0-.36,0-.54V26l0-.54c0-.19,0-.37-.07-.55a2.36,2.36,0,0,0,0-.28l-.06-.28c0-.18-.07-.37-.11-.55s-.11-.36-.17-.55-.05-.18-.08-.27l-.11-.27-.21-.55-.26-.53-.13-.27-.15-.26-.3-.53a17.27,17.27,0,0,0-8.17-6.49c-.21-.1-.44-.18-.66-.26s-.44-.18-.67-.25c-.46-.15-.92-.31-1.39-.43a25.11,25.11,0,0,0-9-.84,21,21,0,0,0-3,.51,16.36,16.36,0,0,0-2.9,1l-.35.16-.33.18a7.19,7.19,0,0,0-.67.37l-.32.21a2.92,2.92,0,0,0-.32.21l-.65.46a16.91,16.91,0,0,0-2.34,2.13,15,15,0,0,0-2,2.74,14,14,0,0,0-1.38,3.56,15.34,15.34,0,0,0-.38,4.24,11.39,11.39,0,0,0,.09,1.14c0,.38.11.76.17,1.15a20.63,20.63,0,0,0,.6,2.34,21.74,21.74,0,0,0,.93,2.33,22.39,22.39,0,0,0,1.28,2.28,21.72,21.72,0,0,0,1.6,2.18c.3.34.59.69.92,1,.16.17.32.34.49.5l.51.48c.17.17.35.32.53.47s.35.31.54.46l1.18.91c.2.15.39.31.6.46l.61.43.62.44c.2.14.41.29.62.42l1.29.82c.44.26.89.5,1.34.75s.91.48,1.37.71l.7.34c.24.12.48.21.72.31l.72.31c.24.1.49.2.74.28l1.49.53,1.54.45c.26.08.52.13.79.19l.79.19a49.42,49.42,0,0,0,6.55,1c.56.06,1.13.09,1.69.13l.85.06.86,0,1.71.07,1.73,0,1.74,0h1.75l1.73,0,.87,0,.86-.05,1.74-.12c.58,0,1.16-.11,1.74-.17,1.15-.1,2.31-.28,3.47-.44.58-.07,1.15-.19,1.73-.28s1.16-.18,1.73-.31c1.15-.23,2.3-.44,3.44-.71,1.65-.36,3.28-.77,4.91-1.19h-.05l-.49-.07-.49-.08c-.32-.06-.63-.14-.94-.21a13.67,13.67,0,0,1-1.81-.59,15.16,15.16,0,0,1-1.68-.78,13,13,0,0,1-1.51-1,11.91,11.91,0,0,1-4.07-5.12,10.26,10.26,0,0,1-.7-2.8,10.69,10.69,0,0,1,0-2.54,12.08,12.08,0,0,1,.51-2.27c.07-.18.13-.37.19-.55l.11-.27.12-.27a5,5,0,0,1,.25-.52l.13-.26.15-.25A11.21,11.21,0,0,1,179,28.62a15.08,15.08,0,0,1,1.57-1.53,16.74,16.74,0,0,1,3.57-2.26,15.36,15.36,0,0,1,1.9-.76c.32-.11.64-.2,1-.29.16-.05.33-.08.49-.12l.48-.11.49-.09.49-.07.24,0,.24,0,.49,0,.48,0h1l.47,0,.47.05.47.07c.31.06.62.11.92.19a11.19,11.19,0,0,1,1.74.61l.4.2.2.11.19.11.39.23.36.26.18.13.17.14.33.29.31.3.15.16.14.16.27.33c.09.11.17.22.25.34l.12.17.11.18.21.35.18.36c0,.07.06.13.08.19l.08.18c0,.13.1.25.14.37l.12.38a1.21,1.21,0,0,1,0,.18l.05.19c0,.12.05.25.08.37s0,.25,0,.37l0,.19a1.09,1.09,0,0,1,0,.18l0,.37v.36c0,.24,0,.47,0,.7a6.91,6.91,0,0,1-.75,2.49A6.67,6.67,0,0,1,198,36.35a6.1,6.1,0,0,1-1.55,1l-.19.09-.18.07-.36.14-.66.18-.58.1h-.2a2.57,2.57,0,1,1,1-3.8,2.59,2.59,0,0,1,0,3l.18-.08.3-.16.16-.09.15-.09A5.87,5.87,0,0,0,198.84,32a5.81,5.81,0,0,0,0-.59c0-.1,0-.2,0-.3s0-.2,0-.3,0-.1,0-.15l0-.15-.06-.3-.09-.3,0-.15a.88.88,0,0,0-.05-.15l-.11-.3-.13-.3-.07-.15a1,1,0,0,0-.08-.14L198,28.4a2.75,2.75,0,0,1-.19-.28l-.09-.14-.1-.13-.21-.27-.23-.25L197,27.2l-.13-.12-.25-.23-.28-.22-.14-.11-.15-.1-.3-.2-.32-.18L195.3,26l-.17-.08-.34-.15a10.65,10.65,0,0,0-6.42-.39l-.43.1c-.14,0-.29.07-.43.12s-.57.17-.85.27a15.36,15.36,0,0,0-1.68.71,15.08,15.08,0,0,0-3.14,2,13.13,13.13,0,0,0-1.35,1.34,9.42,9.42,0,0,0-1.11,1.54l-.12.2-.1.21a3.36,3.36,0,0,0-.2.43l-.1.21a1.55,1.55,0,0,0-.08.23c-.06.15-.11.3-.16.46a9.94,9.94,0,0,0-.47,4,8.73,8.73,0,0,0,.57,2.29A9.29,9.29,0,0,0,180,41.75c.13.18.29.36.44.54s.33.34.5.52a12,12,0,0,0,1.13,1,14.53,14.53,0,0,0,1.3.85,12.2,12.2,0,0,0,1.46.69,11.62,11.62,0,0,0,1.57.54c.28.06.55.14.83.19l.43.08.42.06.44.05.43,0,.92,0,.46,0h1.4l.94,0c.32,0,.63-.06,1-.09s.63-.08.94-.13l.48-.08.23-.05,1.27-.37c2.22-.66,4.42-1.34,6.6-2l6.47-1.94C213.88,40.34,218,39,222,38c2-.53,4-1,5.94-1.36s3.87-.64,5.74-.84a40,40,0,0,1,10.47.31,23.22,23.22,0,0,1,4.47,1.22,11.17,11.17,0,0,1,3.56,2.18A6.76,6.76,0,0,1,253.4,41a6.53,6.53,0,0,1,.64,1.66c0,.14.05.28.07.42s0,.27,0,.41a4.19,4.19,0,0,1,0,.79,6.1,6.1,0,0,1-.26,1.46,5.39,5.39,0,0,1-1.24,2.12,3.09,3.09,0,0,1-1.58.88,2.72,2.72,0,0,1-1.11,0l-.27-.09-.08,0a2.14,2.14,0,0,1,.37.05,2.61,2.61,0,0,0,1.06,0,2.83,2.83,0,0,0,1.42-.9,4.93,4.93,0,0,0,1.08-2,5.86,5.86,0,0,0,.21-1.36,4.68,4.68,0,0,0-.05-.74c0-.13,0-.25-.05-.38l-.08-.38a5.81,5.81,0,0,0-.64-1.51,6,6,0,0,0-1.14-1.35,10.58,10.58,0,0,0-3.41-2,23.46,23.46,0,0,0-4.35-1.06,39.63,39.63,0,0,0-10.23,0c-1.82.24-3.7.54-5.6,1s-3.86.91-5.84,1.47l-2.19.65a14.45,14.45,0,0,0-1.4.75l-.61.21-.36.14-.35.15a3.68,3.68,0,0,0-.35.15l-.35.16c-.23.12-.45.22-.67.35l-.66.37-.63.4a3.28,3.28,0,0,0-.31.2l-.3.21-.31.22-.29.22-.58.44-.27.23-.26.23-.25.23-.24.24c-.16.16-.3.34-.45.51a8.83,8.83,0,0,0-.79,1.06,11.22,11.22,0,0,0-.63,1.11,10.21,10.21,0,0,0-.46,1.15,9.59,9.59,0,0,0-.3,1.14c0,.19-.07.38-.09.57s0,.37-.05.55a7.76,7.76,0,0,0,.18,2.08,6.51,6.51,0,0,0,.68,1.75,7.38,7.38,0,0,0,1,1.35,7.56,7.56,0,0,0,1.15,1l.31.23.16.11.16.1a3.3,3.3,0,0,0,.32.18l.17.09.17.08a7.07,7.07,0,0,0,1.42.51,9.46,9.46,0,0,0,1.49.25,11.78,11.78,0,0,0,3-.09,11.19,11.19,0,0,0,1.42-.3c.23-.06.45-.14.68-.21s.22-.08.33-.12l.32-.13a8.43,8.43,0,0,0,4-3.16l.15-.26.07-.13.07-.13c0-.09.08-.17.13-.26l.1-.27.05-.13a.65.65,0,0,0,0-.13l.09-.27.06-.27,0-.14s0-.09,0-.13l0-.27a2.44,2.44,0,0,0,0-.27V51.5l0-.26c0-.05,0-.09,0-.13l0-.13c0-.08,0-.17,0-.25l-.07-.25,0-.12,0-.12-.09-.23-.09-.22-.05-.12-.06-.1-.11-.22-.13-.2c-.08-.13-.17-.25-.26-.38a5,5,0,0,0-1.29-1.15,4.36,4.36,0,0,0-1.4-.57,4.53,4.53,0,0,0-1.29-.11h-.29l-.27,0-.15,0a2,2,0,0,1-.71,3.95,2,2,0,0,1-.33-4l.14-.08.42-.19c.15-.07.33-.12.51-.19l.3-.07.15,0,.16,0a4.58,4.58,0,0,1,1.49,0,5.11,5.11,0,0,1,1.7.55,5.51,5.51,0,0,1,1.62,1.28c.12.14.24.28.35.43l.16.24.15.25a.57.57,0,0,1,.08.13l.07.13c0,.09.08.18.13.27l.11.28.06.14c0,.05,0,.1.05.14l.09.3c0,.1,0,.2.08.31l0,.15,0,.16.05.32c0,.11,0,.22,0,.33v.66l0,.34c0,.05,0,.11,0,.17l0,.17-.06.34-.09.33c0,.06,0,.12,0,.17l-.06.17-.12.33a3.09,3.09,0,0,1-.14.32l-.07.17-.09.16-.17.31a8.16,8.16,0,0,1-.86,1.19,6.42,6.42,0,0,1-.51.54,3.2,3.2,0,0,1-.27.25,3.47,3.47,0,0,1-.29.25l-.29.24-.31.22-.16.11-.16.11-.32.2-.34.2-.17.09-.17.09-.35.17-.36.16-.37.16-.37.14-.76.25a13.67,13.67,0,0,1-4.93.5,10.39,10.39,0,0,1-1.73-.28,10.09,10.09,0,0,1-1.7-.59l-.21-.1-.2-.11a4.23,4.23,0,0,1-.41-.23l-.19-.12a1.37,1.37,0,0,1-.2-.13l-.37-.27a9.35,9.35,0,0,1-1.36-1.24,8.82,8.82,0,0,1-1.18-1.65,8.49,8.49,0,0,1-.81-2.14,9.5,9.5,0,0,1,.33-5.19,11.52,11.52,0,0,1,.55-1.32,11.64,11.64,0,0,1,.74-1.27,11.48,11.48,0,0,1,.91-1.2c.17-.19.34-.39.53-.57l.27-.27.29-.27.3-.25.31-.25.61-.47h0l-2.64.86c-2.13.68-4.26,1.36-6.43,2.07s-4.35,1.43-6.56,2.14-4.46,1.4-6.73,2.08-4.56,1.29-6.88,1.84c-1.16.29-2.33.53-3.5.79-.58.13-1.18.22-1.77.34s-1.17.23-1.77.32c-1.18.18-2.37.39-3.56.51-.6.07-1.19.16-1.79.21l-1.79.15-.9.07-.9,0-1.79.07-1.77,0c-.59,0-1.18,0-1.77,0h-1.76l-1.77,0-.87,0-.88,0c-.59,0-1.17-.06-1.75-.11a53.3,53.3,0,0,1-6.92-.94l-.85-.19c-.28-.06-.56-.12-.84-.2l-1.67-.46-1.63-.54c-.27-.09-.53-.2-.8-.3l-.79-.32c-.26-.11-.53-.21-.78-.33l-.77-.36c-.51-.24-1-.47-1.5-.74s-1-.53-1.45-.81l-1.4-.85c-.23-.14-.45-.3-.68-.45l-.66-.46-.66-.45c-.22-.15-.43-.32-.64-.47l-1.26-1-.62-.52c-.2-.17-.41-.34-.6-.52l-.59-.54c-.2-.18-.38-.38-.56-.56-.38-.37-.72-.77-1.07-1.16A24,24,0,0,1,126.59,39a22.58,22.58,0,0,1-1.49-2.6,21.6,21.6,0,0,1-1.11-2.7A19.3,19.3,0,0,1,123.36,23.12Z"/><path class="cls-1" d="M509.44,81.32a4,4,0,0,0-.2-2.49,5,5,0,0,0-1.92-2.4,5.17,5.17,0,0,0-.95-.52c3.68-2.76,5.4-8.51,5.59-9.2h0c-.73.08-7,.84-10.26,4.2a6.22,6.22,0,0,0-.44-1.68,5,5,0,0,0-.86-1.37,5.11,5.11,0,0,0-1.14-1,4,4,0,0,0-2.41-.65,3.09,3.09,0,0,0-2,.83l-.18.18-.09.09-.08.1-.27.38c-.07.14-.13.27-.2.4a2,2,0,0,0-.09.2l-.08.22a3.11,3.11,0,0,0,0,1.71,2.76,2.76,0,0,0,.73,1.28,1.76,1.76,0,0,0,.66.43.79.79,0,0,0,.22.06,1,1,0,0,0,.24,0,1.08,1.08,0,0,0,.47-.11,1.17,1.17,0,0,0,.5-.49,1.31,1.31,0,0,0,.11-.42c0-.46-.11-.67-.26-.7s-.35.15-.58.34l-.11.08a.42.42,0,0,1,0-.1c0-.06,0,0,0-.06v0l0-.08a2,2,0,0,1-.1-.59,1.29,1.29,0,0,1,.15-.62l0-.07.06-.08.12-.18.12-.13,0,0,0,0,.06,0a1.06,1.06,0,0,1,.59-.22,2,2,0,0,1,1.1.27,2.92,2.92,0,0,1,.7.5,3,3,0,0,1,.59.76,4.76,4.76,0,0,1,.55,2.27,7,7,0,0,1-.49,2.55,5.36,5.36,0,0,1-1.37,2,3.37,3.37,0,0,1-.92.58,3.75,3.75,0,0,1-.47.17,3.69,3.69,0,0,1-.46.08,4,4,0,0,1-1.48-.14c-.35-.1-.55-.16-.57-.13s.14.17.47.37a3.71,3.71,0,0,0,1.59.5,3.49,3.49,0,0,0,.56,0,3.23,3.23,0,0,0,.61-.1,2.5,2.5,0,0,0,.51-.16,2.05,2.05,0,0,0-.2.39,3.69,3.69,0,0,0-.22.57,4.15,4.15,0,0,0-.1.56,3.77,3.77,0,0,0,.19,1.64c.13.36.24.55.27.54a2,2,0,0,0,0-.59,4.29,4.29,0,0,1,.15-1.47,4,4,0,0,1,.17-.44,4.77,4.77,0,0,1,.25-.43,3.39,3.39,0,0,1,.74-.78,4.43,4.43,0,0,1,1.23-.68,11.83,11.83,0,0,1,3.45-.26l.13,0h0a4.72,4.72,0,0,1,2.12,1,3.11,3.11,0,0,1,1,1.5,2,2,0,0,1,.06,1.13,1,1,0,0,1-.32.54l-.06,0,0,0,0,0a.83.83,0,0,0-.16.09l-.19.08-.1,0-.07,0a1.37,1.37,0,0,1-.64,0,2,2,0,0,1-.55-.21l-.08-.05h0l-.06,0-.1,0a.41.41,0,0,1,.09-.1c.23-.19.45-.33.45-.5s-.19-.34-.65-.4a1.64,1.64,0,0,0-.42,0,1.07,1.07,0,0,0-.77.84,1,1,0,0,0,0,.24,1.79,1.79,0,0,0,0,.23,1.85,1.85,0,0,0,.3.73,2.85,2.85,0,0,0,1.12,1,3.15,3.15,0,0,0,1.68.3l.24,0,.21,0,.43-.12.43-.19.11-.06.1-.07.21-.14A3.19,3.19,0,0,0,509.44,81.32Zm-6.09-7.61C502.63,70.5,508,69.8,508,69.8,506,74.68,503.35,73.71,503.35,73.71Z"/><path class="cls-1" d="M496.8,182.11a4.19,4.19,0,0,0,2.49-.73,5.2,5.2,0,0,0,2-2.45,5.85,5.85,0,0,0,.33-1.08c3.57,3.16,9.79,3.7,10.52,3.75h0c-.23-.73-2.32-6.92-6.42-9.55a6,6,0,0,0,1.61-.79,5.18,5.18,0,0,0,1.21-1.17,4.91,4.91,0,0,0,.74-1.36,4.16,4.16,0,0,0,.16-2.58,3.3,3.3,0,0,0-1.25-1.81l-.23-.15-.11-.07-.11-.06-.45-.19-.44-.12-.22-.05-.25,0a3.15,3.15,0,0,0-1.74.34,2.9,2.9,0,0,0-1.15,1,2,2,0,0,0-.3.76,1,1,0,0,0,0,.24,1.13,1.13,0,0,0,0,.25,1.15,1.15,0,0,0,.2.45,1.17,1.17,0,0,0,.61.41,1.39,1.39,0,0,0,.44,0c.48-.07.66-.26.66-.42s-.22-.32-.47-.51l-.1-.11.11,0,.06,0h0l.08-.05a1.85,1.85,0,0,1,.58-.22,1.46,1.46,0,0,1,.66,0l.08,0,.09,0,.2.08.17.1,0,0,0,0,.07.06a1.08,1.08,0,0,1,.34.55,2.08,2.08,0,0,1,0,1.18,3.36,3.36,0,0,1-.36.81,3.25,3.25,0,0,1-.65.76,5,5,0,0,1-2.19,1,7,7,0,0,1-2.69,0,5.43,5.43,0,0,1-2.34-1,3.73,3.73,0,0,1-.79-.8,4.12,4.12,0,0,1-.27-.45c-.06-.15-.13-.3-.18-.45a4.5,4.5,0,0,1-.17-1.53,2.07,2.07,0,0,0,0-.61s-.15.18-.29.56a4.15,4.15,0,0,0-.17,1.71,4.28,4.28,0,0,0,.12.58,4.08,4.08,0,0,0,.23.6,3.87,3.87,0,0,0,.27.48,4.14,4.14,0,0,0-.43-.13,3.65,3.65,0,0,0-.64-.09,3.7,3.7,0,0,0-.58,0,4.07,4.07,0,0,0-1.63.53c-.34.22-.51.36-.49.39s.23,0,.6-.14a4.39,4.39,0,0,1,1.52-.16,4,4,0,0,1,.48.08,3.17,3.17,0,0,1,.49.17,3.32,3.32,0,0,1,.95.59,4.44,4.44,0,0,1,1,1.1,12.44,12.44,0,0,1,1,3.46l.06.12h0a4.84,4.84,0,0,1-.52,2.36,3.1,3.1,0,0,1-.6.8,3,3,0,0,1-.71.53,2.17,2.17,0,0,1-1.14.3,1.15,1.15,0,0,1-.62-.21l-.07-.06,0,0,0,0-.14-.14a1.88,1.88,0,0,0-.12-.18l-.06-.08a.16.16,0,0,0,0-.07,1.35,1.35,0,0,1-.16-.64,1.75,1.75,0,0,1,.09-.61.92.92,0,0,0,0-.09s0,0,0,0,0,0,0-.05a.93.93,0,0,0-.05-.1l.13.07c.24.2.43.39.6.35s.3-.26.26-.74a1.13,1.13,0,0,0-.65-.93,1.3,1.3,0,0,0-.49-.1,1.07,1.07,0,0,0-.25,0,1.41,1.41,0,0,0-.22.06,1.9,1.9,0,0,0-.68.46,2.94,2.94,0,0,0-.74,1.34,3.24,3.24,0,0,0,0,1.77l.09.24a1.86,1.86,0,0,0,.1.2,4,4,0,0,0,.21.41l.29.4.07.1.1.09.19.18A3.31,3.31,0,0,0,496.8,182.11Zm6.45-7.79c3.11-1.4,5,3.9,5,3.9C502.82,177.23,503.25,174.32,503.25,174.32Z"/><path class="cls-1" d="M10.26,82.27l.22.15.1.07.11.05.43.2.43.12.21,0,.23,0a3.07,3.07,0,0,0,1.69-.3,2.83,2.83,0,0,0,1.12-1,1.93,1.93,0,0,0,.3-.73,1.5,1.5,0,0,0,0-.22,1,1,0,0,0,0-.24A1.2,1.2,0,0,0,14.9,80a1.06,1.06,0,0,0-.58-.39,1.09,1.09,0,0,0-.42,0c-.46.06-.64.24-.65.4s.21.3.45.49a.87.87,0,0,1,.09.11l-.1,0H13.6l-.08,0a1.73,1.73,0,0,1-.56.21,1.33,1.33,0,0,1-.63,0l-.08,0-.09,0L12,80.66l-.16-.1,0,0,0,0-.06-.06a1.07,1.07,0,0,1-.33-.53,2,2,0,0,1,.07-1.14,2.43,2.43,0,0,1,.36-.77,3.08,3.08,0,0,1,.64-.73,4.72,4.72,0,0,1,2.11-1h0l.13,0a11.82,11.82,0,0,1,3.45.25,5,5,0,0,1,1.23.68,3.43,3.43,0,0,1,.74.79,3.58,3.58,0,0,1,.25.42c.06.15.13.3.17.44a4.33,4.33,0,0,1,.15,1.47c0,.37-.06.58,0,.59s.14-.17.27-.53a3.82,3.82,0,0,0,.19-1.65c0-.18-.06-.36-.1-.55a4.58,4.58,0,0,0-.22-.58,2,2,0,0,0-.2-.38,5,5,0,0,0,.51.16,4.31,4.31,0,0,0,.61.1,3.49,3.49,0,0,0,.56,0,3.9,3.9,0,0,0,1.58-.5c.34-.2.5-.35.48-.38s-.22,0-.57.14a4.29,4.29,0,0,1-1.48.13,4.2,4.2,0,0,1-.47-.08,3.36,3.36,0,0,1-.47-.17,3.24,3.24,0,0,1-.91-.58,5.2,5.2,0,0,1-1.37-2,6.61,6.61,0,0,1-.49-2.55,4.69,4.69,0,0,1,.55-2.26,2.91,2.91,0,0,1,.59-.77,2.87,2.87,0,0,1,.7-.49,1.94,1.94,0,0,1,1.1-.27,1,1,0,0,1,.59.21l.06.05,0,0,0,0,.12.14.12.17a.41.41,0,0,1,.05.09.21.21,0,0,1,0,.06,1.3,1.3,0,0,1,.15.63,1.83,1.83,0,0,1-.1.58.46.46,0,0,1,0,.09s0,0,0,0,0,0,0,0a.69.69,0,0,1,0,.1L22.52,70c-.23-.2-.41-.38-.57-.35s-.3.25-.27.71a1.65,1.65,0,0,0,.12.41,1,1,0,0,0,.5.49,1.08,1.08,0,0,0,.47.11l.24,0a1.41,1.41,0,0,0,.22-.06,1.84,1.84,0,0,0,.66-.43,2.87,2.87,0,0,0,.73-1.28,3,3,0,0,0,0-1.71l-.08-.23a.88.88,0,0,0-.09-.2c-.06-.13-.12-.26-.19-.39L24,66.63l-.07-.1-.09-.09-.18-.18a3.22,3.22,0,0,0-1.95-.83,4.07,4.07,0,0,0-2.41.66,5,5,0,0,0-2,2.33,5.71,5.71,0,0,0-.44,1.68C13.54,66.74,7.29,66,6.56,65.9h0c.19.69,1.91,6.45,5.59,9.21a5.89,5.89,0,0,0-1,.51A5,5,0,0,0,10,76.73,5.11,5.11,0,0,0,9.27,78a4,4,0,0,0-.19,2.49A3.14,3.14,0,0,0,10.26,82.27ZM10.52,69s5.37.71,4.64,3.92C15.16,72.91,12.51,73.88,10.52,69Z"/><path class="cls-1" d="M23.76,180.47l.19-.19.09-.09.08-.1c.1-.13.2-.26.29-.4s.14-.27.21-.4.07-.13.1-.21l.08-.23a3.19,3.19,0,0,0,.05-1.78,2.91,2.91,0,0,0-.74-1.33,1.78,1.78,0,0,0-.68-.46l-.23-.07-.25,0a1,1,0,0,0-.48.1,1.12,1.12,0,0,0-.53.5,1.46,1.46,0,0,0-.13.43c0,.48.12.7.27.73s.36-.15.6-.34l.12-.08a.42.42,0,0,1,0,.1c0,.06,0,.05,0,.06v0a.19.19,0,0,0,0,.09,2.46,2.46,0,0,1,.09.61,1.48,1.48,0,0,1-.16.64l0,.07-.06.09a.94.94,0,0,0-.12.18l-.14.14,0,0,0,0-.06.05a1.19,1.19,0,0,1-.62.22,2.11,2.11,0,0,1-1.14-.31,3,3,0,0,1-.71-.52,3.16,3.16,0,0,1-.6-.81,4.94,4.94,0,0,1-.53-2.35v0a.75.75,0,0,0,.07-.12,12.47,12.47,0,0,1,1-3.45,4.68,4.68,0,0,1,.95-1.11,3.56,3.56,0,0,1,.95-.59,4.66,4.66,0,0,1,.49-.16,4.2,4.2,0,0,1,.47-.08,4.42,4.42,0,0,1,1.53.16,2.16,2.16,0,0,0,.6.14s-.15-.18-.49-.39a3.91,3.91,0,0,0-1.63-.54,5.71,5.71,0,0,0-.59,0,5.12,5.12,0,0,0-.63.1,3.45,3.45,0,0,0-.43.12,3.26,3.26,0,0,0,.27-.48,4.36,4.36,0,0,0,.23-.6,4.48,4.48,0,0,0,.12-.57,3.92,3.92,0,0,0-.18-1.71c-.13-.38-.25-.58-.28-.57a2.14,2.14,0,0,0,0,.62,4.35,4.35,0,0,1-.18,1.53,3.25,3.25,0,0,1-.44.89,3.77,3.77,0,0,1-.79.81,5.43,5.43,0,0,1-2.34,1,7.15,7.15,0,0,1-2.69,0,4.91,4.91,0,0,1-2.19-1,3.1,3.1,0,0,1-.65-.77,2.88,2.88,0,0,1-.36-.81,2.08,2.08,0,0,1,0-1.18,1.08,1.08,0,0,1,.34-.55l.06-.05,0,0,0,0,.16-.1.21-.07.09,0,.08,0a1.46,1.46,0,0,1,.66,0,1.92,1.92,0,0,1,.57.23l.09,0h.09l.11,0-.1.1c-.25.2-.48.34-.47.51s.18.36.66.42a1.39,1.39,0,0,0,.44,0,1.09,1.09,0,0,0,.61-.4,1.19,1.19,0,0,0,.2-.46,1.05,1.05,0,0,0,0-.24,1,1,0,0,0,0-.24,1.92,1.92,0,0,0-.3-.76,2.92,2.92,0,0,0-1.15-1,3.33,3.33,0,0,0-1.74-.34l-.25,0-.22,0-.44.11-.45.2-.12.05-.11.07-.22.15A3.24,3.24,0,0,0,9,165.34a4.12,4.12,0,0,0,.16,2.59,4.86,4.86,0,0,0,.74,1.35,5,5,0,0,0,1.21,1.17,6.06,6.06,0,0,0,1.61.8c-4.1,2.63-6.19,8.82-6.42,9.54h0c.74-.06,7-.6,10.53-3.75a5.85,5.85,0,0,0,.33,1.08,4.94,4.94,0,0,0,.87,1.43,5,5,0,0,0,1.16,1,4.23,4.23,0,0,0,2.49.72A3.35,3.35,0,0,0,23.76,180.47Zm-13.45-3.05s1.85-5.31,5-3.9C15.27,173.52,15.7,176.42,10.31,177.42Z"/></g></g></svg>