<svg xmlns="http://www.w3.org/2000/svg" viewBox="0 0 194.43 55.85"><defs><style>.cls-1{fill:#222221;}</style></defs><g id="Capa_2" data-name="Capa 2"><g id="object"><path class="cls-1" d="M124.14,55.85l-.23-.11-.67-.33q-.9-.44-2.61-1.35c-1.14-.61-2.55-1.37-4.23-2.24S112.77,50,110.5,49c-1.13-.48-2.34-.95-3.65-1.36a25.82,25.82,0,0,0-4.2-1c-.37-.06-.75-.08-1.14-.12l-.58,0a5.81,5.81,0,0,0-.59,0l-.6,0-.6.05a6,6,0,0,0-.61.08c-.2,0-.41.06-.61.12l-.61.16c-.2.06-.4.14-.6.21s-.39.16-.59.25-.38.18-.57.28a5.38,5.38,0,0,0-2.08,1.71,2.08,2.08,0,0,0-.32,1.47,2.4,2.4,0,0,0,.75,1.32,5.43,5.43,0,0,0,2.61,1.25,8.58,8.58,0,0,0,2.95.1,9.75,9.75,0,0,0,1.47-.34l.71-.25.71-.31a7,7,0,0,0,1.33-.85,4.12,4.12,0,0,0,1.07-1.27,3.69,3.69,0,0,0,.43-1.66,5,5,0,0,0-.26-1.67,8.17,8.17,0,0,0-.67-1.51,12.77,12.77,0,0,0-.91-1.39,21.54,21.54,0,0,0-2.21-2.48,28.86,28.86,0,0,0-5.46-4.12,34.56,34.56,0,0,0-6.51-2.93,28.53,28.53,0,0,0-7.33-1.44,17.88,17.88,0,0,0-7.73,1.14,13.09,13.09,0,0,0-3.51,2.1l-.4.33-.37.37c-.13.12-.25.24-.37.37l-.35.4a6.39,6.39,0,0,0-1.16,1.88,4.2,4.2,0,0,0-.22,2.36,4.66,4.66,0,0,0,1.09,2.09,8.33,8.33,0,0,0,1.7,1.45,13.09,13.09,0,0,0,1.92,1,21.11,21.11,0,0,0,8.46,1.68l.56,0,.54-.05,1.08-.1c.72-.05,1.44-.17,2.16-.27l1.08-.16,1.08-.2c.72-.14,1.44-.26,2.15-.44a85,85,0,0,0,16.95-6C109.27,40,112,38.56,114.74,37l2-1.16,2-1.2,4-2.47c5.37-3.33,10.78-6.79,16.42-10A111.06,111.06,0,0,1,157,13.79l1.59-.56c.53-.18,1.05-.34,1.59-.5,1.06-.3,2.14-.57,3.23-.81A59,59,0,0,1,170,10.85a48,48,0,0,1,6.55-.29,30.39,30.39,0,0,1,6.35.77,15.82,15.82,0,0,1,5.62,2.46,9.63,9.63,0,0,1,3.46,4.68,11.4,11.4,0,0,1,.6,2.92,24.26,24.26,0,0,1,.08,3.07l0,.76-.08.75c0,.51-.14,1-.22,1.49a15.33,15.33,0,0,1-.84,2.85l-.13.34c0,.12-.11.23-.16.34l-.32.66a14.34,14.34,0,0,1-.76,1.25,12.67,12.67,0,0,1-.87,1.17c-.16.19-.33.36-.49.55s-.16.18-.25.26l-.26.26a18.07,18.07,0,0,1-4.82,3.27,29.51,29.51,0,0,1-5.54,1.91,45.35,45.35,0,0,1-5.75,1,73.19,73.19,0,0,1-11.45.2c-3.75-.2-7.43-.61-11-1.14s-7.07-1.19-10.46-1.93-6.67-1.58-9.83-2.5c-1.58-.46-3.12-1-4.65-1.48l-4.52-1.48c-1.48-.5-2.93-1-4.36-1.51s-2.84-1-4.22-1.49c-11-4-20.48-7.85-28.15-11l-6-2.61-6.64-2.9-7.24-3.16C61,9.18,58.41,8.06,55.68,7S50.1,4.78,47.11,3.8a86.83,86.83,0,0,0-9.38-2.55A56.24,56.24,0,0,0,27.52,0a40.13,40.13,0,0,0-5.35.2,36.58,36.58,0,0,0-5.42.93,25,25,0,0,0-10.2,5,19.75,19.75,0,0,0-4,4.42l-.41.64-.37.67-.18.33-.16.35c-.11.23-.22.46-.32.69-.18.49-.39,1-.52,1.46-.07.25-.16.49-.21.74l-.17.76a13.28,13.28,0,0,0,.3,6.26A14.79,14.79,0,0,0,3.65,28l.26.31.28.28.55.58c.39.36.79.71,1.19,1.06s.83.66,1.26,1l1.31.89A33.53,33.53,0,0,0,14.21,35a49.32,49.32,0,0,0,12.56,2.93c2.16.24,4.34.35,6.53.4,1.1,0,2.2,0,3.3,0s2.2-.06,3.31-.13a118.34,118.34,0,0,0,13.3-1.47q6.67-1.09,13.33-2.83l9.65-2.64c1.59-.44,3.19-.86,4.77-1.32l4.72-1.38,4.68-1.38c1.55-.45,3.1-.9,4.64-1.39l9.12-2.87,2.26-.72,2.23-.75,4.43-1.5,4.39-1.48,2.18-.74c.72-.26,1.45-.51,2.16-.78,5.72-2.1,11.23-4.31,16.75-5.91A46.18,46.18,0,0,1,155,8.9a38.09,38.09,0,0,1,7.85,1.31,22.88,22.88,0,0,1,3.61,1.34,12.85,12.85,0,0,1,3.08,2,7.06,7.06,0,0,1,2,2.88,7.2,7.2,0,0,1,.21,3.42,11.85,11.85,0,0,1-1.13,3.32,11.35,11.35,0,0,1-2,2.84A12.62,12.62,0,0,1,166,28.19a17.58,17.58,0,0,1-3,1.44,26,26,0,0,1-6.46,1.31,45.11,45.11,0,0,1-6.36,0c-2.07-.11-4.08-.34-6-.61s-3.84-.6-5.66-.94-3.59-.71-5.28-1.12A63,63,0,0,1,116.52,22,28.23,28.23,0,0,1,108,14.81l-.29-.37-.25-.37-.44-.65c-.25-.43-.47-.77-.63-1.07l-.46-.88.44.89c.15.3.37.65.61,1.08l.43.67.24.37.28.38a28.38,28.38,0,0,0,8.47,7.43A62.56,62.56,0,0,0,133,28.9q2.53.66,5.28,1.22c1.83.36,3.73.73,5.69,1s4,.56,6.09.7a45.1,45.1,0,0,0,6.48,0,26.81,26.81,0,0,0,6.73-1.28,18,18,0,0,0,3.26-1.49,13.79,13.79,0,0,0,2.89-2.3,12.48,12.48,0,0,0,2.19-3.08,12.86,12.86,0,0,0,1.28-3.65,8.22,8.22,0,0,0-.21-4,8.21,8.21,0,0,0-2.26-3.44A14,14,0,0,0,167,10.35a23.44,23.44,0,0,0-3.81-1.47,42.54,42.54,0,0,0-12.36-1.56c-.71,0-1.43.07-2.14.13s-1.43.13-2.14.23a62,62,0,0,0-8.51,1.81c-5.64,1.58-11.2,3.78-16.9,5.83l-2.14.76-2.18.72-4.38,1.46-4.43,1.47-2.23.74-2.25.7L94.45,24c-1.52.49-3.07.93-4.63,1.38l-4.67,1.36-4.71,1.37c-1.57.46-3.17.87-4.76,1.31l-9.62,2.63c-4.38,1.13-8.77,2.08-13.15,2.8a118,118,0,0,1-13.1,1.48c-1.09.07-2.17.1-3.25.13s-2.15,0-3.23,0c-2.14,0-4.27-.14-6.37-.37a47.41,47.41,0,0,1-12.12-2.76,31.31,31.31,0,0,1-5.41-2.68l-1.24-.83c-.4-.29-.78-.6-1.18-.9s-.74-.64-1.09-1l-.51-.52-.26-.26-.23-.27A13,13,0,0,1,2.11,22a11.49,11.49,0,0,1-.3-5.49L2,15.84c.05-.22.13-.44.19-.67.11-.44.3-.87.45-1.3.09-.21.19-.42.29-.63L3,12.92l.16-.3L3.51,12l.37-.59A18.5,18.5,0,0,1,7.51,7.31c.34-.31.72-.57,1.07-.86s.75-.52,1.12-.78.77-.48,1.16-.7l.6-.32c.2-.11.39-.22.6-.31.41-.19.81-.4,1.23-.56s.82-.35,1.25-.49l.63-.22c.21-.08.43-.13.64-.2.43-.12.86-.27,1.29-.37a36.09,36.09,0,0,1,5.21-.95A39.38,39.38,0,0,1,27.5,1.3a55.47,55.47,0,0,1,10,1.09A87,87,0,0,1,46.79,4.8c3,.92,5.81,2,8.55,3S60.7,10,63.22,11l7.29,3.05,6.69,2.79q3.19,1.33,6.07,2.51c7.62,3.29,17,7.28,28,11.45,1.37.52,2.78,1,4.21,1.54s2.87,1.06,4.35,1.58l4.51,1.54c1.53.51,3.07,1.06,4.67,1.54q4.77,1.45,9.88,2.64c3.4.78,6.91,1.48,10.53,2.06s7.32,1,11.14,1.26a73.77,73.77,0,0,0,11.69-.11,46,46,0,0,0,6-1,30.28,30.28,0,0,0,5.87-2,19.43,19.43,0,0,0,5.3-3.56l.3-.28a3.83,3.83,0,0,0,.28-.29c.18-.21.37-.4.55-.61.34-.43.69-.85,1-1.31a15.6,15.6,0,0,0,.86-1.41l.37-.74.18-.37.15-.39a16.88,16.88,0,0,0,.95-3.16c.09-.55.21-1.09.25-1.64l.09-.82,0-.82a26,26,0,0,0-.08-3.3,13.19,13.19,0,0,0-.67-3.35,11.76,11.76,0,0,0-.67-1.6,12.11,12.11,0,0,0-.93-1.5,11.19,11.19,0,0,0-1.15-1.33,13.23,13.23,0,0,0-1.34-1.14,15.88,15.88,0,0,0-1.46-1,17.11,17.11,0,0,0-1.55-.76,21.1,21.1,0,0,0-3.26-1.08,32,32,0,0,0-6.74-.84,51.49,51.49,0,0,0-6.8.28,62.42,62.42,0,0,0-6.75,1.1c-1.12.25-2.24.53-3.35.84-.55.17-1.12.34-1.66.52l-1.63.57a112.45,112.45,0,0,0-18,8.58c-5.69,3.26-11.11,6.75-16.46,10.09-1.33.84-2.67,1.66-4,2.48l-2,1.2-2,1.15q-4,2.28-8.11,4.21a83.77,83.77,0,0,1-16.58,6c-.69.18-1.39.31-2.09.45l-1,.21-1,.16c-.7.1-1.39.22-2.09.27l-1,.11-.52.05-.5,0a18.73,18.73,0,0,1-4-.35A19.39,19.39,0,0,1,73,45.46a11.7,11.7,0,0,1-1.72-.9,6.72,6.72,0,0,1-1.41-1.16A3.28,3.28,0,0,1,69.1,42a2.7,2.7,0,0,1,.14-1.58,5.11,5.11,0,0,1,.91-1.5l.29-.35.33-.33.33-.33.35-.31a11.93,11.93,0,0,1,3.14-1.92,16.83,16.83,0,0,1,7.18-1.13,27.91,27.91,0,0,1,7,1.3,33.39,33.39,0,0,1,6.34,2.76,28,28,0,0,1,5.32,3.91,21.44,21.44,0,0,1,2.15,2.34,12.89,12.89,0,0,1,.86,1.27,7.43,7.43,0,0,1,.62,1.35,4,4,0,0,1,.24,1.39,2.88,2.88,0,0,1-.31,1.29,4.58,4.58,0,0,1-2,1.8c-.21.1-.42.21-.64.3l-.66.25a9.43,9.43,0,0,1-1.35.32,7.88,7.88,0,0,1-2.7,0,4.91,4.91,0,0,1-2.31-1.05,1.78,1.78,0,0,1-.58-.95A1.47,1.47,0,0,1,94,49.69a3.47,3.47,0,0,1,.8-.87,7.56,7.56,0,0,1,1-.67,5.6,5.6,0,0,1,.55-.27,5.45,5.45,0,0,1,.55-.25l.56-.2.57-.16c.19-.06.39-.08.58-.12a3.75,3.75,0,0,1,.57-.09l.58-.06.58,0h.57l.56,0c.38,0,.75,0,1.12.1a24.82,24.82,0,0,1,4.14.91c1.3.39,2.52.83,3.65,1.29,2.27.91,4.24,1.85,5.93,2.69s3.12,1.57,4.27,2.15,2,1,2.64,1.3l.68.32Z"/></g></g></svg>