<svg xmlns="http://www.w3.org/2000/svg" viewBox="0 0 138.32 139.01"><defs><style>.cls-1{fill:rgba(68,60,42,100);}</style></defs><g id="Capa_2" data-name="Capa 2"><g id="object"><path class="cls-1" d="M90.18,47.42l0-.45,0-.23,0-.21c-.07-.27-.14-.55-.22-.81s-.21-.48-.31-.72-.1-.23-.17-.35l-.22-.36a5.5,5.5,0,0,0-2.3-2,5.11,5.11,0,0,0-2.58-.47,3.41,3.41,0,0,0-1.34.42,1.65,1.65,0,0,0-.33.23,1.74,1.74,0,0,0-.31.3,2.12,2.12,0,0,0-.39.76,2,2,0,0,0,.1,1.24,2.55,2.55,0,0,0,.43.63c.6.56,1,.6,1.27.44s.19-.64.18-1.17a1.87,1.87,0,0,1,0-.25.67.67,0,0,1,.08.17c0,.11,0,.07,0,.1l0,0,.15.07a3,3,0,0,1,.91.53,2.48,2.48,0,0,1,.68.91l0,.12s0,.12,0,.18.07.23.11.35,0,.22,0,.33l0,.08v.22a1.93,1.93,0,0,1-.38,1,3.67,3.67,0,0,1-1.63,1.19,5.65,5.65,0,0,1-3.19.3,8.33,8.33,0,0,1-3.69-1.84l0,0L77.1,48a20.85,20.85,0,0,1-3.53-5,8.28,8.28,0,0,1-.44-2.45,5.83,5.83,0,0,1,.25-1.9,5.34,5.34,0,0,1,.31-.82,5,5,0,0,1,.41-.72A7.37,7.37,0,0,1,76,35.19c.53-.37.85-.58.83-.65a2.49,2.49,0,0,0-1.05.24,6.77,6.77,0,0,0-2.47,1.58c-.23.23-.43.5-.65.77a7,7,0,0,0-.55.94,5.6,5.6,0,0,0-.3.71,5.56,5.56,0,0,0-.35-.88,7.84,7.84,0,0,0-.54-.95,7.26,7.26,0,0,0-.64-.77,6.74,6.74,0,0,0-2.46-1.62c-.65-.23-1-.29-1-.23s.29.26.83.63a7.54,7.54,0,0,1,1.84,1.89,7.11,7.11,0,0,1,.41.72,6.92,6.92,0,0,1,.3.84,5.9,5.9,0,0,1,.22,1.91,9.46,9.46,0,0,1-1.23,4.16,12.34,12.34,0,0,1-3,3.53,8.46,8.46,0,0,1-3.72,1.79,5.27,5.27,0,0,1-1.72,0,5,5,0,0,1-1.47-.4,3.59,3.59,0,0,1-1.61-1.21,1.86,1.86,0,0,1-.37-1,.38.38,0,0,0,0-.15v-.15a1.88,1.88,0,0,0,0-.33c0-.12.08-.24.11-.35a1.67,1.67,0,0,0,.05-.18.61.61,0,0,0,0-.12,2.47,2.47,0,0,1,.69-.9,3.14,3.14,0,0,1,.92-.52l.15-.06,0,0,0-.1a1.14,1.14,0,0,1,.09-.16l0,.24c0,.54-.07,1,.17,1.18s.67.13,1.27-.43a2.3,2.3,0,0,0,.43-.62,1.91,1.91,0,0,0,.12-1.24,1.82,1.82,0,0,0-.38-.76,1.77,1.77,0,0,0-.3-.31,2.29,2.29,0,0,0-.33-.24,3.37,3.37,0,0,0-1.33-.42,5,5,0,0,0-2.59.43,5.52,5.52,0,0,0-2.33,1.94l-.22.37a3.59,3.59,0,0,0-.17.34c-.11.24-.22.47-.32.72s-.16.53-.23.81l-.05.21,0,.22,0,.45a5.62,5.62,0,0,0,1.05,3.63,7.15,7.15,0,0,0,3.61,2.58,9,9,0,0,0,2.59.48,8.8,8.8,0,0,0,2.86-.35,10.32,10.32,0,0,0,2.8-1.29c-.94,8.3,5,17.75,5.74,18.83v0h0v0c.72-1,6.71-9.87,6.38-18a9.52,9.52,0,0,0,1.78.73,8.5,8.5,0,0,0,2.85.39,8.63,8.63,0,0,0,2.6-.44A7.19,7.19,0,0,0,89.09,51,5.6,5.6,0,0,0,90.18,47.42ZM71.62,62s-5.06-8.17.17-10.78C71.79,51.2,76.11,53.76,71.62,62Z"/><path class="cls-1" d="M77.21,9.63C75,14.55,74.46,21.45,74.39,22.36c0,.06,0,.11-.08.11L72.2,24.86a.71.71,0,0,1-1.06,0L69,22.47s-.08,0-.08-.11A45.36,45.36,0,0,0,66.13,9.63c0-.05,4.36-7.87,5.34-9.51a.23.23,0,0,1,.4,0C72.85,1.76,77.23,9.58,77.21,9.63Z"/><path class="cls-1" d="M71.74,25.92l-3.48,3.29h0c.63.84,3.48,5.68,3.48,5.68h0s2.71-4.84,3.34-5.68h0Z"/><path class="cls-1" d="M44.7,14.72a1.31,1.31,0,0,1-1.07-.53,2.8,2.8,0,0,1-.55-1.79A4.71,4.71,0,0,1,44,9.7a5.9,5.9,0,0,1,2.77-2.11A7.12,7.12,0,0,1,49,7.15a8.42,8.42,0,0,1,2.8.34A9.83,9.83,0,0,1,54.5,8.76a10.61,10.61,0,0,1,2.21,1.93,12.06,12.06,0,0,1,1.48,2.16c.18.35.34.7.48,1s.24.64.33.92.15.55.2.79a6,6,0,0,1,.09.61c0,.34,0,.54-.07.58s-.24-.08-.49-.3l-1-.93L57.12,15c-.24-.2-.49-.41-.75-.61a13.1,13.1,0,0,0-1.76-1.11,8.6,8.6,0,0,0-1.92-.71,7.17,7.17,0,0,0-1.77-.2,5.27,5.27,0,0,0-1.34.2c-.1,0-.17.06-.25.08l-.22.08-.19.07-.15.06-1,.38a6.6,6.6,0,0,0-1,.48C46.15,14.07,45.48,14.71,44.7,14.72Z"/><path class="cls-1" d="M28.81,18.9a.73.73,0,0,1-.16.63,1.54,1.54,0,0,1-.9.49,2.63,2.63,0,0,1-1.54-.19,3.27,3.27,0,0,1-1.44-1.25,4.08,4.08,0,0,1-.48-1.12,4.76,4.76,0,0,1-.13-1.53,5.26,5.26,0,0,1,.38-1.6,5.75,5.75,0,0,1,.78-1.4,7.53,7.53,0,0,1,1-1l.49-.37.46-.28.39-.19.32-.12c.18,0,.29-.06.32,0s0,.13-.11.29-.24.38-.39.62-.15.27-.24.41l-.24.47a6.1,6.1,0,0,0-.4,1.06,4.79,4.79,0,0,0-.16,1.1,3.64,3.64,0,0,0,.09,1,2.45,2.45,0,0,0,.26.7.47.47,0,0,0,.07.12l.06.11.06.09.05.07.31.49a4.19,4.19,0,0,0,.36.46C28.3,18.2,28.72,18.48,28.81,18.9Z"/><path class="cls-1" d="M66.37,15.28c-1.08-4.79-5.11-9.52-9.61-12.17S46.56.07,41.45.51c-6,.51-11.8,1.92-17.69,2.89-5.59.91-11.55,1.45-17.11-.56C6,2.62,5.33,2.7,5.14,3.12c-.43.25-.43,1-.08,1.5C7.75,8.8,13.15,11,18.12,11.54c5.13.57,9.31-2.46,13.06-5.2-.65,2.22-.91,4.52.42,6.72.58,1,2.81,3.16,2.09-.43-.75-3.76,3.59-6.55,7-8.17,4-1.92,9.12-1.46,13.46-.27a1.1,1.1,0,0,0,.35,0c.4.18.8.38,1.19.59A17,17,0,0,1,64,24.08c-1.32,5.56-5.18,12.51-12,13.44a10,10,0,0,1-8.23-2.92,6.11,6.11,0,0,1-1.14-1.8c-.73-1.54-.1-3.95,1-5.52,1.77,1.74,4.94,2.43,7.47,2.37,3.38-.09,6.69-2.49,6.22-5.34a14.08,14.08,0,0,0-.79-2c-2.45-4.93-12.07-3.75-16,1.39-4.36,5.73-.33,12.38,6.34,15.08,6.29,2.55,12-1.26,15.33-5.7A22.55,22.55,0,0,0,66.37,15.28ZM53.21,26.2h.08l-.14.06Z"/><path class="cls-1" d="M98.43,14.72a1.33,1.33,0,0,0,1.07-.53,2.86,2.86,0,0,0,.55-1.79,4.86,4.86,0,0,0-.92-2.7,6,6,0,0,0-2.78-2.11,7.06,7.06,0,0,0-2.2-.44,8.33,8.33,0,0,0-2.79.34,9.75,9.75,0,0,0-2.74,1.27,10.87,10.87,0,0,0-2.21,1.93,12.06,12.06,0,0,0-1.48,2.16c-.18.35-.34.7-.48,1s-.24.64-.33.92-.14.55-.2.79a6,6,0,0,0-.09.61c0,.34,0,.54.07.58s.24-.08.49-.3l1-.93c.2-.19.43-.38.65-.59s.49-.41.76-.61a13,13,0,0,1,1.75-1.11,8.79,8.79,0,0,1,1.92-.71,7.17,7.17,0,0,1,1.77-.2,5.36,5.36,0,0,1,1.35.2l.25.08.21.08.19.07.15.06,1,.38a7.15,7.15,0,0,1,1,.48C97,14.07,97.64,14.71,98.43,14.72Z"/><path class="cls-1" d="M114.31,18.9a.71.71,0,0,0,.17.63,1.48,1.48,0,0,0,.89.49,2.66,2.66,0,0,0,1.55-.19,3.24,3.24,0,0,0,1.43-1.25,3.55,3.55,0,0,0,.48-1.12,4.76,4.76,0,0,0,.13-1.53,5.56,5.56,0,0,0-.37-1.6,6.13,6.13,0,0,0-.79-1.4,6.5,6.5,0,0,0-1-1c-.17-.13-.33-.26-.49-.37s-.31-.2-.46-.28l-.39-.19-.32-.12c-.18,0-.29-.06-.32,0s0,.13.11.29l.39.62c.08.12.15.27.24.41l.24.47a6.1,6.1,0,0,1,.4,1.06,4.82,4.82,0,0,1,.17,1.1,3.62,3.62,0,0,1-.1,1,2.81,2.81,0,0,1-.25.7,1.27,1.27,0,0,1-.07.12.41.41,0,0,1-.07.11.41.41,0,0,0,0,.09l-.06.07c-.11.19-.21.34-.31.49a4.19,4.19,0,0,1-.36.46C114.82,18.2,114.41,18.48,114.31,18.9Z"/><path class="cls-1" d="M80.83,33.12c3.28,4.44,9,8.25,15.34,5.7,6.66-2.7,10.69-9.35,6.34-15.08-3.91-5.14-13.53-6.32-16-1.39a13.09,13.09,0,0,0-.8,2c-.47,2.85,2.85,5.25,6.22,5.34,2.54.06,5.7-.63,7.48-2.37,1.14,1.57,1.78,4,1,5.52a5.91,5.91,0,0,1-1.14,1.8,10,10,0,0,1-8.22,2.92c-6.78-.93-10.64-7.88-12-13.44A17,17,0,0,1,87.48,4.83c.4-.21.79-.41,1.2-.59a1.08,1.08,0,0,0,.34,0c4.34-1.19,9.47-1.65,13.47.27,3.35,1.62,7.69,4.41,6.94,8.17-.71,3.59,1.52,1.39,2.1.43,1.33-2.2,1.06-4.5.41-6.72,3.75,2.74,7.94,5.77,13.07,5.2,5-.56,10.36-2.74,13-6.92.36-.55.36-1.25-.08-1.5-.18-.42-.88-.5-1.5-.28-5.56,2-11.53,1.47-17.11.56-5.9-1-11.7-2.38-17.7-2.89C96.56.07,90.94.41,86.36,3.11s-8.52,7.38-9.61,12.17A22.59,22.59,0,0,0,80.83,33.12ZM90,26.27l-.14-.06h.08Z"/><path class="cls-1" d="M47.41,53.61l-.45,0-.22,0-.21,0c-.28.06-.55.14-.82.21l-.71.31-.35.17-.37.22a5.6,5.6,0,0,0-2,2.31,5.06,5.06,0,0,0-.46,2.57,3.43,3.43,0,0,0,.41,1.35,3.29,3.29,0,0,0,.23.33,2.13,2.13,0,0,0,.3.3,1.84,1.84,0,0,0,.76.39,1.87,1.87,0,0,0,1.24-.1,2.16,2.16,0,0,0,.63-.43c.57-.59.61-1.05.44-1.26s-.63-.19-1.17-.19a.88.88,0,0,1-.24,0l.16-.09c.12,0,.08,0,.1-.05s0,0,0,0a1.16,1.16,0,0,0,.06-.15,3.53,3.53,0,0,1,.53-.91,2.48,2.48,0,0,1,.91-.69l.13,0,.17,0,.35-.11.33,0,.09,0h.22a1.83,1.83,0,0,1,1,.37,3.66,3.66,0,0,1,1.19,1.63,5.46,5.46,0,0,1,.38,1.47,5.31,5.31,0,0,1-.07,1.72,8.33,8.33,0,0,1-1.84,3.69l0,0a2,2,0,0,1-.22.09,20.85,20.85,0,0,1-5,3.53,8.28,8.28,0,0,1-2.45.44,6.11,6.11,0,0,1-1.9-.24,5.34,5.34,0,0,1-.82-.31,8,8,0,0,1-.72-.41,7.21,7.21,0,0,1-1.86-1.86c-.37-.53-.58-.85-.65-.83s0,.4.24,1a6.77,6.77,0,0,0,1.58,2.47,7.26,7.26,0,0,0,.77.64,7.07,7.07,0,0,0,.94.56,5.6,5.6,0,0,0,.71.3,5.56,5.56,0,0,0-.88.35,5.85,5.85,0,0,0-.95.54,6.23,6.23,0,0,0-.77.64A6.74,6.74,0,0,0,34.56,76c-.23.65-.29,1-.23,1s.26-.3.64-.83a7.48,7.48,0,0,1,1.88-1.85,6.29,6.29,0,0,1,.73-.4,5.44,5.44,0,0,1,.83-.3,5.9,5.9,0,0,1,1.91-.22,9.33,9.33,0,0,1,4.16,1.23,12.15,12.15,0,0,1,3.53,3,8.44,8.44,0,0,1,1.79,3.73,5.22,5.22,0,0,1,.05,1.71,5.64,5.64,0,0,1-.4,1.47,3.67,3.67,0,0,1-1.21,1.61,1.89,1.89,0,0,1-1.05.37H47l-.08,0-.33-.05-.35-.11-.17,0-.13,0a2.45,2.45,0,0,1-.9-.69,3.11,3.11,0,0,1-.52-.92,1.16,1.16,0,0,0-.06-.15s0,0,0,0,0,0-.09,0l-.17-.09a1,1,0,0,1,.25,0c.53,0,1,.06,1.17-.17s.14-.67-.42-1.27a2.17,2.17,0,0,0-.63-.44,1.88,1.88,0,0,0-1.23-.12,1.92,1.92,0,0,0-.77.38,3,3,0,0,0-.31.3,3.29,3.29,0,0,0-.23.33,3.23,3.23,0,0,0-.43,1.34A5.07,5.07,0,0,0,42,87.24a5.49,5.49,0,0,0,1.95,2.33l.36.23.35.17.71.32.82.22.2.06.23,0,.45,0a5.58,5.58,0,0,0,3.63-1A7.19,7.19,0,0,0,53.23,86a8.63,8.63,0,0,0,.48-2.59,8.8,8.8,0,0,0-.35-2.86,10.6,10.6,0,0,0-1.28-2.8c8.29.94,17.74-5,18.82-5.75h0c-1-.73-9.87-6.71-18-6.38a10.28,10.28,0,0,0,.74-1.78A9,9,0,0,0,54,61a8.63,8.63,0,0,0-.45-2.6A7.19,7.19,0,0,0,51,54.7,5.64,5.64,0,0,0,47.41,53.61ZM62,72.17S53.81,77.23,51.2,72C51.2,72,53.75,67.68,62,72.17Z"/><path class="cls-1" d="M9.62,66.6c4.93,2.16,11.83,2.74,12.74,2.81.06,0,.1,0,.1.08l2.4,2.12a.69.69,0,0,1,0,1l-2.39,2.12s0,.07-.1.08A45.33,45.33,0,0,0,9.63,77.68S1.76,73.32.12,72.34a.22.22,0,0,1,0-.39C1.76,71,9.58,66.58,9.62,66.6Z"/><path class="cls-1" d="M25.92,72.06l3.29,3.48h0c.84-.63,5.68-3.48,5.68-3.48h0s-4.84-2.71-5.68-3.34h0Z"/><path class="cls-1" d="M14.73,99.11a1.33,1.33,0,0,1-.53,1.07,2.85,2.85,0,0,1-1.78.55,4.71,4.71,0,0,1-2.71-.92A5.9,5.9,0,0,1,7.6,97a7.12,7.12,0,0,1-.44-2.2A8.42,8.42,0,0,1,7.5,92,10.29,10.29,0,0,1,8.76,89.3a11.45,11.45,0,0,1,1.93-2.2,12.25,12.25,0,0,1,2.16-1.48c.36-.18.7-.35,1-.48a9.48,9.48,0,0,1,.92-.33l.78-.21a6,6,0,0,1,.61-.09c.35,0,.55,0,.59.08s-.09.24-.31.48-.57.59-.93,1l-.58.66c-.2.23-.41.49-.62.75a14.18,14.18,0,0,0-1.11,1.76,9.21,9.21,0,0,0-.7,1.91,6.84,6.84,0,0,0-.2,1.78,5.27,5.27,0,0,0,.2,1.34c0,.09.06.17.08.25s.05.15.08.22a1.34,1.34,0,0,1,.07.18,1.16,1.16,0,0,0,.06.15c.15.38.26.69.38,1a6.6,6.6,0,0,0,.48,1C14.08,97.66,14.72,98.33,14.73,99.11Z"/><path class="cls-1" d="M18.92,115a.75.75,0,0,1,.63.17,1.53,1.53,0,0,1,.49.89,2.66,2.66,0,0,1-.19,1.55A3.24,3.24,0,0,1,18.6,119a3.55,3.55,0,0,1-1.12.48,4.76,4.76,0,0,1-1.53.13,5.56,5.56,0,0,1-1.6-.37,6.1,6.1,0,0,1-1.4-.78,7.53,7.53,0,0,1-1-1c-.14-.17-.26-.34-.37-.5s-.2-.31-.28-.45-.14-.28-.19-.4a2.13,2.13,0,0,1-.12-.31c-.05-.18-.06-.29,0-.32s.14,0,.3.11l.61.38.42.25.47.24a8.31,8.31,0,0,0,1.06.4,5.41,5.41,0,0,0,1.1.16,4.1,4.1,0,0,0,1-.09,2.79,2.79,0,0,0,.7-.26l.12-.07.11-.06a.24.24,0,0,1,.09-.06l.07,0,.49-.32a4.19,4.19,0,0,0,.46-.36C18.21,115.51,18.5,115.09,18.92,115Z"/><path class="cls-1" d="M15.29,77.43c-4.8,1.09-9.53,5.12-12.17,9.62s-3,10.2-2.6,15.31c.51,6,1.93,11.8,2.9,17.69.91,5.59,1.46,11.55-.55,17.12-.23.62-.15,1.32.27,1.5.26.43,1,.43,1.51.08,4.18-2.69,6.36-8.09,6.91-13.06.57-5.13-2.46-9.31-5.21-13.06,2.23.65,4.53.91,6.73-.42,1-.58,3.16-2.81-.43-2.09-3.77.75-6.56-3.59-8.17-7-1.92-4-1.47-9.12-.28-13.46a1.45,1.45,0,0,0,0-.35c.19-.4.38-.8.6-1.19a17,17,0,0,1,19.24-8.34c5.56,1.32,12.52,5.18,13.45,12A10,10,0,0,1,34.61,100a6,6,0,0,1-1.8,1.15c-1.54.73-4,.1-5.51-1,1.73-1.78,2.42-5,2.36-7.48-.09-3.38-2.49-6.69-5.34-6.22a12.68,12.68,0,0,0-2,.8c-4.93,2.44-3.75,12.07,1.39,16,5.73,4.35,12.39.31,15.08-6.35,2.55-6.3-1.27-12.06-5.7-15.33A22.56,22.56,0,0,0,15.29,77.43ZM26.2,90.59s0,0,0-.08a.78.78,0,0,1,.05.14Z"/><path class="cls-1" d="M14.71,45.38a1.36,1.36,0,0,0-.53-1.07,2.86,2.86,0,0,0-1.79-.55,4.78,4.78,0,0,0-2.7.92,5.92,5.92,0,0,0-2.11,2.78,7.06,7.06,0,0,0-.44,2.2,8.6,8.6,0,0,0,.34,2.79,9.75,9.75,0,0,0,1.27,2.74,11.51,11.51,0,0,0,1.93,2.21,12.17,12.17,0,0,0,2.16,1.47q.54.29,1,.48c.34.13.64.25.93.33l.78.2a3.1,3.1,0,0,0,.61.09c.35,0,.55,0,.59-.07s-.09-.24-.31-.48l-.93-1c-.19-.19-.38-.42-.59-.65s-.4-.49-.61-.75a12.5,12.5,0,0,1-1.11-1.76,9.25,9.25,0,0,1-.71-1.91,7.24,7.24,0,0,1-.2-1.78,4.83,4.83,0,0,1,.21-1.34,1.82,1.82,0,0,1,.07-.25c0-.08.05-.15.08-.22a1.34,1.34,0,0,0,.07-.18,1.56,1.56,0,0,0,.06-.15c.15-.38.26-.69.38-1a6.6,6.6,0,0,1,.48-1C14.05,46.83,14.69,46.16,14.71,45.38Z"/><path class="cls-1" d="M18.88,29.49a.73.73,0,0,0,.63-.16,1.55,1.55,0,0,0,.49-.89,2.57,2.57,0,0,0-.19-1.55,3.32,3.32,0,0,0-1.25-1.44A3.81,3.81,0,0,0,17.44,25a4.49,4.49,0,0,0-1.53-.13,5.56,5.56,0,0,0-1.6.37,5.77,5.77,0,0,0-1.4.79,6.94,6.94,0,0,0-1,1c-.13.17-.26.34-.37.5s-.2.31-.27.45-.14.28-.2.4-.09.23-.12.32-.06.29,0,.32.14,0,.29-.11l.62-.39.41-.24.47-.25a8.92,8.92,0,0,1,1.06-.4,5.41,5.41,0,0,1,1.11-.16,3.6,3.6,0,0,1,1,.09,2.79,2.79,0,0,1,.7.26l.12.07.11.06.09.06.08.05.48.31a2.89,2.89,0,0,1,.46.36C18.18,29,18.46,29.4,18.88,29.49Z"/><path class="cls-1" d="M33.12,63c4.43-3.28,8.25-9,5.69-15.34C36.11,41,29.45,36.94,23.72,41.3c-5.13,3.9-6.31,13.52-1.38,16a14.16,14.16,0,0,0,2,.79c2.85.47,5.25-2.85,5.33-6.22.06-2.54-.63-5.7-2.37-7.48,1.57-1.14,4-1.78,5.51-1a6.07,6.07,0,0,1,1.81,1.15,10,10,0,0,1,2.92,8.22c-.92,6.78-7.88,10.64-13.44,12A17,17,0,0,1,4.83,56.33c-.22-.4-.42-.79-.6-1.19a1.1,1.1,0,0,0-.05-.35C3,50.45,2.53,45.32,4.45,41.32c1.61-3.35,4.4-7.69,8.16-6.94,3.6.71,1.39-1.52.43-2.1-2.2-1.33-4.5-1.06-6.72-.41,2.74-3.75,5.77-7.94,5.19-13.07-.55-5-2.74-10.36-6.91-13C4,5.4,3.34,5.4,3.09,5.83c-.42.18-.5.88-.28,1.5,2,5.56,1.48,11.53.57,17.12C2.41,30.34,1,36.14.49,42.14.06,47.25.4,52.87,3.1,57.45s7.39,8.52,12.18,9.6A22.52,22.52,0,0,0,33.12,63Zm-6.86-9.14L26.2,54a.22.22,0,0,0,0-.08Z"/></g></g></svg>