<svg xmlns="http://www.w3.org/2000/svg" viewBox="0 0 417.72 86.97"><defs><style>.cls-1{fill:rgba(68,60,42,100);}</style></defs><g id="Capa_2" data-name="Capa 2"><g id="object"><path class="cls-1" d="M373.31,70.47l-.83.26c-.28.09-.62.16-1,.27l-.67.13-.76.14a39,39,0,0,1-9.25.1,88.39,88.39,0,0,1-13.5-2.46c-2.5-.65-5.1-1.41-7.76-2.28-1.34-.44-2.69-.91-4.05-1.42s-2.73-1-4.1-1.61c-2.74-1.12-5.37-2.26-7.93-3.28s-5-1.92-7.42-2.67A56.24,56.24,0,0,0,303,55.09c-.94-.05-1.84-.05-2.69,0s-1.65.11-2.4.22a15.61,15.61,0,0,0-3.71,1A12.37,12.37,0,0,0,292,57.49l-.51.39-.18.14.15-.16c.11-.1.25-.27.46-.47a12,12,0,0,1,2-1.5,15.82,15.82,0,0,1,3.73-1.51,22.9,22.9,0,0,1,2.47-.5c.89-.12,1.83-.21,2.82-.25a50,50,0,0,1,13.71,1.63,76.83,76.83,0,0,1,7.78,2.44c2.64,1,5.31,2.08,8,3.19,1.36.55,2.69,1.1,4,1.61s2.64,1,3.94,1.47c2.59.94,5.11,1.79,7.53,2.56a114.36,114.36,0,0,0,13,3.38,43.62,43.62,0,0,0,9,.9c.27,0,.52,0,.76,0s.46,0,.67,0c.41,0,.76-.07,1-.12Z"/><path class="cls-1" d="M385.25,54a1.14,1.14,0,0,1,.93-.52,3,3,0,0,1,.79,0,7.58,7.58,0,0,1,1,.24,9,9,0,0,1,1.09.53,6.83,6.83,0,0,1,1.16.88,6.72,6.72,0,0,1,1.89,3,7.06,7.06,0,0,1,.27,2.54,8.35,8.35,0,0,1-.89,3.06A12.65,12.65,0,0,1,387,68.43a16.82,16.82,0,0,1-2.56,1.36,14.8,14.8,0,0,1-2.27.74c-1.34.31-2.21.28-2.24.15s.71-.53,1.75-1.25c.52-.37,1.12-.81,1.73-1.33a21.5,21.5,0,0,0,1.8-1.78,14.63,14.63,0,0,0,1.51-2.08,8.61,8.61,0,0,0,.89-2.08,4.76,4.76,0,0,0,.16-1.64,5.77,5.77,0,0,0-.22-1,7.43,7.43,0,0,0-.7-1.57c-.13-.27-.32-.53-.46-.79s-.33-.51-.47-.76a5.76,5.76,0,0,1-.41-.7,3.89,3.89,0,0,1-.29-.64A1.34,1.34,0,0,1,385.25,54Z"/><path class="cls-1" d="M399.37,69.36a2.15,2.15,0,0,1-.51.81,4,4,0,0,1-.75.6,4.76,4.76,0,0,1-1.84.66c-.34,0-.94,0-1.67.13a13.17,13.17,0,0,0-2.45.5l-.62.2-.59.22c-.36.16-.72.3-1,.45s-.55.26-.74.33-.34.1-.4.06,0-.17,0-.38a3.72,3.72,0,0,1,.27-.83,8.56,8.56,0,0,1,.61-1.12c.13-.2.28-.4.43-.61s.33-.4.51-.61a10.4,10.4,0,0,1,2.6-2.08,7,7,0,0,1,2.46-.91,4,4,0,0,1,3,.71,2.11,2.11,0,0,1,.69.92A1.47,1.47,0,0,1,399.37,69.36Z"/><path class="cls-1" d="M417.69,61.83c0-.38-.07-.75-.11-1.12s-.07-.74-.13-1.11a19.63,19.63,0,0,0-3.2-8,20.55,20.55,0,0,0-5.83-5.41,25.36,25.36,0,0,0-6.63-2.84,33,33,0,0,0-6.38-1.1,38.86,38.86,0,0,0-5.74.06l-1.31.13-1.26.18c-.41.05-.81.13-1.2.21s-.77.14-1.15.23l-1.08.26-.53.13-.5.15-1,.29c-.31.09-.61.21-.91.31a31.2,31.2,0,0,0-5.23,2.34c-.29.15-.53.31-.75.44s-.38.24-.53.32l-.43.27.45-.23.56-.29c.22-.11.47-.25.77-.37a33.52,33.52,0,0,1,5.33-1.94c.3-.07.6-.17.92-.24l1-.21.5-.12.53-.09,1.07-.19c.37-.06.75-.1,1.14-.15s.77-.1,1.18-.13l1.23-.1,1.27,0a37.88,37.88,0,0,1,5.53.27,31.55,31.55,0,0,1,6,1.36,24,24,0,0,1,6,2.92,18.3,18.3,0,0,1,4.94,5,17.16,17.16,0,0,1,2.48,7c.05.32.06.64.08,1s.07.65.07,1a15.59,15.59,0,0,1-.09,1.93,14,14,0,0,1-.31,1.92c-.08.32-.18.63-.27,1a7.77,7.77,0,0,1-.33.92,17.61,17.61,0,0,1-.84,1.82c-.18.28-.35.57-.53.86l-.13.22-.15.21-.3.42A19,19,0,0,1,409,74.3a30.33,30.33,0,0,1-7.42,4.8,44.73,44.73,0,0,1-8.82,3,45.72,45.72,0,0,1-4.7.84,42.86,42.86,0,0,1-4.81.34c-.4,0-.8,0-1.2,0l-1.19,0-1.18-.09L378.5,83c-1.62-.21-3.24-.38-4.84-.68l-2.38-.39c-.79-.15-1.57-.33-2.36-.48s-1.56-.31-2.33-.49l-2.3-.56c-6.11-1.49-11.93-3.35-17.44-5.25s-10.72-3.85-15.63-5.61-9.51-3.35-13.76-4.68c-2.13-.64-4.15-1.27-6.08-1.81s-3.78-1-5.53-1.34a33.52,33.52,0,0,0-9.08-.78,16.84,16.84,0,0,0-3.29.54,10.43,10.43,0,0,0-1,.33l-.3.07-.39.11-.39.12-.38.13c-.26.09-.5.2-.74.3a10.85,10.85,0,0,0-1.4.72,12.53,12.53,0,0,0-1.25.86,11.79,11.79,0,0,0-1.11,1,9.9,9.9,0,0,0-2.62,4.71,8.92,8.92,0,0,0-.19,2.38,9.39,9.39,0,0,0,1.1,3.84c.07.14.15.28.23.42a.82.82,0,0,0,.12.2l.13.21a3.48,3.48,0,0,0,.28.39l.14.2.15.18A9.2,9.2,0,0,0,287.21,79a11.3,11.3,0,0,0,1.48,1,14.19,14.19,0,0,0,3.21,1.36,16.23,16.23,0,0,0,1.65.36c.28.05.55.07.82.1l.42,0,.41,0h1.21l.4,0,.4,0,.2,0,.19,0,.39-.08.39-.09.38-.1.37-.12c.24-.09.49-.17.72-.28a9,9,0,0,0,1.33-.73l.3-.22.15-.11.14-.12.28-.24.26-.26.13-.13.12-.14.23-.27.21-.29.1-.15.09-.15.18-.3a3,3,0,0,1,.16-.31l.07-.16.06-.16c0-.11.09-.21.13-.32l.09-.32a.75.75,0,0,0,.05-.16l0-.16L304,76l.05-.32a1,1,0,0,1,0-.16v-.16c0-.1,0-.21,0-.31v-.46c0-.06,0-.11,0-.16l0-.3a2.93,2.93,0,0,0-.05-.29,5.25,5.25,0,0,0-.13-.57,5.75,5.75,0,0,0-.95-1.92,5.38,5.38,0,0,0-1.36-1.27,4.94,4.94,0,0,0-1.4-.64l-.16,0-.17,0-.3-.06-.57-.06h-.64a2.12,2.12,0,1,0,1.33,3,2.11,2.11,0,0,0-.4-2.4l.16,0,.26.1.14,0,.14.06a4.72,4.72,0,0,1,2.23,1.83,5.06,5.06,0,0,1,.69,1.66c0,.15.06.31.08.47l0,.25a2.18,2.18,0,0,0,0,.25V75l0,.25v.13s0,.09,0,.13,0,.17-.05.26l-.07.26,0,.13a.61.61,0,0,1-.05.12l-.09.26a2.72,2.72,0,0,1-.11.25l-.05.13-.07.12-.13.25-.16.23-.07.12-.09.11-.18.23-.19.22a.52.52,0,0,0-.1.11l-.11.1-.22.2-.23.19-.12.09-.13.09-.25.17a8.82,8.82,0,0,1-5.18,1.19l-.36,0-.37,0c-.24,0-.48-.06-.73-.11a10.69,10.69,0,0,1-1.46-.35,12.64,12.64,0,0,1-2.83-1.23,10.57,10.57,0,0,1-1.28-.91,7.7,7.7,0,0,1-1.11-1.1l-.13-.15-.11-.16a3.05,3.05,0,0,1-.22-.32l-.11-.16-.1-.17-.19-.36a8.8,8.8,0,0,1-.61-1.49,7.92,7.92,0,0,1-.31-1.69,7.22,7.22,0,0,1,.15-1.94,8,8,0,0,1,.76-2,5.14,5.14,0,0,1,.29-.51c.1-.16.22-.32.33-.49a10.58,10.58,0,0,1,1.74-1.81,11.07,11.07,0,0,1,1.09-.76,11.62,11.62,0,0,1,1.21-.65,6.29,6.29,0,0,1,.65-.26l.33-.13.34-.1.35-.1a3.58,3.58,0,0,1,.35-.09l.74-.16L294,63l.38-.06.38-.07.38-.06.77-.09.78,0c.26,0,.52,0,.79,0h.39l.4,0,.4,0c.13,0,.27,0,.4,0l.8.09c.64.07,1.29.09,1.93.18s1.13.17,1.7.21q1.51.11,3,.3l2.29.3h0c.69.22,1.4.45,2.13.7,1.88.63,3.85,1.37,5.93,2.11,4.14,1.54,8.63,3.33,13.45,5.29s10,4.09,15.47,6.18a174.45,174.45,0,0,0,17.63,5.74l2.36.61c.79.19,1.59.35,2.4.54s1.61.36,2.42.52l2.46.43c1.65.32,3.33.51,5,.74l1.27.16,1.33.11L382,87c.44,0,.89,0,1.33,0a48.14,48.14,0,0,0,19.82-4.71,32.85,32.85,0,0,0,8.16-5.52,22,22,0,0,0,3.18-3.7l.34-.5.17-.25.16-.27.59-1a16.65,16.65,0,0,0,.95-2.22,8.92,8.92,0,0,0,.37-1.14c.1-.38.21-.76.29-1.15a16.91,16.91,0,0,0,.31-2.33A17.67,17.67,0,0,0,417.69,61.83Z"/><path class="cls-1" d="M212.33,66.81l-3,6.44v0c1.24,1.67,3.08,10.13,3.08,10.13a0,0,0,0,0,.09,0c.36-1.77,1.79-8.69,2.87-10.14l0,0Z"/><path class="cls-1" d="M235.39,21a1.72,1.72,0,0,0,1-1.21,3.7,3.7,0,0,0-.32-2.41,6.21,6.21,0,0,0-2.56-2.69,7.82,7.82,0,0,0-4.43-1,9.41,9.41,0,0,0-2.84.68,11.3,11.3,0,0,0-3.12,1.93,13.11,13.11,0,0,0-2.55,3A14.5,14.5,0,0,0,219,22.74a16.07,16.07,0,0,0-.57,3.36c0,.52,0,1,0,1.47s.06.89.11,1.27.13.73.19,1,.16.56.23.77c.15.42.28.65.4.65s.24-.23.41-.63.39-1,.63-1.62c.13-.33.3-.68.45-1.05s.36-.74.56-1.13a16,16,0,0,1,1.47-2.27,11.53,11.53,0,0,1,1.88-1.88,8.66,8.66,0,0,1,2-1.2,6.32,6.32,0,0,1,1.7-.49c.12,0,.24,0,.34-.05a1.62,1.62,0,0,1,.3,0l.25,0a1.61,1.61,0,0,0,.22,0l1.37-.09a7.35,7.35,0,0,1,1.39,0C233.31,21,234.45,21.37,235.39,21Z"/><path class="cls-1" d="M219.61,12.53c-2.82,6.4-3.58,15.39-3.67,16.58a.12.12,0,0,1-.1.13l-2.75,3.12a.93.93,0,0,1-1.38,0L209,29.24a.12.12,0,0,1-.1-.13,59,59,0,0,0-3.67-16.58c0-.06,5.67-10.24,6.95-12.37a.29.29,0,0,1,.52,0C213.94,2.29,219.64,12.47,219.61,12.53Z"/><path class="cls-1" d="M189.05,21a1.72,1.72,0,0,1-1-1.21,3.7,3.7,0,0,1,.32-2.41A6.15,6.15,0,0,1,191,14.65a7.8,7.8,0,0,1,4.43-1,9.48,9.48,0,0,1,2.84.68,11.45,11.45,0,0,1,3.12,1.93,12.83,12.83,0,0,1,2.54,3,14.16,14.16,0,0,1,1.56,3.48A16.07,16.07,0,0,1,206,26.1c0,.52,0,1,0,1.47s-.06.89-.12,1.27-.12.73-.18,1-.16.56-.23.77c-.15.42-.29.65-.4.65s-.24-.23-.41-.63-.39-1-.63-1.62c-.13-.33-.3-.68-.45-1.05s-.36-.74-.56-1.13a16.87,16.87,0,0,0-1.47-2.27,11.53,11.53,0,0,0-1.88-1.88,8.5,8.5,0,0,0-2-1.2A6.13,6.13,0,0,0,196,21c-.12,0-.23,0-.33-.05a1.62,1.62,0,0,0-.3,0l-.26,0a1.47,1.47,0,0,1-.21,0l-1.38-.09a7.38,7.38,0,0,0-1.39,0C191.13,21,190,21.37,189.05,21Z"/><path class="cls-1" d="M212.4,33.49l-3.52,3.34h0c.63.85,3.52,5.75,3.52,5.75h0s2.75-4.9,3.38-5.75h0Z"/><path class="cls-1" d="M197.59,29.57l.71.19,2.63.75,2,.55,1.46.35v0l-1.4-.53-1.13-.45-.21-.16-.24-.18.29.06a9.26,9.26,0,0,1,2.74,1.15l0-.08a2,2,0,0,1,.2-.41,10.27,10.27,0,0,0-2.81-1.27,17.05,17.05,0,0,0-1.81-.4,29.1,29.1,0,0,0-3.55-1.93l-.69-.32-.74-.3c-.5-.22-1-.4-1.59-.61-1.11-.38-2.3-.75-3.59-1.06a31.12,31.12,0,0,0-4.09-.69,20.27,20.27,0,0,0-2.22-.1l-1.12,0-1.14.07a46.83,46.83,0,0,0-11,2.42,75.93,75.93,0,0,0-7.29,3c-.88.31-2,.67-3.2,1.16l-4.14,1.7q-2.24,1.05-4.79,2.3c-1.66.9-3.42,1.83-5.19,2.87-1.3.77-2.57,1.54-3.78,2.29a39.46,39.46,0,0,0-3.39,2.41l-2.92,2.31c-.91.72-1.78,1.36-2.58,1.93a22.37,22.37,0,0,1-4,2.28l-.68.27-.51.16-.42.14.43-.08.53-.09.72-.18a20,20,0,0,0,4.32-1.89c.87-.5,1.8-1.07,2.77-1.73s2-1.38,3-2.12,2.19-1.52,3.39-2.22,2.49-1.45,3.78-2.22l5.11-2.94c1.65-.89,3.2-1.74,4.63-2.53s2.78-1.4,4-2,2.21-1.07,3.05-1.48c1.77-.59,4.34-1.43,7.47-2.28a62.28,62.28,0,0,1,10.82-2c.36,0,.73-.06,1.09-.07l1.08,0c.71,0,1.4,0,2.09.05a34.77,34.77,0,0,1,4,.51c1.26.23,2.44.52,3.55.81.55.16,1.09.3,1.59.47l.75.24.7.25c1.06.37,2,.74,2.76,1.1-.37-.05-.74-.09-1.13-.11a28.13,28.13,0,0,0-6.36-1.58c-.34-.05-.68-.06-1-.09l-1.06-.08c-.71,0-1.44-.05-2.18,0a34.47,34.47,0,0,0-4.57.41,56.31,56.31,0,0,0-11.18,3.09c-1.59.59-3,1.18-4.28,1.69-.63.27-1.22.5-1.76.74l-1.46.66-1.53.51-1.78.69c-1.28.47-2.69,1.11-4.24,1.79-3.08,1.42-6.6,3.25-10.3,5.28-2.73,1.5-5.31,2.91-7.69,4.09a54.14,54.14,0,0,1-6.58,2.57c-1,.29-1.83.6-2.61.77a9.69,9.69,0,0,0-2,.62,3.15,3.15,0,0,0-.45.27l-.66.06-1.51.09-.75.05-.75,0c-.5,0-1,0-1.49,0a43,43,0,0,1-5.82-.27l-.7-.09c-.24,0-.47-.06-.7-.11l-1.39-.25-1.36-.33c-.22,0-.44-.12-.66-.19l-.66-.2-.66-.21-.64-.24c-.43-.16-.86-.31-1.27-.51s-.83-.35-1.23-.55l-1.2-.61c-.2-.09-.4-.21-.59-.32l-.58-.33-.58-.33-.56-.35L102,44.93l-.52-.36c-.17-.12-.34-.24-.5-.37l-.49-.38-.47-.4c-.32-.27-.61-.56-.9-.84a16.79,16.79,0,0,1-1.6-1.79,20,20,0,0,1-1.33-1.92,18.09,18.09,0,0,1-1-2,16.2,16.2,0,0,1-.75-2c-.08-.34-.18-.68-.25-1s-.15-.68-.19-1A14.17,14.17,0,0,1,93.88,29a12.54,12.54,0,0,1,.88-3.32A14.41,14.41,0,0,1,96.24,23a15.7,15.7,0,0,1,1.85-2.13l.53-.47a1.86,1.86,0,0,1,.26-.23l.26-.21c.17-.14.36-.27.55-.4l.27-.19.29-.18A13.72,13.72,0,0,1,102.69,18a18.87,18.87,0,0,1,2.61-.75,21.2,21.2,0,0,1,5.31-.38,21.65,21.65,0,0,1,2.58.29c.43.07.84.17,1.26.26.2,0,.4.1.61.16s.4.1.6.17a15.12,15.12,0,0,1,7.73,5l.31.45.16.22.14.23.27.45c.08.16.16.31.23.47l.12.23a2.44,2.44,0,0,1,.1.24c.07.16.13.32.2.47l.15.49.08.24a2,2,0,0,1,0,.24l.12.49c0,.16.05.33.07.49l0,.24,0,.25,0,.48v.72l0,.24,0,.47c0,.15,0,.3-.08.46l0,.22-.06.23c0,.15-.07.29-.1.44s-.09.29-.14.43l-.06.21a1.8,1.8,0,0,0-.08.21l-.17.41c0,.13-.12.26-.18.39s-.27.5-.41.75A8.78,8.78,0,0,1,122,36a8.37,8.37,0,0,1-2.4,1.31,8.21,8.21,0,0,1-2.28.43h-1l-.27,0a3.77,3.77,0,0,0,2-3.76,3.68,3.68,0,0,0-4-3.34,3.76,3.76,0,0,0,.14,7.47l.25.12.79.28c.29.09.61.16,1,.24l.54.08.28,0,.29,0a8.37,8.37,0,0,0,2.66-.23,9.43,9.43,0,0,0,2.93-1.31,10.09,10.09,0,0,0,2.66-2.64,8.47,8.47,0,0,0,.54-.87c.08-.15.17-.3.25-.46s.15-.32.22-.48a1.89,1.89,0,0,0,.11-.25l.1-.25c.06-.17.13-.34.19-.52l.15-.53.08-.27.06-.28.11-.56c0-.19,0-.38.08-.57l0-.29c0-.1,0-.2,0-.29l0-.6c0-.2,0-.4,0-.6v-.3l0-.3c0-.21,0-.41-.07-.62s-.07-.4-.11-.61l-.06-.3-.09-.3c0-.21-.11-.41-.17-.61s-.14-.4-.22-.6-.07-.2-.11-.3l-.13-.29-.27-.59-.32-.57-.16-.28-.18-.28-.36-.54a15,15,0,0,0-1.74-2c-.32-.32-.67-.6-1-.9-.17-.14-.36-.27-.54-.41s-.36-.28-.55-.4l-.57-.38-.59-.35-.3-.18-.31-.16-.61-.31-.64-.29-.32-.15-.32-.12-.66-.26-.67-.23c-.22-.08-.45-.14-.67-.21l-.69-.19c-.46-.11-.93-.23-1.4-.31a22.83,22.83,0,0,0-2.89-.38,23.46,23.46,0,0,0-6,.36,20.91,20.91,0,0,0-3,.84,16.27,16.27,0,0,0-2.92,1.4l-.36.21-.34.24a7.9,7.9,0,0,0-.68.5l-.33.26c-.12.09-.22.18-.32.27l-.61.55A18,18,0,0,0,94,21.3a16.1,16.1,0,0,0-1.8,3.22,15.08,15.08,0,0,0-1.06,4.08A17.84,17.84,0,0,0,92.64,38a20.46,20.46,0,0,0,1.22,2.31,21.63,21.63,0,0,0,1.54,2.19,22,22,0,0,0,1.85,2c.34.32.67.64,1,.94l.54.45.57.43c.18.14.38.28.58.41l.59.4,1.18.73.6.37.62.34.62.35c.21.11.42.23.64.33l1.3.64c.43.21.89.39,1.34.58s.91.36,1.38.53l.7.25.71.22.72.21c.24.07.48.14.73.19l1.48.34,1.49.25c.25,0,.51.07.76.1l.76.09a46.2,46.2,0,0,0,6.12.19c.52,0,1-.05,1.54-.07l.78,0,.77-.06,1.54-.12,1.54-.16,1.54-.17,1.55-.19,1.56-.23.78-.12.78-.14,1.55-.3c.52-.11,1-.24,1.54-.36,1-.22,2-.52,3.07-.79.51-.14,1-.31,1.52-.46s1-.3,1.51-.47c1-.34,2-.67,3-1,2-.71,3.92-1.5,5.85-2.3s3.81-1.64,5.68-2.49l5.54-2.54,5.42-2.46c3.57-1.63,7-3.25,10.36-4.62,1.67-.7,3.33-1.32,5-1.87s3.24-1,4.81-1.39A33.4,33.4,0,0,1,197.59,29.57Zm3.49.4.55.31.07,0-.62-.25-.51-.2Zm-12.4-.43c-1.61.35-3.27.77-4.93,1.3s-3.36,1.11-5.07,1.78c-3.42,1.31-6.9,2.87-10.49,4.41-1.8.77-3.63,1.55-5.47,2.36l-5.58,2.42c-1.88.81-3.78,1.59-5.69,2.36s-3.85,1.5-5.8,2.16c-1,.35-2,.66-3,1-.49.16-1,.29-1.48.44s-1,.29-1.49.41c-1,.25-2,.53-3,.73-.5.1-1,.22-1.5.31l-1.51.27-.75.13-.75.1-1.51.19-1.53.16c-.5.06-1,.11-1.52.15l-.35,0,0,0a9.89,9.89,0,0,1,2-.38c.81-.09,1.71-.32,2.71-.52a42.23,42.23,0,0,0,6.87-2.15c2.51-1.08,5.16-2.43,7.88-3.93,3.71-2,7.13-4,10.09-5.6,1.49-.78,2.84-1.53,4.07-2.11l1.69-.85,1.46-.66,1.51-.5,1.82-.56c1.29-.4,2.76-.87,4.37-1.35a81.88,81.88,0,0,1,11.07-2.67,43.09,43.09,0,0,1,4.41-.45c.71-.06,1.41,0,2.1-.06.35,0,.69,0,1,0s.67,0,1,0a26.65,26.65,0,0,1,2.79.33A39.63,39.63,0,0,0,188.68,29.54Z"/><path class="cls-1" d="M171.85,25.91l-.95.31-.85.25-.85.24c-.58.14-1.14.29-1.72.41-.29.06-.57.13-.86.18l-.86.15-.43.08-.44,0-.86.12-.87.09-.88.08-.2,0h0a4.84,4.84,0,0,1,.94-.19c-.33,0-.66.06-1,.07l-.26.15-.37,0-.87.05-.43,0h-.43l-.85,0a24.36,24.36,0,0,1-3.33-.16l-.41-.05c-.13,0-.27,0-.4-.06l-.8-.15-.77-.18-.39-.11-.37-.12c-.13,0-.26-.07-.38-.12l-.37-.14a6.37,6.37,0,0,1-.72-.29l-.71-.31L149.5,26l-.34-.19-.33-.19-.33-.18-.32-.21-.64-.4-.29-.21a3.06,3.06,0,0,1-.29-.21l-.28-.22a3,3,0,0,1-.27-.23c-.19-.15-.35-.32-.52-.48a9.72,9.72,0,0,1-.91-1,10.08,10.08,0,0,1-1.35-2.25,9.08,9.08,0,0,1-.43-1.16c0-.2-.11-.39-.15-.59s-.08-.38-.1-.57a8.14,8.14,0,0,1,0-2.2,6.88,6.88,0,0,1,.5-1.9,7.82,7.82,0,0,1,.85-1.52,9.46,9.46,0,0,1,1.06-1.22l.3-.27.15-.13.15-.12.32-.23.15-.11.17-.1a7.87,7.87,0,0,1,1.4-.68A11.46,11.46,0,0,1,149.46,9a12.62,12.62,0,0,1,3-.22A12.19,12.19,0,0,1,154,9c.24,0,.48.1.71.15a3.58,3.58,0,0,1,.35.09l.35.1a8.71,8.71,0,0,1,4.43,2.89l.18.25.09.13.08.13.15.26.14.27.07.13.05.14.11.27c0,.09.06.19.09.28l.05.14,0,.14.06.28,0,.28,0,.14v.13l0,.28v.41l0,.14a2.45,2.45,0,0,1,0,.27l0,.26s0,.09,0,.13l0,.13-.06.26-.08.24,0,.12s0,.08,0,.12l-.1.24-.1.22c-.07.15-.16.29-.24.43a5,5,0,0,1-1.19,1.34,4.77,4.77,0,0,1-1.37.75,4.71,4.71,0,0,1-1.31.25h-.58l-.15,0a2.17,2.17,0,0,0,1.17-2.16,2.11,2.11,0,0,0-2.3-1.91A2.14,2.14,0,0,0,152.64,19a2.12,2.12,0,0,0,2,1.91.61.61,0,0,0,.14.07l.45.16.54.14.31.05.17,0h.16a4.79,4.79,0,0,0,1.52-.13,5.56,5.56,0,0,0,1.69-.75A5.78,5.78,0,0,0,161.09,19a5,5,0,0,0,.31-.49c0-.09.1-.18.14-.27s.09-.18.13-.27l.06-.14.06-.15c0-.1.07-.2.11-.29l.09-.31,0-.16,0-.15c0-.11.05-.22.07-.32s0-.22,0-.33l0-.17a1,1,0,0,0,0-.17c0-.11,0-.22,0-.34v-.69c0-.12,0-.23,0-.35l-.07-.35a1.16,1.16,0,0,0,0-.18l0-.17a3.57,3.57,0,0,1-.1-.35c0-.11-.08-.23-.13-.34l-.06-.17-.08-.17-.15-.34L161.3,12l-.1-.17-.1-.15-.21-.31a7.71,7.71,0,0,0-1-1.15,7.17,7.17,0,0,0-.58-.52L159,9.45a3.62,3.62,0,0,0-.32-.22,3.62,3.62,0,0,0-.32-.22l-.34-.2-.17-.1-.18-.1-.35-.18L157,8.27l-.19-.09-.18-.07L156.22,8l-.38-.13-.39-.12-.39-.11c-.27-.06-.53-.13-.81-.17a13.23,13.23,0,0,0-5.09,0,10.87,10.87,0,0,0-1.73.48,8.88,8.88,0,0,0-1.68.8l-.2.12-.2.14-.39.28-.19.15-.18.16-.35.31A11.77,11.77,0,0,0,143,11.31a10.13,10.13,0,0,0-1,1.85,9.22,9.22,0,0,0-.61,2.34,10.21,10.21,0,0,0,.88,5.39,12.08,12.08,0,0,0,.7,1.33,11.76,11.76,0,0,0,.88,1.25,12.87,12.87,0,0,0,1.06,1.17c.19.18.38.36.59.53l.31.26a3.92,3.92,0,0,1,.32.25,4,4,0,0,0,.34.23l.33.23.68.42c.12.07.23.15.35.21l.35.2.36.2.36.19.75.36.77.34c.25.11.52.2.79.3l.4.14.41.13.41.12.42.11.84.19.86.15a3.15,3.15,0,0,0,.43.05l.44.05a27.33,27.33,0,0,0,3.51.12l.88-.05.44,0,.45,0,.88-.07.88-.09.89-.1.88-.11.9-.13.44-.07.45-.08.89-.17.88-.21c.6-.13,1.18-.3,1.76-.45l.87-.26.87-.28c.57-.19,1.14-.38,1.71-.59.39-.14.78-.3,1.17-.45l.09-.74C173.42,25.67,172.63,25.8,171.85,25.91Z"/><path class="cls-1" d="M208.55,39.86c-2.85-4.09-8.43-7-13.65-7.78s-10.74,1-15.37,3.38c-5.44,2.77-10.34,6.3-15.51,9.45-4.9,3-10.29,5.76-16.28,6-.67,0-1.29.36-1.3.83-.32.4-.05,1.06.49,1.44,4.12,2.9,10,2.9,14.89,1.53,5-1.42,7.81-5.86,10.29-9.85.23,2.33.86,4.59,2.94,6.15.91.68,3.85,1.9,1.81-1.2s.87-7.52,3.41-10.31c3-3.32,8-4.84,12.54-5.38a1.13,1.13,0,0,0,.34-.09c.45,0,.9.06,1.35.11A17.23,17.23,0,0,1,209.63,49c.88,5.73-.1,13.73-6.11,17.18a10.54,10.54,0,0,1-8.83.39,7.41,7.41,0,0,1-1.79-1.45c-1.23-1.21-1.56-3.48-1.09-5.39,2.33,1,5.56.4,7.92-.62,3.14-1.36,5.34-4.88,3.81-7.37a1.73,1.73,0,0,0-.25-.51,1.2,1.2,0,0,0-.65-.77c-6.68-3.27-13.35.81-15.06,7.11-1.91,7,4.41,11.75,11.69,11.75,6.89,0,10.84-5.77,12.23-11.18A22.85,22.85,0,0,0,208.55,39.86Zm-8.2,15.25.07,0-.11.11Z"/><path class="cls-1" d="M235.57,30.49c1.58.38,3.18.83,4.81,1.39s3.29,1.17,5,1.87c3.35,1.37,6.79,3,10.36,4.62l5.42,2.46,5.54,2.54c1.87.85,3.77,1.67,5.68,2.49s3.87,1.59,5.85,2.3c1,.37,2,.7,3,1,.5.17,1,.31,1.51.47s1,.32,1.52.46c1,.27,2,.57,3.07.79.51.12,1,.25,1.54.36l1.56.3.77.14.78.12,1.57.23,1.54.19,1.54.17,1.54.16,1.55.12.77.06.77,0c.51,0,1,.06,1.54.07a46.4,46.4,0,0,0,6.13-.19l.75-.09c.26,0,.51-.05.76-.1l1.5-.25,1.47-.34c.25,0,.49-.12.73-.19l.72-.21.71-.22.7-.25c.47-.17.94-.33,1.38-.53s.91-.37,1.35-.58l1.3-.64.63-.33.62-.35.62-.34.6-.37,1.19-.73.59-.4.58-.41c.18-.15.37-.29.56-.43l.54-.45c.36-.3.7-.62,1-.94a22.53,22.53,0,0,0,3.39-4.22A22.13,22.13,0,0,0,331.81,38a17.85,17.85,0,0,0,1.53-9.41,15.46,15.46,0,0,0-1.07-4.08,16.6,16.6,0,0,0-1.79-3.22,18.64,18.64,0,0,0-2.21-2.54l-.62-.55c-.09-.09-.2-.18-.31-.27l-.34-.26a6.6,6.6,0,0,0-.68-.5l-.34-.24-.35-.21a16.69,16.69,0,0,0-2.93-1.4,20.91,20.91,0,0,0-3-.84,23.46,23.46,0,0,0-6-.36,23.07,23.07,0,0,0-2.89.38c-.47.08-.94.2-1.4.31l-.68.19c-.23.07-.46.13-.68.21l-.67.23-.66.26-.32.12-.32.15-.63.29-.62.31-.31.16-.3.18-.59.35-.57.38c-.19.12-.37.26-.55.4l-.54.41c-.34.3-.69.58-1,.9a15.77,15.77,0,0,0-1.74,2l-.36.54-.18.28-.16.28-.31.57c-.09.2-.19.39-.28.59l-.13.29-.11.3-.22.6c-.06.2-.11.4-.17.61l-.08.3c0,.1,0,.2-.06.3l-.12.61c0,.21,0,.41-.07.62l0,.3v.3l0,.6,0,.6c0,.09,0,.19,0,.29l0,.29c0,.19,0,.38.08.57s.07.38.11.56l.06.28.08.27.15.53.19.52.1.25a1.89,1.89,0,0,0,.11.25l.22.48c.08.16.17.31.25.46.16.31.36.59.54.87a10.25,10.25,0,0,0,2.66,2.64,9.38,9.38,0,0,0,2.94,1.31,8.31,8.31,0,0,0,2.65.23l.29,0,.29,0,.53-.08c.35-.08.66-.15.95-.24l.79-.28.25-.12A3.74,3.74,0,1,0,306.33,34a3.77,3.77,0,0,0,2.05,3.76l-.28,0h-1a8.21,8.21,0,0,1-2.28-.43,8.37,8.37,0,0,1-2.4-1.31,9,9,0,0,1-2.08-2.34,7.73,7.73,0,0,1-.4-.75c-.07-.13-.13-.26-.19-.39s-.11-.27-.16-.41l-.09-.21-.06-.21c-.05-.14-.09-.28-.14-.43s-.07-.29-.1-.44l-.06-.23,0-.22-.07-.46c0-.16,0-.32,0-.47l0-.24c0-.08,0-.16,0-.24v-.48c0-.16,0-.32,0-.48v-.25l0-.24c0-.16.05-.33.07-.49l.12-.49c0-.08,0-.16.05-.24l.08-.24c.05-.16.1-.32.16-.49s.13-.31.19-.47a2.44,2.44,0,0,1,.1-.24l.12-.23.23-.47c.09-.15.18-.3.28-.45l.13-.23.16-.22.31-.45a15.16,15.16,0,0,1,7.73-5,41.37,41.37,0,0,1,1.22-.33c.41-.09.82-.19,1.25-.26a21.89,21.89,0,0,1,2.58-.29,21.2,21.2,0,0,1,5.31.38,18.1,18.1,0,0,1,2.61.75,13.72,13.72,0,0,1,2.44,1.18l.29.18.28.19c.18.13.37.26.54.4l.26.21a2.76,2.76,0,0,1,.27.23c.17.16.34.32.52.47A14.42,14.42,0,0,1,328.21,23a13.84,13.84,0,0,1,1.48,2.64,12.54,12.54,0,0,1,.88,3.32,13.78,13.78,0,0,1-.05,3.84c0,.33-.12.67-.18,1s-.17.67-.26,1a17.85,17.85,0,0,1-.74,2A17.38,17.38,0,0,1,327,40.79a17.85,17.85,0,0,1-1.59,1.79c-.3.28-.59.57-.9.84l-.47.4c-.17.12-.33.25-.49.38l-.51.37-.52.36-1.11.71-.56.35-.58.33-.58.33a5.54,5.54,0,0,1-.59.32l-1.2.61c-.4.2-.82.37-1.23.55s-.84.35-1.27.51l-.64.24c-.21.08-.44.14-.66.21l-.66.2c-.22.07-.44.14-.66.19l-1.36.33-1.38.25c-.23,0-.47.08-.71.11l-.7.09a43,43,0,0,1-5.82.27c-.49,0-1,0-1.49,0l-.75,0-.75-.05-1.51-.09-.65-.06a3.28,3.28,0,0,0-.46-.27,9.49,9.49,0,0,0-2-.62c-.78-.17-1.64-.48-2.61-.77A54.14,54.14,0,0,1,286,46c-2.37-1.18-5-2.59-7.69-4.09-3.7-2-7.22-3.86-10.29-5.28-1.56-.68-3-1.32-4.25-1.79L262,34.18l-1.52-.51L259,33c-.54-.24-1.13-.47-1.76-.74-1.26-.51-2.69-1.1-4.27-1.69a56.61,56.61,0,0,0-11.19-3.09,34.47,34.47,0,0,0-4.57-.41c-.74,0-1.47,0-2.18,0l-1.06.08c-.35,0-.69,0-1,.09a28.27,28.27,0,0,0-6.36,1.58c-.38,0-.76.06-1.13.11.78-.36,1.7-.73,2.76-1.1l.71-.25.74-.24c.51-.17,1-.31,1.59-.47,1.11-.29,2.29-.58,3.55-.81a34.77,34.77,0,0,1,4-.51c.69-.05,1.38-.06,2.09-.05l1.08,0c.36,0,.73.05,1.1.07a62.34,62.34,0,0,1,10.81,2c3.13.85,5.71,1.69,7.47,2.28.84.41,1.88.87,3.06,1.48s2.5,1.28,4,2l4.62,2.53,5.11,2.94c1.29.77,2.56,1.51,3.79,2.22s2.31,1.47,3.38,2.22,2.09,1.47,3.06,2.12,1.9,1.23,2.76,1.73A20.26,20.26,0,0,0,295.36,49l.72.18.53.09.43.08-.42-.14-.51-.16c-.2-.07-.42-.17-.67-.27a22.05,22.05,0,0,1-4-2.28c-.8-.57-1.66-1.21-2.57-1.93s-1.9-1.49-2.92-2.31-2.16-1.64-3.39-2.41-2.48-1.52-3.78-2.29c-1.78-1-3.54-2-5.2-2.87s-3.3-1.6-4.79-2.3l-4.14-1.7c-1.22-.49-2.31-.85-3.2-1.16a75.93,75.93,0,0,0-7.29-3,46.72,46.72,0,0,0-11-2.42L242,24.11l-1.13,0a20.09,20.09,0,0,0-2.21.1,31.28,31.28,0,0,0-4.1.69c-1.29.31-2.48.68-3.59,1.06-.55.21-1.08.39-1.59.61l-.73.3-.7.32a29.88,29.88,0,0,0-3.55,1.93,17.05,17.05,0,0,0-1.81.4,10.08,10.08,0,0,0-2.8,1.27,2.57,2.57,0,0,1,.19.41l0,.08a9.49,9.49,0,0,1,2.74-1.15l.29-.06-.24.18-.2.16-1.14.45-1.4.53,0,0,1.45-.35,2-.55,2.63-.75.71-.19A33.36,33.36,0,0,1,235.57,30.49Zm-11.68-.62-.51.2-.63.25.07,0,.55-.31Zm6.36-1.06a26.14,26.14,0,0,1,2.78-.33c.33,0,.66,0,1,0s.68,0,1,0c.69,0,1.39,0,2.1.06a43.09,43.09,0,0,1,4.41.45,81.52,81.52,0,0,1,11.07,2.67c1.61.48,3.08.95,4.38,1.35l1.81.56,1.51.5,1.46.66,1.7.85c1.22.58,2.57,1.33,4.06,2.11,3,1.6,6.38,3.57,10.09,5.6,2.73,1.5,5.37,2.85,7.88,3.93a42.53,42.53,0,0,0,6.87,2.15c1,.2,1.9.43,2.71.52a9.89,9.89,0,0,1,2,.38l0,0-.36,0c-.51,0-1-.09-1.52-.15l-1.53-.16-1.5-.19-.76-.1-.75-.13-1.51-.27c-.5-.09-1-.21-1.5-.31-1-.2-2-.48-3-.73-.5-.12-1-.28-1.49-.41s-1-.28-1.48-.44c-1-.31-2-.62-2.95-1-1.95-.66-3.88-1.4-5.8-2.16s-3.81-1.55-5.68-2.36l-5.58-2.42c-1.84-.81-3.68-1.59-5.48-2.36-3.59-1.54-7.07-3.1-10.49-4.41q-2.57-1-5.07-1.78c-1.66-.53-3.31-.95-4.93-1.3A39.3,39.3,0,0,0,230.25,28.81Z"/><path class="cls-1" d="M252.6,25.91l1,.31.85.25c.29.08.57.17.86.24.57.14,1.14.29,1.71.41.29.06.57.13.86.18l.87.15.43.08.43,0,.86.12.88.09.87.08.2,0h0a4.89,4.89,0,0,0-.93-.19c.32,0,.65.06,1,.07l.26.15.38,0,.86.05.43,0h.43l.85,0a24.51,24.51,0,0,0,3.34-.16l.4-.05c.14,0,.27,0,.4-.06l.8-.15.77-.18.39-.11.38-.12c.12,0,.25-.07.37-.12l.37-.14a6.37,6.37,0,0,0,.72-.29l.71-.31L275,26l.34-.19.33-.19.33-.18.32-.21.64-.4.3-.21.29-.21.28-.22.27-.23c.18-.15.34-.32.51-.48a11.11,11.11,0,0,0,.92-1,11.94,11.94,0,0,0,.76-1.1,12.46,12.46,0,0,0,.59-1.15,10.8,10.8,0,0,0,.42-1.16c.05-.2.11-.39.15-.59s.08-.38.1-.57a7.76,7.76,0,0,0,0-2.2,6.88,6.88,0,0,0-.5-1.9,7.82,7.82,0,0,0-.85-1.52,9.46,9.46,0,0,0-1.06-1.22l-.3-.27-.15-.13-.15-.12-.31-.23-.16-.11-.17-.1a7.87,7.87,0,0,0-1.4-.68A11,11,0,0,0,275,9a12.55,12.55,0,0,0-3.05-.22,11.8,11.8,0,0,0-1.47.17c-.25,0-.48.1-.72.15a3.58,3.58,0,0,0-.35.09l-.35.1a8.71,8.71,0,0,0-4.43,2.89l-.18.25-.09.13-.07.13-.16.26-.14.27-.06.13-.06.14-.11.27-.09.28,0,.14a.57.57,0,0,0,0,.14l-.06.28,0,.28,0,.14v.13a2.46,2.46,0,0,1,0,.28c0,.09,0,.19,0,.28V16c0,.09,0,.18,0,.27l0,.26a.69.69,0,0,1,0,.13l0,.13.06.26.08.24,0,.12a.61.61,0,0,0,0,.12l.09.24A2.26,2.26,0,0,0,264,18a3.55,3.55,0,0,0,.23.43,5,5,0,0,0,1.19,1.34,4.81,4.81,0,0,0,1.38.75,4.58,4.58,0,0,0,1.3.25h.58l.15,0a2.17,2.17,0,0,1-1.17-2.16A2.12,2.12,0,0,1,270,16.65,2.14,2.14,0,0,1,271.81,19a2.11,2.11,0,0,1-1.94,1.91l-.15.07-.45.16-.54.14-.31.05-.16,0h-.17a4.82,4.82,0,0,1-1.52-.13,5.56,5.56,0,0,1-1.69-.75A5.93,5.93,0,0,1,263.36,19c-.1-.16-.22-.32-.31-.49s-.1-.18-.14-.27l-.13-.27-.06-.14-.06-.15a2.49,2.49,0,0,0-.11-.29c0-.11-.05-.21-.08-.31l-.05-.16,0-.15c0-.11-.05-.22-.07-.32s0-.22,0-.33l0-.17a1,1,0,0,1,0-.17c0-.11,0-.22,0-.34V14.9l0-.17c0-.12,0-.23,0-.35l.06-.35a1.16,1.16,0,0,1,0-.18l0-.17a3.57,3.57,0,0,0,.1-.35l.13-.34.06-.17.08-.17.15-.34.19-.32.09-.17.1-.15.21-.31a8.34,8.34,0,0,1,1-1.15c.18-.19.39-.35.58-.52l.31-.24a3.62,3.62,0,0,1,.32-.22l.32-.22.34-.2.17-.1.18-.1.35-.18.37-.16.18-.09.19-.07.37-.15.38-.13.39-.12.4-.11c.26-.06.53-.13.8-.17a13.23,13.23,0,0,1,5.09,0A10.87,10.87,0,0,1,277,7.9a8.6,8.6,0,0,1,1.68.8l.2.12.2.14.39.28.19.15a1.37,1.37,0,0,1,.18.16l.35.31a10.31,10.31,0,0,1,1.27,1.45,9.57,9.57,0,0,1,1,1.85,8.83,8.83,0,0,1,.61,2.34,10.21,10.21,0,0,1-.88,5.39,12,12,0,0,1-.69,1.33,11.85,11.85,0,0,1-.89,1.25,12.87,12.87,0,0,1-1.06,1.17c-.19.18-.38.36-.59.53a3.88,3.88,0,0,1-.31.26l-.32.25-.33.23-.34.23-.68.42c-.12.07-.23.15-.35.21l-.35.2-.36.2-.36.19-.74.36-.77.34c-.26.11-.53.2-.79.3l-.41.14-.41.13-.41.12-.42.11-.84.19-.86.15a3.15,3.15,0,0,1-.43.05l-.44.05a27.33,27.33,0,0,1-3.51.12l-.88-.05-.44,0-.44,0-.89-.07-.88-.09-.88-.1-.89-.11-.89-.13-.45-.07-.45-.08-.89-.17-.88-.21c-.59-.13-1.18-.3-1.76-.45l-.87-.26-.86-.28c-.58-.19-1.15-.38-1.71-.59-.4-.14-.79-.3-1.18-.45,0-.25-.06-.49-.08-.74Q251.43,25.75,252.6,25.91Z"/><path class="cls-1" d="M213,58.16c1.39,5.41,5.34,11.18,12.23,11.18,7.28,0,13.6-4.71,11.69-11.75-1.71-6.3-8.38-10.38-15.06-7.11a1.2,1.2,0,0,0-.65.77,1.73,1.73,0,0,0-.25.51c-1.53,2.49.67,6,3.81,7.37,2.36,1,5.59,1.58,7.92.62A5.83,5.83,0,0,1,231.51,65a5.37,5.37,0,0,1-1.75,1.57,10.73,10.73,0,0,1-8.83-.39c-6-3.45-7-11.45-6.11-17.18A17.23,17.23,0,0,1,230,34.13c.45-.05.9-.09,1.34-.11a1.28,1.28,0,0,0,.35.09c4.52.54,9.51,2.06,12.53,5.38,2.54,2.79,5.55,7.06,3.42,10.31s.89,1.88,1.8,1.2c2.08-1.56,2.71-3.82,2.95-6.15,2.47,4,5.25,8.43,10.28,9.85s10.77,1.37,14.89-1.53c.54-.38.81-1,.5-1.44,0-.47-.64-.81-1.31-.83-6-.23-11.38-3-16.28-6-5.16-3.15-10.07-6.68-15.51-9.45-4.63-2.35-10-4.17-15.36-3.38s-10.81,3.69-13.65,7.78A22.82,22.82,0,0,0,213,58.16Zm11.19-3-.11-.11.08,0Z"/><path class="cls-1" d="M44.41,70.28l.83.27,1,.26c.2.06.43.09.66.14l.77.13a38.51,38.51,0,0,0,9.25.1,88.39,88.39,0,0,0,13.5-2.46c2.49-.65,5.09-1.4,7.76-2.28,1.33-.44,2.68-.91,4.05-1.42s2.72-1,4.1-1.61c2.74-1.12,5.37-2.26,7.92-3.28s5-1.92,7.43-2.67a56.24,56.24,0,0,1,13.06-2.56c.94,0,1.84,0,2.69,0s1.65.11,2.39.22a15.08,15.08,0,0,1,3.72,1,11.81,11.81,0,0,1,2.15,1.18c.23.17.39.31.51.39l.18.14-.16-.16c-.1-.1-.24-.27-.45-.46a10.81,10.81,0,0,0-2-1.5,15.14,15.14,0,0,0-3.72-1.52c-.77-.2-1.59-.36-2.48-.5s-1.82-.21-2.81-.25a49.6,49.6,0,0,0-13.71,1.64,75.93,75.93,0,0,0-7.78,2.43c-2.64,1-5.31,2.08-8,3.19-1.36.55-2.7,1.1-4,1.61s-2.63,1-3.93,1.47c-2.59.94-5.11,1.79-7.53,2.56a116.75,116.75,0,0,1-13,3.39,43.54,43.54,0,0,1-9,.89c-.27,0-.52,0-.76,0s-.46,0-.67,0c-.41-.05-.76-.07-1-.12Z"/><path class="cls-1" d="M32.46,53.77a1.1,1.1,0,0,0-.93-.51,2.63,2.63,0,0,0-.79,0,7.46,7.46,0,0,0-1,.24,9.85,9.85,0,0,0-1.1.53,7.2,7.2,0,0,0-1.15.88,6.8,6.8,0,0,0-1.9,3,7.23,7.23,0,0,0-.26,2.53,8.46,8.46,0,0,0,.89,3.07,12.69,12.69,0,0,0,4.43,4.7,16.82,16.82,0,0,0,2.56,1.36,14.8,14.8,0,0,0,2.27.74c1.33.31,2.2.28,2.24.15S37.05,70,36,69.24c-.51-.37-1.11-.8-1.72-1.33a20.09,20.09,0,0,1-1.8-1.78A13.89,13.89,0,0,1,31,64.05,8.61,8.61,0,0,1,30.08,62a4.76,4.76,0,0,1-.16-1.64,5.46,5.46,0,0,1,.22-1,7.28,7.28,0,0,1,.7-1.58c.13-.27.32-.52.46-.79s.33-.51.47-.76a5.09,5.09,0,0,0,.41-.7,5,5,0,0,0,.29-.64A1.29,1.29,0,0,0,32.46,53.77Z"/><path class="cls-1" d="M18.35,69.17a2,2,0,0,0,.51.81,4,4,0,0,0,.75.6,4.77,4.77,0,0,0,1.83.66c.35,0,.94.05,1.68.13a14.22,14.22,0,0,1,2.45.5l.62.2.58.22c.37.16.73.31,1,.45s.55.26.75.34.34.1.4,0,0-.17,0-.38a3.72,3.72,0,0,0-.27-.83,8.56,8.56,0,0,0-.61-1.12c-.13-.2-.28-.4-.43-.61s-.34-.4-.52-.61a10.35,10.35,0,0,0-2.59-2.08,7.17,7.17,0,0,0-2.46-.91,4.05,4.05,0,0,0-3,.71,2.17,2.17,0,0,0-.69.92A1.47,1.47,0,0,0,18.35,69.17Z"/><path class="cls-1" d="M0,61.64c0-.38.07-.75.1-1.12s.08-.74.14-1.1a19.62,19.62,0,0,1,3.2-8,20.37,20.37,0,0,1,5.83-5.4,25.4,25.4,0,0,1,6.63-2.85,33.75,33.75,0,0,1,6.38-1.1,38.86,38.86,0,0,1,5.74.06l1.31.13,1.26.18c.41.05.81.13,1.2.21s.77.14,1.14.23l1.09.26.52.13.51.15,1,.29c.31.09.61.21.91.31a32.93,32.93,0,0,1,5.23,2.34c.29.15.53.31.74.44l.53.33.43.26-.45-.23-.55-.28c-.22-.12-.47-.25-.77-.38A33.69,33.69,0,0,0,36.8,44.6c-.3-.08-.6-.18-.92-.25l-1-.21L34.4,44l-.52-.09-1.08-.19c-.36-.06-.74-.09-1.13-.15s-.78-.1-1.18-.12l-1.23-.11-1.28,0a37.81,37.81,0,0,0-5.52.27,31.82,31.82,0,0,0-6,1.36,24.44,24.44,0,0,0-6,2.92,18.44,18.44,0,0,0-4.94,5,17,17,0,0,0-2.48,7c0,.32-.06.65-.09,1s-.06.65-.06,1a15.68,15.68,0,0,0,.4,3.85c.08.32.18.63.27,1a7.92,7.92,0,0,0,.33.93,16.4,16.4,0,0,0,.84,1.81l.52.87.13.21.15.21.3.42a19.1,19.1,0,0,0,2.82,3.1,29.85,29.85,0,0,0,7.42,4.8,44.86,44.86,0,0,0,8.81,3c1.55.35,3.12.65,4.71.85a45.36,45.36,0,0,0,4.81.34h1.2l1.19,0L38,83l1.22-.15c1.62-.22,3.24-.38,4.83-.68l2.39-.4c.79-.15,1.57-.32,2.35-.48s1.57-.31,2.34-.49l2.3-.56c6.11-1.49,11.93-3.35,17.44-5.25s10.72-3.84,15.63-5.6S96,66,100.25,64.67c2.14-.64,4.16-1.27,6.09-1.8s3.78-1,5.52-1.35a34.45,34.45,0,0,1,9.09-.78,16.84,16.84,0,0,1,3.29.54c.36.1.68.22,1,.33l.29.07.4.11.39.12.38.13c.25.09.5.2.74.3a12.13,12.13,0,0,1,1.39.72,11.25,11.25,0,0,1,1.26.87,10.46,10.46,0,0,1,1.1,1,9.76,9.76,0,0,1,2.62,4.72A8.48,8.48,0,0,1,134,72a9.79,9.79,0,0,1-.37,2.07,10.62,10.62,0,0,1-.73,1.77l-.23.42a2.25,2.25,0,0,1-.12.21l-.13.2c-.09.14-.18.27-.28.4l-.14.19-.16.18a8.66,8.66,0,0,1-1.33,1.31,10.76,10.76,0,0,1-1.49,1,13.82,13.82,0,0,1-3.21,1.36,13.34,13.34,0,0,1-1.64.36c-.28,0-.55.07-.83.11l-.41,0-.41,0H121.3l-.4,0-.39,0-.2,0-.2,0-.39-.07-.38-.1a2.66,2.66,0,0,1-.38-.1l-.37-.11c-.24-.1-.49-.18-.72-.29a9,9,0,0,1-1.33-.73l-.3-.22-.15-.11-.14-.12-.28-.24-.26-.26-.13-.13-.12-.14-.23-.27-.21-.29-.1-.15a1.3,1.3,0,0,1-.1-.15c-.06-.1-.12-.2-.17-.3l-.16-.31-.07-.16-.07-.16-.12-.31-.1-.33s0-.1,0-.15l0-.17c0-.1,0-.21-.07-.32l0-.32c0-.05,0-.1,0-.16V75.2l0-.32c0-.1,0-.21,0-.31v-.15s0-.1,0-.15l0-.31c0-.09,0-.19,0-.29s.08-.38.13-.57a5.85,5.85,0,0,1,1-1.92,5.53,5.53,0,0,1,1.35-1.27,5.29,5.29,0,0,1,1.41-.64l.16,0,.16,0,.31-.06.57-.06h.48l.16,0a2.12,2.12,0,1,1-.93.55l-.16,0-.27.09-.14,0-.14.06a4.86,4.86,0,0,0-1.16.68,4.78,4.78,0,0,0-1.06,1.16,5,5,0,0,0-.69,1.65,3.7,3.7,0,0,0-.08.48l0,.24c0,.08,0,.17,0,.25a.62.62,0,0,1,0,.13v.38c0,.08,0,.17,0,.25l0,.13a.51.51,0,0,0,0,.13l0,.26a2.5,2.5,0,0,0,.07.26l0,.13s0,.08,0,.13l.09.25.11.25.06.13.07.12.13.25.15.23.08.12.09.12.17.22.2.22.1.11.11.1.22.2.23.19.12.09.13.09.25.18a8.89,8.89,0,0,0,5.18,1.18c.12,0,.24,0,.36,0l.36,0c.25,0,.49-.06.74-.11a11,11,0,0,0,1.46-.35,12.84,12.84,0,0,0,2.83-1.23,11.42,11.42,0,0,0,1.28-.91,7.7,7.7,0,0,0,1.11-1.1l.12-.15.12-.16.22-.32.1-.16.1-.17.2-.36a8.8,8.8,0,0,0,.61-1.49,7.41,7.41,0,0,0,.16-3.63,8,8,0,0,0-.76-2c-.09-.17-.19-.34-.29-.5l-.34-.5a8.56,8.56,0,0,0-.79-.94,11.16,11.16,0,0,0-.94-.86,9.66,9.66,0,0,0-1.09-.77,9.94,9.94,0,0,0-1.21-.64c-.21-.09-.43-.19-.65-.27l-.33-.12-.34-.11-.35-.1-.35-.09-.74-.16-.37-.08-.38-.06-.38-.07-.38,0-.77-.09-.78-.06c-.26,0-.53,0-.79,0h-.4c-.13,0-.26,0-.39,0l-.4,0c-.14,0-.27,0-.4,0l-.81.09c-.64.07-1.28.09-1.92.18s-1.13.17-1.71.21q-1.5.11-3,.3l-2.28.3h0c-.7.22-1.4.45-2.13.7-1.88.64-3.85,1.37-5.93,2.11C96.71,68,92.22,69.73,87.4,71.7s-10,4.08-15.48,6.17A173.42,173.42,0,0,1,54.3,83.61l-2.36.61c-.79.19-1.6.36-2.4.54s-1.61.36-2.42.52l-2.47.43c-1.64.32-3.32.51-5,.74l-1.27.16-1.33.11-1.33.06c-.45,0-.89,0-1.33,0a47.63,47.63,0,0,1-19.82-4.71,32.85,32.85,0,0,1-8.16-5.52,22.36,22.36,0,0,1-3.19-3.69l-.34-.51-.17-.25-.15-.26L2,70.78A19.75,19.75,0,0,1,1,68.56a10.62,10.62,0,0,1-.36-1.13c-.1-.39-.21-.77-.3-1.16a18.57,18.57,0,0,1-.3-2.33A17.67,17.67,0,0,1,0,61.64Z"/></g></g></svg>