<svg width="246" height="246" viewBox="0 0 246 246" fill="none" xmlns="http://www.w3.org/2000/svg">
<circle cx="123" cy="123" r="118" fill="#00005E" stroke="#D4AF37" stroke-width="10"/>
<path fill-rule="evenodd" clip-rule="evenodd" d="M190.617 132.498C193.626 137.977 197.505 142.657 202.153 146.406L202.154 146.404C205.561 149.155 212.385 152.799 215.104 154.018C197.159 168.18 179.135 160.007 170.105 155.913C169.881 155.811 169.663 155.712 169.45 155.616C164.699 153.469 157.844 147.795 151.214 142.307C144.788 136.988 138.573 131.844 134.69 130.255C130.664 128.486 126.666 127.553 122.656 127.385C118.666 127.556 114.644 128.489 110.617 130.255C106.737 131.843 100.526 136.984 94.102 142.301C87.469 147.792 80.6093 153.469 75.8554 155.616C75.6393 155.714 75.4175 155.814 75.1899 155.917C66.2876 159.95 48.674 167.93 31 154.632L43.1503 146.407C47.7999 142.657 51.6798 137.977 54.6868 132.499C58.3917 125.748 60.7578 117.772 61.7214 108.793C65.6985 71.7677 100.422 53.6182 122.652 53C136.39 53.3835 154.883 60.4586 167.955 74.5371L151.084 85.0634C150.712 84.7622 150.327 84.4816 149.906 84.2311C149.653 84.0821 149.392 83.9426 149.133 83.8158C147.214 82.8884 145.121 82.6332 143.138 82.9724C141.173 81.8041 138.797 81.3 136.367 81.7153C134.262 82.0767 132.422 83.0739 131.02 84.4784C129.059 84.8129 127.179 85.7355 125.669 87.2447C123.924 88.9853 122.973 91.2093 122.798 93.4826C121.181 95.0962 120.116 97.2713 119.928 99.7205C119.742 102.173 120.466 104.48 121.82 106.32C121.647 108.593 122.256 110.933 123.713 112.918C125.17 114.901 127.225 116.184 129.453 116.703C130.805 118.541 132.797 119.928 135.2 120.489C137.601 121.047 139.996 120.689 142.029 119.636C144.254 120.156 146.668 119.92 148.86 118.788C151.05 117.656 152.637 115.828 153.496 113.71C155.52 112.663 157.204 110.914 158.128 108.638C159.048 106.358 159.063 103.936 158.333 101.777C158.486 101.401 158.616 101.017 158.721 100.624C158.956 99.754 159.066 98.8456 159.052 97.9246L176.821 86.8408C180.281 93.2309 182.695 100.541 183.582 108.792C184.546 117.774 186.915 125.748 190.617 132.498ZM154.369 94.9743C154.526 95.291 154.66 95.6171 154.775 95.9575L154.776 95.9569C155.279 97.4578 155.297 99.0014 154.916 100.415C154.834 100.722 154.735 101.022 154.615 101.314C155.184 103.002 155.173 104.896 154.456 106.675C153.735 108.453 152.428 109.822 150.85 110.639C150.183 112.292 148.948 113.723 147.244 114.607C145.54 115.492 143.66 115.679 141.929 115.272C140.346 116.09 138.481 116.372 136.614 115.937C134.743 115.497 133.196 114.414 132.144 112.975C130.41 112.571 128.81 111.566 127.677 110.017C126.545 108.469 126.07 106.635 126.206 104.862C125.155 103.425 124.591 101.619 124.736 99.703C124.882 97.7875 125.71 96.0903 126.968 94.8285C127.101 93.0524 127.843 91.3141 129.201 89.9541C130.377 88.7763 131.836 88.0543 133.362 87.7931C134.454 86.6976 135.881 85.9171 137.523 85.6353C139.412 85.3107 141.26 85.7065 142.787 86.6184C144.33 86.354 145.96 86.5551 147.451 87.277C147.655 87.3752 147.855 87.4828 148.053 87.6016C149.479 88.4533 150.529 89.6945 151.152 91.1082L171.666 78.2561C172.678 79.5621 173.646 80.9173 174.561 82.3216L154.369 94.9743ZM141.797 110.157C145.293 109.557 148.015 107.131 149.166 104.024L149.167 104.024C149.736 102.493 149.921 100.797 149.625 99.0714C149.566 98.739 149.492 98.4112 149.404 98.0914C148.934 96.4166 148.035 94.9569 146.854 93.8091C145.355 92.3526 143.398 91.4011 141.271 91.1558C140.389 91.0528 139.474 91.0718 138.554 91.2302C133.335 92.1259 129.828 97.0894 130.723 102.317C131.621 107.545 136.577 111.056 141.797 110.157Z" fill="#D4AF37"/>
</svg>
