<svg width="246" height="246" viewBox="0 0 246 246" fill="none" xmlns="http://www.w3.org/2000/svg">
<circle cx="123" cy="123" r="118" fill="#00005E" stroke="#D4AF37" stroke-width="10"/>
<path d="M45.4147 147.966C66.6659 145.443 76.9756 127.565 76.9756 127.565C86.8653 108.845 96.1223 62.5718 96.1223 62.5718C141.571 33.7562 161.559 79.188 161.559 79.188C177.34 69.9331 192.7 88.4429 192.7 88.4429C216.055 114.734 213.951 157.009 213.951 157.009L162.402 157.007V165H158.194V149.225C120.743 128.402 94.2283 149.225 94.2283 149.225V165H90.02V157.429H33C33 148.384 45.4141 147.964 45.4141 147.964L45.4147 147.966ZM157.984 98.9589C161.771 98.9589 164.928 95.8044 164.928 92.0175C164.928 88.2319 161.772 85.0761 157.984 85.0761C154.197 85.0761 151.04 88.2306 151.04 92.0175C151.04 95.8044 154.197 98.9589 157.984 98.9589Z" fill="#D4AF37"/>
</svg>
