<svg width="246" height="246" viewBox="0 0 246 246" fill="none" xmlns="http://www.w3.org/2000/svg">
<circle cx="123" cy="123" r="118" fill="#003AAA" stroke="#D4AF37" stroke-width="10"/>
<ellipse cx="123" cy="123.5" rx="104" ry="103.5" fill="#003AAA" stroke="#D4AF37" stroke-width="2"/>
<path fill-rule="evenodd" clip-rule="evenodd" d="M166.615 57.4464C166.879 63.0002 162.572 67.7258 156.996 67.9847L156.996 67.9865C156.097 68.0306 155.231 67.9166 154.39 67.7313L160.994 72.7647C162.415 73.853 162.689 75.8808 161.6 77.3076C160.516 78.7258 158.468 79.0031 157.047 77.9112L148.864 71.6765L149.227 71.9942L129.133 99.9174L178.595 160.752L176.971 164.407L176.096 164.018L126.713 103.281L125.963 104.322L171.469 167.561L171.615 168.511L167.661 169.117L123.5 107.747L79.338 169.117C79.338 169.117 76.9996 184.356 96.5779 186.567C100.498 187.011 96.7858 181.47 96.7858 181.47L120.096 178.724L106.965 197.154C106.965 197.154 104.247 193.82 101.326 193.986C101.012 194.003 100.542 194.057 99.937 194.126C94.8857 194.706 80.3918 196.371 68.392 186.826C66.8211 185.585 55.9109 188.388 55.9109 188.388L55.9392 188.344C55.9417 188.046 55.756 177.122 54.1619 175.959C41.7525 166.925 39.5426 152.531 38.7748 147.53C38.6832 146.933 38.6122 146.471 38.5468 146.166C37.9356 143.309 33.9995 141.569 33.9995 141.569L48.3538 124.077L51.8519 147.226C51.8519 147.226 45.516 145.122 46.9835 148.777C54.28 167.026 68.4041 160.752 68.4041 160.752L117.866 99.9174L97.7725 71.9942L98.0018 71.7934L97.9747 71.7988L89.9521 77.9112C88.5314 79.0031 86.4833 78.7258 85.3986 77.3076C84.31 75.8808 84.5843 73.853 86.005 72.7647L92.609 67.7313C91.7739 67.9152 90.9146 68.029 90.0227 67.9874L90.0028 67.9865L90.0029 67.9847L89.983 67.9837C89.3589 67.9536 88.7507 67.8674 88.1632 67.7304L88.1439 67.7259C87.6275 67.6044 87.1271 67.4436 86.6458 67.247C82.8002 65.676 80.1759 61.8177 80.3841 57.4464C80.6375 51.8816 85.3744 47.5856 90.9463 47.8444C95.0363 48.0351 98.4462 50.627 99.8699 54.1876C100.081 54.7151 100.248 55.2639 100.368 55.8293C100.427 56.1094 100.474 56.3936 100.509 56.6813C100.578 57.2378 100.6 57.8074 100.572 58.3861C100.507 59.884 100.085 61.2776 99.437 62.5266L108.383 55.7119C109.817 54.6298 111.853 54.8997 112.941 56.324C114.028 57.7434 113.754 59.7787 112.333 60.8656L103.101 67.9L123.5 92.9882L143.898 67.9L134.666 60.8656C133.245 59.7787 132.971 57.7434 134.058 56.324C135.146 54.8997 137.182 54.6298 138.616 55.7119L147.562 62.5266C146.914 61.2776 146.492 59.884 146.427 58.3861C146.163 52.8288 150.476 48.1044 156.053 47.8444C161.625 47.5856 166.361 51.8816 166.615 57.4464ZM120.922 96.1585L113.675 87.2452L120.48 96.7021L120.922 96.1585ZM156.254 52.1605C153.064 52.3053 150.604 55.0065 150.749 58.1876C150.9 61.3614 153.6 63.8187 156.79 63.6752C159.976 63.5206 162.444 60.8266 162.294 57.648C162.142 54.4681 159.442 52.0096 156.254 52.1605ZM94.3558 62.1876C93.2644 63.1732 91.7973 63.7466 90.2085 63.6752C87.0227 63.5206 84.5552 60.8266 84.7053 57.648C84.8568 54.4681 87.5566 52.0096 90.7448 52.1605C93.7551 52.2971 96.1151 54.7095 96.2502 57.6536L96.2505 57.6606C96.2582 57.8322 96.2583 58.0056 96.2505 58.1805L96.2502 58.1876V58.1942C96.1725 59.7849 95.4546 61.1952 94.3558 62.1876Z" fill="#D4AF37"/>
<path d="M147.75 190.169L147.623 190.155C146.913 190.079 146.331 190.016 145.9 189.992L147.75 190.169Z" fill="#D4AF37"/>
<path fill-rule="evenodd" clip-rule="evenodd" d="M167.661 169.117C171.615 168.511 171.615 168.513 171.616 168.516L171.616 168.521L171.618 168.533L171.622 168.562L171.625 168.581L171.633 168.636C171.64 168.693 171.649 168.765 171.659 168.851C171.677 169.023 171.699 169.253 171.716 169.533C171.75 170.09 171.768 170.856 171.714 171.769C171.606 173.582 171.21 176.067 170.023 178.672C167.545 184.106 162.042 189.16 151.308 190.49C157.594 190.897 167.536 190.521 176.117 183.696L176.127 183.688C177.296 182.763 178.663 182.607 179.22 182.554C179.978 182.483 180.778 182.505 181.503 182.556C182.972 182.66 184.656 182.927 186.17 183.209C186.541 183.278 186.908 183.35 187.267 183.422C187.295 183.002 187.328 182.572 187.364 182.14C187.491 180.629 187.679 178.966 187.966 177.549C188.108 176.849 188.298 176.083 188.569 175.379C188.769 174.857 189.285 173.599 190.48 172.728L190.483 172.725C199.419 166.22 202.382 156.66 203.627 150.516C199.511 160.614 193.132 164.606 187.202 165.557C184.374 166.011 181.87 165.736 180.091 165.361C179.195 165.172 178.46 164.953 177.931 164.773C177.665 164.683 177.449 164.602 177.288 164.539C177.207 164.507 177.14 164.479 177.087 164.457C177.061 164.446 177.038 164.436 177.018 164.428L176.992 164.416L176.981 164.412L176.976 164.409C176.973 164.408 176.971 164.407 178.595 160.752C178.595 160.752 192.719 167.026 200.016 148.777C200.534 147.485 200.078 146.912 199.27 146.712C197.794 146.347 195.147 147.226 195.147 147.226L198.645 124.077L213 141.569C213 141.569 211.093 142.412 209.728 143.888C209.131 144.532 208.638 145.298 208.452 146.166C208.387 146.47 208.316 146.932 208.224 147.528L208.224 147.53C207.456 152.531 205.246 166.925 192.837 175.959C191.87 176.664 191.421 180.961 191.219 184.299C191.087 186.465 191.059 188.227 191.06 188.344L191.088 188.388L191.018 188.37L190.918 188.345C190.423 188.22 188.898 187.845 187.077 187.466C183.793 186.782 179.543 186.086 178.607 186.826C166.607 196.371 152.113 194.706 147.062 194.126C146.457 194.057 145.987 194.003 145.673 193.986C144.785 193.935 143.915 194.209 143.135 194.614C141.35 195.54 140.034 197.154 140.034 197.154L126.903 178.724L150.213 181.47C150.213 181.47 148.657 183.793 148.624 185.31C148.606 186.136 149.039 186.724 150.421 186.567C169.999 184.356 167.661 169.117 167.661 169.117ZM204.208 147.26L204.246 147.021L204.246 147.02C204.359 146.319 204.451 145.746 204.541 145.327L204.542 145.326C204.965 143.35 206.095 141.838 207.174 140.776L201.257 133.565L199.869 142.751C200.546 142.878 201.514 143.167 202.405 143.895C203.414 144.72 204.054 145.892 204.203 147.215L204.208 147.26ZM147.75 190.169C146.544 189.672 145.602 188.758 145.08 187.583C144.614 186.536 144.589 185.529 144.644 184.842L135.397 183.752L140.799 191.335L147.75 190.169Z" fill="#D4AF37"/>
</svg>
