<svg width="246" height="246" viewBox="0 0 246 246" fill="none" xmlns="http://www.w3.org/2000/svg">
<circle cx="123" cy="123" r="118" fill="#00005E" stroke="#D4AF37" stroke-width="10"/>
<path d="M120.811 61C112.381 61 105.828 66.673 97.8088 72.4217C90.1334 77.9246 81.0662 83.8822 67.9595 86.989L67.0432 84.8592C67.8453 83.8142 68.3449 82.5537 68.3449 81.1327C68.3449 77.7112 65.5813 74.9381 62.1725 74.9381C58.7636 74.9381 56 77.7123 56 81.1327C56 84.2902 58.3578 86.8479 61.4015 87.2312L108.709 200L114.399 197.629L93.0846 146.858C103.918 143.549 111.792 138.378 118.547 134.275C125.789 129.875 131.529 126.862 139.042 127.547C140.418 127.672 140.775 128.038 141.356 129.145C142.762 132.668 142.491 136.335 142.803 139.889C143.159 143.235 144.918 145.253 148.446 144.293C163.436 136.771 178.284 133.79 194.885 133.79C196.057 133.805 197.208 133.087 197.712 132.025C198.216 130.962 198.047 129.613 197.295 128.709C185.102 113.698 166.727 92.6075 174.534 74.6479C175.241 73.0751 174.332 70.9862 172.702 70.4377C162.767 67.1141 152.004 70.1253 141.549 74.4549C135.549 68.0686 128.701 61.1394 120.813 61.0004L120.811 61ZM73.0217 99.04C81.3743 107.53 84.857 117.351 85.1737 127.982L73.0217 99.04Z" fill="#D4AF37"/>
</svg>
