<svg width="236" height="236" viewBox="0 0 236 236" fill="none" xmlns="http://www.w3.org/2000/svg">
<circle cx="118" cy="118" r="113" fill="#FFA800" stroke="black" stroke-width="10"/>
<path d="M155.849 58C153.98 59.8765 156.783 61.0827 155.849 64.702L140.369 78.7766C139.836 78.2408 139.168 78.2408 138.634 78.7766C138.234 79.1786 138.1 79.9827 138.501 80.3848L118.084 99.0174L117.951 98.8837C117.417 98.3479 116.75 98.3479 116.216 98.8837C115.682 99.4194 115.682 100.09 116.216 100.627L92.863 121.938C92.3296 121.402 91.6622 121.402 91.128 121.938C90.7277 122.34 90.5946 123.144 91.128 123.546L65.6402 146.601C65.1068 146.065 64.4394 146.065 63.9051 146.601C63.3718 147.137 63.3718 147.807 63.9051 148.344C60.4358 152.634 60.7022 159.336 64.3054 165.099C62.7044 165.099 61.1025 165.769 59.9018 166.975C57.3661 169.522 57.3661 173.544 59.9018 176.09C62.4374 178.637 66.4407 178.637 68.9755 176.09C70.1762 174.884 70.8436 173.409 70.8436 171.8C76.7154 175.687 83.6547 176.09 88.0574 172.604C88.5908 173.14 89.2582 173.14 89.7924 172.604C90.3258 172.068 90.3258 171.398 89.7924 170.861L113.679 144.455C114.212 144.857 114.88 144.857 115.28 144.455C115.813 143.919 115.813 143.249 115.28 142.712L135.431 119.928C135.965 120.33 136.632 120.196 137.032 119.794C137.433 119.392 137.566 118.588 137.032 118.051L155.581 97.5428V97.6766C156.114 98.2123 156.782 98.2123 157.316 97.6766C157.85 97.1408 157.85 96.4704 157.316 95.9337L157.183 95.8L171.328 80.2511C175.598 79.3123 176.132 82.1276 178 80.2511C178 80.2511 173.596 74.353 167.725 68.3214C161.72 62.4234 155.848 58.0001 155.848 58.0001L155.849 58Z" fill="black"/>
<path d="M78.0663 62.5215C78.0237 63.2812 78.0846 64.1319 78.2977 65.1016L78.4343 65.7233L78.9052 66.1516L92.3903 78.4189L92.35 78.4189L96.2013 81.9022L116.71 100.451L118.116 101.723L118.162 101.677L118.603 102.067L141.387 122.218L141.772 122.558L141.757 122.578L143.114 123.804L169.52 147.691L170.697 148.756L171.036 149.184C173.808 152.686 173.72 158.632 170.132 164.052L168.078 167.156L171.8 167.156C172.816 167.156 173.799 167.567 174.679 168.442L174.679 168.442C176.44 170.195 176.441 172.927 174.679 174.681L174.678 174.681C172.913 176.439 170.153 176.44 168.387 174.681C167.542 173.84 167.099 172.743 167.099 171.695L167.099 168.086L164.039 169.999C158.737 173.314 153.015 173.301 149.601 170.54L149.077 170.115L148.084 169.018L125.029 143.53L123.406 141.736L123.388 141.759L102.104 118.436L101.735 118.032L101.786 117.982L100.495 116.568L81.862 96.1511L81.4941 95.7479L81.5422 95.6999L80.2563 94.2857L66.1818 78.8059L65.7802 78.3642L65.2021 78.2149C64.1863 77.9526 63.2965 77.9157 62.5304 77.9879L69.7362 69.6964L78.0663 62.5215ZM99.7473 118.917L98.978 118.144L99.7473 118.917Z" stroke="black" stroke-width="4"/>
</svg>
