<svg width="246" height="246" viewBox="0 0 246 246" fill="none" xmlns="http://www.w3.org/2000/svg">
<circle cx="123" cy="123" r="118" fill="#D00000" stroke="#00005E" stroke-width="10"/>
<path d="M210.505 81.3138C209.481 80.8954 208.334 80.8954 207.31 81.3138C206.323 81.8173 206.109 82.5529 204.232 83.9068C201.56 85.8425 200.126 86.4229 195.264 86.925C194.238 87.0222 193.018 83.306 190.829 85.2998C190.462 85.6481 190.035 85.9572 189.628 86.2677C188.68 87.0033 188.098 88.3383 186.704 88.3774C185.31 88.4166 183.974 88.5907 182.617 88.6866C178.744 88.9579 175.045 89.2278 171.25 89.4411C170.165 89.4411 169.022 89.7313 168.287 88.4152V88.4166C167.856 87.5891 167.036 87.033 166.108 86.9399C165.179 86.8468 164.265 87.226 163.678 87.9523C162.122 89.7556 159.797 90.7045 157.422 90.5061C153.936 90.5061 96.9776 94.7633 95.449 94.9565C93.5118 95.2075 91.576 95.7299 89.9102 93.7956C89.5278 93.2435 88.8862 92.929 88.2148 92.9642C87.5448 93.0006 86.9395 93.3812 86.618 93.9698C85.7467 95.383 85.5913 95.1698 83.7906 95.3628C74.2235 96.4075 64.8118 99.8131 63.3392 111.25C63.3392 111.366 62.8164 111.58 62.6813 111.482L62.526 111.327V111.329C62.3828 111.127 62.2599 110.913 62.1572 110.689C61.3629 109.122 58.2842 108.947 58.0128 108.947C56.6348 108.956 55.311 109.481 54.302 110.417C53.2915 111.356 52.6715 112.637 52.5634 114.009C52.454 115.382 52.8647 116.746 53.7144 117.83C54.3561 119.178 55.6718 120.078 57.1619 120.19C61.2295 120.481 61.713 118.565 62.7979 117.616L62.7965 117.618C62.9924 117.472 63.2005 117.342 63.4166 117.23C63.4166 117.481 63.6301 117.713 63.6881 117.966C64.192 119.727 64.6946 121.487 65.1403 123.249V123.248C65.1944 123.638 65.0661 124.031 64.7918 124.313C63.7287 124.793 62.6196 125.163 61.4808 125.415C60.2407 125.648 60.0083 125.88 59.7759 127.351C59.5828 128.415 59.7759 129.693 58.6912 130.39V130.388C56.7134 131.681 54.5236 132.617 52.2231 133.157C49.8212 133.756 47.4396 134.473 45.0188 134.918C41.3388 135.615 35.9165 134.647 32.6823 136.738C29.8157 138.673 31.4422 162.92 31.6178 163.538L31.6165 163.537C31.7151 164.078 32.0393 164.554 32.5094 164.841C32.9782 165.13 33.5482 165.204 34.0764 165.046C34.5101 164.915 34.9599 164.844 35.4125 164.834C38.3952 164.834 41.3767 164.834 44.3594 165.008H44.3608C44.9282 165.129 45.4118 165.498 45.6766 166.014C46.2764 167.098 46.3547 168.549 47.4976 169.264L51.4867 171.76V171.762C51.7137 171.917 51.9717 172.022 52.2419 172.071L52.8809 172.168C54.1196 172.644 55.4287 172.913 56.7552 172.962H57.3361C57.9089 173.013 58.4857 173.013 59.0599 172.962C61.6928 172.773 64.1404 171.539 65.8561 169.536C67.1381 168.336 68.1999 166.921 68.9942 165.357C69.5103 164.036 70.7545 163.143 72.1702 163.073C73.5265 162.764 116.713 162.917 118.843 162.899C119.272 162.909 119.672 163.116 119.928 163.46C120.567 164.544 121.071 165.705 121.633 166.827H121.632C122.367 168.41 123.616 169.699 125.176 170.485L125.641 170.698V170.696C127.539 172.002 129.768 172.74 132.07 172.825C134.841 172.84 137.547 171.988 139.808 170.389C142.07 168.788 143.772 166.522 144.678 163.904C144.911 163.746 145.175 163.641 145.452 163.595C146.247 163.46 147.079 163.421 147.854 163.228C148.811 163.175 149.704 162.73 150.32 161.997C150.937 161.264 151.222 160.308 151.108 159.357C151.108 157.711 152.115 126.46 151.941 125.047V125.048C151.441 122.673 152.771 120.293 155.058 119.475C156.996 118.952 159.126 118.72 161.14 118.295V118.294C162.656 117.947 164.236 117.994 165.729 118.43C166.178 118.514 166.64 118.377 166.969 118.062C167.871 117.206 169.04 116.686 170.281 116.592C171.249 116.418 172.218 116.243 173.205 116.108C174.193 115.973 186.239 115.257 187.033 115.528C187.537 115.683 187.846 116.457 188.311 116.825V116.824C189.024 117.505 189.92 117.964 190.891 118.144C191.861 118.322 192.863 118.213 193.772 117.829C194.044 117.694 194.218 117.268 194.451 117.017C194.683 116.766 195.399 115.081 195.612 115.081V115.083C199.452 115.023 203.282 115.478 206.999 116.436C207.657 116.727 208.374 118.546 209.053 118.778C209.336 118.923 209.627 119.051 209.924 119.166C211.047 119.417 212.306 118.024 212.849 116.554C216.587 106.8 215.231 82.8242 210.505 81.3138ZM138.849 107.09C138.768 105.254 137.604 103.643 135.885 102.988C140.553 102.833 144.795 102.679 145.336 102.601C146.02 102.583 146.675 102.875 147.118 103.394C147.429 103.394 147.68 103.645 147.68 103.954V108.116C147.752 108.401 147.752 108.7 147.68 108.987V111.057C147.68 111.366 147.429 111.619 147.118 111.619H135.827C137.7 110.915 138.905 109.086 138.81 107.09L138.849 107.09ZM122.001 103.935C122.001 103.626 122.252 103.374 122.561 103.374L132.245 103.103V103.104C130.625 103.9 129.618 105.57 129.672 107.373C129.728 109.178 130.832 110.784 132.497 111.482H122.523C122.213 111.482 121.962 111.231 121.962 110.921V110.475V110.477C121.878 110.39 121.805 110.292 121.748 110.186C121.07 108.715 121.962 103.916 121.962 103.916L122.001 103.935ZM92.37 104.245L92.3686 104.246C92.6537 103.911 93.0319 103.67 93.4534 103.548C96.0877 103.219 110.109 102.271 114.467 102.077C115.048 102.077 115.552 102.193 115.57 103.045C115.57 104.69 115.008 105.598 113.828 105.677C112.647 105.754 92.4281 106.489 92.2919 106.218V106.219C92.1689 105.566 92.1824 104.894 92.331 104.246L92.37 104.245ZM75.5405 104.825L75.5391 104.826C76.4834 104.492 77.4669 104.277 78.4638 104.188C80.2673 104.021 82.076 103.95 83.8865 103.975C84.8996 104.016 85.8966 104.239 86.8301 104.632C87.1786 104.787 87.4879 105.561 87.5271 106.064C83.6161 106.622 79.665 106.855 75.7135 106.761C75.3569 106.628 75.0935 106.321 75.0165 105.948C74.9584 105.561 75.2299 104.903 75.5014 104.806L75.5405 104.825ZM63.165 132.884C63.165 131.8 63.8431 131.296 64.7914 131.47C65.2372 131.47 145.491 126.904 145.723 126.884C147.446 126.884 147.872 127.251 147.814 129.147C147.814 130.715 147.698 132.263 147.621 133.811C147.621 134.508 147.311 134.875 146.633 134.837C144.193 134.682 67.0368 136.346 64.7717 136.501C63.7841 136.501 63.2222 135.96 63.2222 134.837C63.183 134.181 63.106 133.524 63.1249 132.865L63.165 132.884ZM44.089 156.919L43.5081 156.821C42.8677 156.712 42.2193 156.673 41.5709 156.705C39.9822 156.898 38.4138 157.228 36.8264 157.421V157.422C35.6714 157.422 34.7352 156.487 34.7352 155.332C34.7271 153.929 34.8055 152.526 34.9676 151.133C35.0851 150.815 35.3539 150.576 35.6835 150.495C36.2442 150.441 36.8075 150.441 37.3681 150.495C37.3681 150.379 42.7136 150.34 45.3858 150.495C45.5912 150.464 45.8006 150.464 46.0059 150.495C44.9185 152.476 44.2646 154.665 44.089 156.919ZM57.0645 166.072C55.0841 165.885 53.259 164.924 51.985 163.398C50.7124 161.872 50.0937 159.904 50.2666 157.925C50.2247 155.949 50.9704 154.038 52.3402 152.611C53.71 151.184 55.5905 150.361 57.5681 150.32C59.5431 150.507 61.3667 151.465 62.6394 152.986C63.912 154.509 64.532 156.472 64.3658 158.448C64.4118 160.429 63.6661 162.349 62.2922 163.781C60.917 165.212 59.0298 166.037 57.0453 166.072L57.0645 166.072ZM78.6585 151.133C77.6521 151.811 76.7213 152.449 75.6176 153.069V153.068C75.0529 153.381 74.5261 153.757 74.0492 154.191C73.3643 155.021 72.2741 155.401 71.2218 155.177C70.9246 155.304 70.6206 155.414 70.3113 155.507C70.0492 153.791 69.5061 152.129 68.7037 150.59C68.8699 150.446 69.0698 150.346 69.2846 150.3C70.3883 150.3 71.5122 150.435 72.6348 150.416C73.7588 150.397 75.3461 150.184 76.7212 150.184C77.3007 150.142 77.8843 150.142 78.4638 150.184C78.6678 150.217 78.8407 150.346 78.9286 150.532C78.9488 150.766 78.8463 150.993 78.6585 151.133ZM119.83 152.816C119.618 153.657 119.52 154.523 119.539 155.391C119.539 156.164 119.172 156.28 118.512 156.242V156.241C116.993 156.01 115.613 155.225 114.64 154.035C113.807 153.223 112.955 152.468 112.121 151.656C111.95 151.418 111.812 151.158 111.715 150.881L112.296 150.63C114.6 150.63 116.692 150.765 118.784 150.881C120.236 150.959 120.353 151.365 119.83 152.835L119.83 152.816ZM132.205 165.666C130.229 165.479 128.407 164.521 127.132 162.998C125.86 161.477 125.24 159.514 125.407 157.538C125.371 155.569 126.117 153.666 127.481 152.243C128.845 150.822 130.718 149.998 132.689 149.952C134.665 150.139 136.487 151.098 137.76 152.62C139.033 154.141 139.654 156.103 139.487 158.08C139.523 160.049 138.777 161.954 137.413 163.375C136.049 164.796 134.175 165.62 132.205 165.666ZM147.699 148.037H147.697C147.564 149.037 147.518 150.047 147.562 151.055C147.641 152.598 147.064 154.102 145.974 155.196C145.974 155.196 145.606 155.08 145.451 154.925V154.926C145.285 154.056 145.044 153.201 144.735 152.371C144.619 151.907 144.542 151.442 144.463 150.978C144.416 150.437 144.575 149.897 144.909 149.469C145.413 148.888 145.374 148.54 144.793 148.192C144.557 148.01 144.276 147.895 143.98 147.863C142.469 147.863 141.598 146.837 140.785 145.676H140.783C139.701 144.229 138.19 143.16 136.466 142.619C136.338 142.596 136.207 142.596 136.078 142.619H129.978C128.5 142.716 127.114 143.373 126.105 144.457C125.062 145.652 123.651 146.468 122.095 146.779C121.786 146.779 67.5403 146.005 66.7069 146.082C65.9949 146.154 65.2763 146.047 64.6157 145.773C64.1645 145.438 63.693 145.135 63.2013 144.863C61.2533 142.968 58.453 142.234 55.8227 142.928C54.6879 143.095 53.5815 143.415 52.5305 143.877C51.1621 144.654 49.9314 145.656 48.89 146.837L48.5414 147.166C47.7822 147.823 46.6718 147.879 45.8491 147.301C44.3185 146.47 37.8313 146.605 36.1658 146.47C35.7957 146.329 35.5241 146.007 35.4499 145.618C35.5215 144.271 35.7349 142.934 36.0888 141.632C36.4117 141.053 36.9831 140.653 37.6383 140.548C39.866 140.2 145.548 137.665 146.827 137.742C147.118 137.742 147.601 138.322 147.622 138.689C147.815 141.166 147.931 143.643 148.009 146.139V146.14C147.941 146.784 147.836 147.424 147.699 148.056L147.699 148.037ZM148.008 122.358C148.008 123.152 147.699 123.384 146.962 123.422C145.2 123.538 98.024 126.556 95.0602 126.537L95.0589 126.538C94.6631 126.587 94.2686 126.439 94.0011 126.142C93.735 125.845 93.631 125.436 93.7228 125.048C93.916 122.88 93.7228 120.733 94.0133 118.585C94.0133 118.179 148.067 115.335 148.025 116.766V118.353C147.974 119.707 147.96 121.056 147.986 122.397L148.008 122.358ZM160.848 101.169C159.338 101.382 155.735 101.498 155.465 101.498C153.412 101.498 153.219 101.498 152.503 99.2925H152.501C152.526 98.9659 152.707 98.6702 152.985 98.4988C153.75 98.3112 154.526 98.1816 155.308 98.1114L159.685 97.6471C160.238 97.5809 160.793 97.7537 161.208 98.1249C161.624 98.4947 161.859 99.0266 161.855 99.5827C161.932 100.491 161.583 101.092 160.828 101.208L160.848 101.169ZM185.677 98.3044C182.81 98.8457 170.9 100.491 169.467 100.51L169.466 100.511C168.751 100.465 168.051 100.274 167.412 99.9499C167.177 99.7096 167.071 99.3721 167.122 99.0401C167.645 97.7632 168.245 96.5443 169.717 96.389C170.763 96.2729 182.188 95.2093 183.893 94.8988C184.881 94.5816 185.959 94.9609 186.528 95.8275C187.283 97.0086 186.915 98.0925 185.656 98.3435L185.677 98.3044ZM196.038 107.341C196.038 107.341 195.05 96.737 195.069 96.4267C195.069 94.9554 194.663 89.7316 194.895 89.6736C195.127 89.6155 196.522 93.3316 197.432 93.3896C199.621 93.5638 202.099 93.1183 200.705 94.7826C200.183 95.4211 198.498 96.2728 197.781 97.1043C197.063 97.9372 196.599 107.613 196.018 107.38L196.038 107.341ZM60.8183 158.487C60.8656 159.484 60.5076 160.457 59.8254 161.186C59.1432 161.915 58.1949 162.338 57.1966 162.358C55.1526 162.164 53.6476 160.357 53.8274 158.312C53.7801 157.316 54.1381 156.343 54.8203 155.614C55.5025 154.885 56.4508 154.463 57.4492 154.443C59.4931 154.637 60.9981 156.443 60.8183 158.487ZM135.787 157.636C135.835 158.632 135.477 159.606 134.795 160.335C134.112 161.063 133.164 161.486 132.166 161.506C131.173 161.409 130.26 160.918 129.63 160.144C129.001 159.369 128.707 158.376 128.815 157.384C128.768 156.388 129.126 155.414 129.808 154.686C130.491 153.957 131.439 153.534 132.437 153.514C133.43 153.611 134.343 154.102 134.973 154.876C135.602 155.651 135.896 156.644 135.787 157.636Z" fill="#00005E"/>
</svg>
