<svg width="236" height="236" viewBox="0 0 236 236" fill="none" xmlns="http://www.w3.org/2000/svg">
<circle cx="118" cy="118" r="113" fill="#5D82AC" stroke="#D4AF37" stroke-width="10"/>
<path fill-rule="evenodd" clip-rule="evenodd" d="M164.674 101.471L181.14 161.488L188 161.487V173.798H48V161.487H53.5548L70.6357 101.471H69.5375V95.3148H80.307V101.471H86.4612V95.3148H98.7686V101.471H104.923V95.3148H117.23V63H120.307V95.3156H131.076V101.471H137.231V95.3156H149.538V101.471H152.615V95.3156H164.922V101.471H164.674ZM89.5395 126.094H92.6162V113.783H89.5395V126.094ZM117.232 126.094H120.309V113.783H117.232V126.094ZM140.309 126.094H143.386V113.783H140.309V126.094Z" fill="#D4AF37"/>
<path d="M116.712 77.6017V63.8593L93.5218 75.6986L116.712 77.6017Z" fill="#D4AF37"/>
</svg>
