<svg width="236" height="236" viewBox="0 0 236 236" fill="none" xmlns="http://www.w3.org/2000/svg">
<circle cx="118" cy="118" r="113" fill="#030374" stroke="#D4AF37" stroke-width="10"/>
<ellipse cx="118" cy="118.5" rx="104" ry="103.5" stroke="#D4AF37" stroke-width="2"/>
<path d="M142.091 56H158V58.9441H142.091V56Z" fill="#D4AF37"/>
<path d="M143.682 61.8893H156.409V64.8334H143.682V61.8893Z" fill="#D4AF37"/>
<path d="M95.3182 91.3335L121.886 71.0168C122.522 70.5752 123.318 70.5752 123.955 71.0168L150.683 91.3335H156.887L123.001 65.2752L89.2736 91.3335H95.3182Z" fill="#D4AF37"/>
<path d="M158 136.972H164.363V142.86H158V136.972Z" fill="#D4AF37"/>
<path d="M164.363 120.778H158V126.666H164.363V120.778Z" fill="#D4AF37"/>
<path d="M181.863 104.583H175.5V110.472H181.863V104.583Z" fill="#D4AF37"/>
<path d="M181.863 120.778H175.5V126.666H181.863V120.778Z" fill="#D4AF37"/>
<path d="M175.5 136.972H181.863V142.86H175.5V136.972Z" fill="#D4AF37"/>
<path d="M164.363 104.583H158V110.472H164.363V104.583Z" fill="#D4AF37"/>
<path fill-rule="evenodd" clip-rule="evenodd" d="M151.636 94.2779V156.11H188.227V94.2779H151.636ZM167.546 144.333C167.546 145.216 166.91 145.805 165.954 145.805H156.408C155.454 145.805 154.817 145.217 154.817 144.333V135.499C154.817 134.616 155.453 134.026 156.408 134.026H165.954C166.909 134.026 167.546 134.615 167.546 135.499V144.333ZM167.546 128.139C167.546 129.022 166.91 129.612 165.954 129.612H156.408C155.454 129.612 154.817 129.023 154.817 128.139V119.305C154.817 118.422 155.453 117.833 156.408 117.833H165.954C166.909 117.833 167.546 118.421 167.546 119.305V128.139ZM172.319 103.112C172.319 102.229 172.954 101.639 173.91 101.639H183.456C184.41 101.639 185.047 102.228 185.047 103.112V111.946C185.047 112.829 184.411 113.418 183.456 113.418H173.91C172.956 113.418 172.319 112.83 172.319 111.946V103.112ZM172.319 119.306C172.319 118.422 172.954 117.833 173.91 117.833H183.456C184.41 117.833 185.047 118.421 185.047 119.306V128.139C185.047 129.023 184.411 129.612 183.456 129.612H173.91C172.956 129.612 172.319 129.024 172.319 128.139V119.306ZM172.319 135.5C172.319 134.617 172.954 134.028 173.91 134.028H183.456C184.41 134.028 185.047 134.616 185.047 135.5V144.334C185.047 145.217 184.411 145.807 183.456 145.807H173.91C172.956 145.807 172.319 145.218 172.319 144.334V135.5ZM167.546 103.112V111.946C167.546 112.829 166.91 113.418 165.954 113.418H156.408C155.454 113.418 154.817 112.83 154.817 111.946V103.112C154.817 102.229 155.453 101.639 156.408 101.639H165.954C166.909 101.639 167.546 102.228 167.546 103.112Z" fill="#D4AF37"/>
<path d="M190.455 91.3334L162.137 67.7776H131.273L161.819 91.3334H190.455Z" fill="#D4AF37"/>
<path d="M53 159.055H193V162H53V159.055Z" fill="#D4AF37"/>
<path d="M70.4994 136.972H64.1363V142.86H70.4994V136.972Z" fill="#D4AF37"/>
<path d="M64.1363 120.778H70.4994V126.666H64.1363V120.778Z" fill="#D4AF37"/>
<path d="M70.4994 104.583H64.1363V110.472H70.4994V104.583Z" fill="#D4AF37"/>
<path d="M87.9994 136.972H81.6363V142.86H87.9994V136.972Z" fill="#D4AF37"/>
<path d="M81.6363 120.778H87.9994V126.666H81.6363V120.778Z" fill="#D4AF37"/>
<path d="M81.6363 104.583H87.9994V110.472H81.6363V104.583Z" fill="#D4AF37"/>
<path fill-rule="evenodd" clip-rule="evenodd" d="M57.7727 156.11V94.2779H94.3636V156.11H57.7727ZM72.0904 145.805C73.0459 145.805 73.6818 145.216 73.6818 144.333V135.499C73.6818 134.615 73.0448 134.026 72.0904 134.026H62.5444C61.5889 134.026 60.953 134.616 60.953 135.499V144.333C60.953 145.217 61.59 145.805 62.5444 145.805H72.0904ZM72.0904 129.612C73.0459 129.612 73.6818 129.022 73.6818 128.139V119.305C73.6818 118.421 73.0448 117.833 72.0904 117.833H62.5444C61.5889 117.833 60.953 118.422 60.953 119.305V128.139C60.953 129.023 61.59 129.612 62.5444 129.612H72.0904ZM72.0904 113.417C73.0459 113.417 73.6818 112.827 73.6818 111.944V103.111C73.6818 102.226 73.0448 101.638 72.0904 101.638H62.5444C61.5889 101.638 60.953 102.227 60.953 103.111V111.944C60.953 112.829 61.59 113.417 62.5444 113.417H72.0904ZM89.591 145.805C90.5465 145.805 91.1824 145.216 91.1824 144.333V135.499C91.1824 134.615 90.5454 134.026 89.591 134.026H80.045C79.0895 134.026 78.4536 134.616 78.4536 135.499V144.333C78.4536 145.217 79.0906 145.805 80.045 145.805H89.591ZM89.591 129.612C90.5465 129.612 91.1824 129.022 91.1824 128.139V119.305C91.1824 118.421 90.5454 117.833 89.591 117.833H80.045C79.0895 117.833 78.4536 118.422 78.4536 119.305V128.139C78.4536 129.023 79.0906 129.612 80.045 129.612H89.591ZM91.1824 111.946V103.112C91.1824 102.228 90.5465 101.639 89.591 101.639H80.045C79.0895 101.639 78.4536 102.229 78.4536 103.112V111.946C78.4536 112.83 79.0906 113.418 80.045 113.418H89.591C90.5465 113.418 91.1824 112.829 91.1824 111.946Z" fill="#D4AF37"/>
<path d="M84.1818 91.3334L114.727 67.7776H83.8637L55.5455 91.3334H84.1818Z" fill="#D4AF37"/>
<path d="M103.909 110.472H118.227V113.416H103.909V110.472Z" fill="#D4AF37"/>
<path d="M142.09 110.472H127.773V113.416H142.09V110.472Z" fill="#D4AF37"/>
<path fill-rule="evenodd" clip-rule="evenodd" d="M148.455 156.11V93.5417L122.999 74.1091L97.5444 93.5417V156.11H113.453V132.556C113.453 127.697 117.749 123.722 122.999 123.722C128.25 123.722 132.545 127.697 132.545 132.556V156.111L148.455 156.11ZM121.408 114.889C121.408 115.772 120.772 116.362 119.817 116.362H102.317C101.363 116.362 100.726 115.773 100.726 114.889V109.001C100.726 108.118 101.362 107.528 102.317 107.528H119.818C120.772 107.528 121.409 108.117 121.409 109.001L121.408 114.889ZM126.181 116.362C125.226 116.362 124.589 115.773 124.589 114.889V109.001C124.589 108.118 125.225 107.528 126.181 107.528H143.681C144.636 107.528 145.273 108.117 145.273 109.001V114.889C145.273 115.772 144.637 116.362 143.681 116.362H126.181Z" fill="#D4AF37"/>
<path d="M116.636 156.111V132.555H116.637C116.637 129.316 119.5 126.666 123 126.667C126.5 126.667 129.363 129.316 129.363 132.555L129.364 156.111H116.636Z" fill="#D4AF37"/>
</svg>
