<svg width="246" height="246" viewBox="0 0 246 246" fill="none" xmlns="http://www.w3.org/2000/svg">
<circle cx="123" cy="123" r="118" fill="#333333" stroke="#D4AF37" stroke-width="10"/>
<path d="M183.928 98.4306V90.95H149.085V79.2152H153.33V77.308C153.33 67.6267 139.716 60 122.148 60C104.58 60 90.9647 67.6277 90.9647 77.308V79.2152H95.2097V90.95H60.3669V98.4306H57V102.098H60.3669V166.345H72.518V157.397H79.3987V166.345H91.2567V130.994C91.2567 127.767 93.8913 125.273 96.9662 125.273C98.4306 125.273 99.8939 125.86 101.065 127.033C102.091 128.061 102.822 129.527 102.822 131.14V166.491H116.29V131.14C116.29 127.913 118.925 125.42 122 125.42C123.464 125.42 124.928 126.006 126.099 127.18C127.124 128.207 127.856 129.673 127.856 131.287V166.637H141.324V131.287C141.324 128.06 143.959 125.566 147.034 125.566C148.498 125.566 149.962 126.152 151.133 127.326C152.304 128.5 152.889 129.82 152.889 131.433V166.784H164.747V157.836H171.628V166.784H183.779V102.537H187V98.8697L183.929 98.8707L183.928 98.4306ZM137.227 90.8028V88.4557H145.425V90.8028H137.227ZM110.875 79.3616H133.567V84.9358H110.875V79.3616ZM110.875 88.4557H133.567V90.8028H110.875V88.4557ZM99.0174 88.4557H107.215V90.8028H99.0174V88.4557ZM145.426 102.098V105.765H99.0174V102.098H145.426ZM64.1746 102.098H95.3574V105.765H64.1746V102.098ZM79.5467 153.73H72.6659V135.835H79.5467V153.73ZM171.778 153.73H164.897V135.835H171.778V153.73ZM180.269 105.765H149.086V102.098H180.269V105.765Z" fill="#D4AF37"/>
<path d="M58.904 168.545H117.902V172.212H58.904V168.545Z" fill="#D4AF37"/>
<path d="M119.806 168.545H131.664V172.212H119.806V168.545Z" fill="#D4AF37"/>
<path d="M134.738 168.545H185.539V172.212H134.738V168.545Z" fill="#D4AF37"/>
<path d="M70.9086 174.999H82.3277V178.666H70.9086V174.999Z" fill="#D4AF37"/>
<path d="M84.3773 174.999H166.507V178.666H84.3773V174.999Z" fill="#D4AF37"/>
<path d="M58.904 182.333H176.023V186H58.904V182.333Z" fill="#D4AF37"/>
<path d="M179.975 182.333H185.539V186H179.975V182.333Z" fill="#D4AF37"/>
</svg>
