<svg width="246" height="246" viewBox="0 0 246 246" fill="none" xmlns="http://www.w3.org/2000/svg">
<circle cx="123" cy="123" r="118" fill="#333333" stroke="#D4AF37" stroke-width="10"/>
<path d="M93.7916 159.264H100.036V171.743H93.7916V159.264Z" fill="#D4AF37"/>
<path d="M118.049 101.79V92.2112H69.7964V114.721H102.302C105.343 108.251 111.128 103.501 118.05 101.79H118.049ZM96.3697 111.848H76.0128V94.9474H112.744C104.141 101.311 100.922 102.953 96.369 111.848H96.3697Z" fill="#D4AF37"/>
<path d="M177.455 114.72V92.21H129.242V101.789C136.148 103.51 141.917 108.259 144.949 114.72H177.455ZM171.223 94.9462V111.847H150.88C146.326 102.952 143.108 101.309 134.519 94.9737L171.223 94.9462Z" fill="#D4AF37"/>
<path d="M69.7964 159.264H76.0277V171.743H69.7964V159.264Z" fill="#D4AF37"/>
<path d="M100.037 125.983H69.7964V151.053H76.0277L76.0268 138.423C76.2624 135.41 78.0017 132.722 80.6468 131.28C83.2927 129.839 86.4855 129.839 89.1316 131.28C91.7775 132.722 93.516 135.41 93.7516 138.423V151.053H99.9959L100.037 125.983Z" fill="#D4AF37"/>
<path d="M147.212 159.264H153.456V171.743H147.212V159.264Z" fill="#D4AF37"/>
<path d="M177.452 151.053V125.983H147.212V151.053H153.497V138.423C153.733 135.41 155.472 132.722 158.118 131.28C160.763 129.839 163.957 129.839 166.602 131.28C169.248 132.722 170.987 135.41 171.223 138.423V151.053H177.452Z" fill="#D4AF37"/>
<path d="M171.223 159.264H177.455V171.743H171.223V159.264Z" fill="#D4AF37"/>
<path d="M168.496 109.097V97.685H142.834C146.904 100.686 150.227 104.592 152.542 109.097H168.496Z" fill="#D4AF37"/>
<path d="M78.7391 109.097H94.7188C97.0297 104.594 100.348 100.688 104.413 97.685H78.7391V109.097Z" fill="#D4AF37"/>
<path d="M126.514 101.297V92.2117H120.774V101.285V101.284C122.682 101.059 124.609 101.064 126.514 101.297Z" fill="#D4AF37"/>
<path d="M156.225 138.423V151.053H168.496V138.423C168.302 136.36 167.091 134.532 165.273 133.552C163.454 132.574 161.266 132.574 159.447 133.552C157.629 134.532 156.418 136.36 156.225 138.423Z" fill="#D4AF37"/>
<path d="M156.182 159.264H168.495V171.743H156.182V159.264Z" fill="#D4AF37"/>
<path d="M89.2642 134.057C88.1092 132.902 86.5442 132.253 84.9127 132.254C83.282 132.255 81.7171 132.904 80.5622 134.06C79.4081 135.216 78.7571 136.785 78.7526 138.423V151.053H91.0237V138.423C91.0346 136.791 90.4028 135.222 89.2643 134.057L89.2642 134.057Z" fill="#D4AF37"/>
<path d="M78.7531 159.264H91.0653V171.743H78.7531V159.264Z" fill="#D4AF37"/>
<path d="M102.762 125.983H107.48V171.744H102.762V125.983Z" fill="#D4AF37"/>
<path d="M137.042 115.79C138.405 114.503 139.905 114.722 141.896 114.722C139.491 110.318 135.587 106.929 130.896 105.176C126.206 103.423 121.045 103.423 116.354 105.176C111.664 106.929 107.76 110.318 105.355 114.722C107.441 114.722 108.846 114.503 110.25 115.735C113.262 111.272 118.288 108.601 123.66 108.612C129.032 108.623 134.047 111.314 137.042 115.79L137.042 115.79Z" fill="#D4AF37"/>
<path d="M139.767 125.983H144.485V171.744H139.767V125.983Z" fill="#D4AF37"/>
<path d="M109.541 121.577L108.941 118.581V118.58C108.821 117.922 108.244 117.447 107.578 117.458H68.378C67.7106 117.447 67.1344 117.922 67.0139 118.58L66.4141 121.576V121.577C66.3219 121.989 66.4232 122.419 66.6898 122.746C66.9564 123.072 67.3572 123.257 67.7772 123.246H108.164C108.587 123.261 108.992 123.078 109.262 122.751C109.531 122.425 109.634 121.991 109.541 121.577H109.541Z" fill="#D4AF37"/>
<path d="M180.958 121.577L180.358 118.581V118.58C180.239 117.922 179.662 117.447 178.995 117.458H139.863C139.197 117.447 138.62 117.922 138.5 118.58L137.9 121.576V121.577C137.807 121.989 137.91 122.419 138.175 122.746C138.442 123.072 138.844 123.257 139.264 123.246H179.595C180.015 123.257 180.416 123.072 180.682 122.746C180.949 122.419 181.05 121.989 180.958 121.577H180.958Z" fill="#D4AF37"/>
<path d="M181.477 80.4424H65.7878C65.1304 80.4379 64.516 80.7714 64.1599 81.3258C63.8029 81.8811 63.7536 82.5794 64.0293 83.1796L66.3338 88.3525V88.3515C66.647 89.0425 67.3363 89.4823 68.0923 89.4741H179.172C179.934 89.4741 180.623 89.0232 180.931 88.325L183.235 83.1521C183.498 82.5546 183.443 81.8655 183.088 81.3185C182.733 80.7723 182.127 80.4424 181.477 80.4424L181.477 80.4424Z" fill="#D4AF37"/>
<path d="M69.7964 68.2228V77.7053H177.508V68.2228H69.7964ZM79.531 74.9139C79.531 75.6699 78.9201 76.2821 78.1678 76.2821C77.4146 76.2821 76.8038 75.6699 76.8038 74.9139V71.0001C76.8038 70.2441 77.4146 69.632 78.1678 69.632C78.9202 69.632 79.531 70.2441 79.531 71.0001V74.9139ZM90.9017 74.9139C90.9017 75.6699 90.2918 76.2821 89.5386 76.2821C88.7853 76.2821 88.1754 75.6699 88.1754 74.9139V71.0001C88.1754 70.2441 88.7853 69.632 89.5386 69.632C90.2918 69.632 90.9017 70.2441 90.9017 71.0001V74.9139ZM102.259 74.9139H102.26C102.26 75.6699 101.649 76.2821 100.897 76.2821C100.143 76.2821 99.5326 75.6699 99.5326 74.9139V71.0001C99.5326 70.2441 100.143 69.632 100.897 69.632C101.649 69.632 102.26 70.2441 102.26 71.0001L102.259 74.9139ZM113.63 74.9139H113.631C113.631 75.6699 113.021 76.2821 112.267 76.2821C111.514 76.2821 110.904 75.6699 110.904 74.9139V71.0001C110.904 70.2441 111.514 69.632 112.267 69.632C113.021 69.632 113.631 70.2441 113.631 71.0001L113.63 74.9139ZM124.987 74.9139H124.989C124.989 75.6699 124.378 76.2821 123.625 76.2821C122.872 76.2821 122.261 75.6699 122.261 74.9139V71.0001C122.261 70.2441 122.872 69.632 123.625 69.632C124.378 69.632 124.989 70.2441 124.989 71.0001L124.987 74.9139ZM136.344 74.9139H136.346C136.346 75.6699 135.736 76.2821 134.983 76.2821C134.229 76.2821 133.62 75.6699 133.62 74.9139V71.0001C133.62 70.2441 134.229 69.632 134.983 69.632C135.736 69.632 136.346 70.2441 136.346 71.0001L136.344 74.9139ZM147.715 74.9139H147.717C147.717 75.6699 147.107 76.2821 146.353 76.2821C145.601 76.2821 144.99 75.6699 144.99 74.9139V71.0001C144.99 70.2441 145.601 69.632 146.353 69.632C147.107 69.632 147.717 70.2441 147.717 71.0001L147.715 74.9139ZM159.072 74.9139H159.075C159.075 75.6699 158.464 76.2821 157.711 76.2821C156.958 76.2821 156.347 75.6699 156.347 74.9139V71.0001C156.347 70.2441 156.958 69.632 157.711 69.632C158.464 69.632 159.075 70.2441 159.075 71.0001L159.072 74.9139ZM170.443 74.9139H170.445C170.445 75.6699 169.835 76.2821 169.082 76.2821C168.329 76.2821 167.719 75.6699 167.719 74.9139V71.0001C167.719 70.2441 168.329 69.632 169.082 69.632C169.835 69.632 170.445 70.2441 170.445 71.0001L170.443 74.9139Z" fill="#D4AF37"/>
<path d="M65.5681 58H181.681C182.629 58 183.399 58.9521 183.399 59.7246V63.7611C183.399 64.7132 182.63 65.4857 181.681 65.4857H65.5681C64.6195 65.4857 63.8498 64.5336 63.8498 63.7611V59.7246C63.8498 58.7725 64.6186 58 65.5681 58Z" fill="#D4AF37"/>
<path d="M100.037 153.791H67.0547C66.3014 153.791 65.6915 154.403 65.6915 155.159C65.6915 155.915 66.3014 156.527 67.0547 156.527H100.037V153.791Z" fill="#D4AF37"/>
<path d="M181.557 155.158C181.557 154.795 181.413 154.447 181.158 154.191C180.902 153.934 180.555 153.79 180.194 153.79H147.211V156.527L180.194 156.526C180.555 156.526 180.902 156.383 181.158 156.126C181.413 155.869 181.557 155.521 181.557 155.158Z" fill="#D4AF37"/>
<path d="M184.64 185.263H181.422V174.48H136.795V185.263H110.208V174.48H65.5807V185.263H62.3631C61.6099 185.263 61 185.876 61 186.632C61 187.387 61.6099 188 62.3631 188H184.637C185.39 188 186 187.387 186 186.632C186 185.876 185.39 185.263 184.637 185.263H184.64Z" fill="#D4AF37"/>
</svg>
