<svg width="246" height="246" viewBox="0 0 246 246" fill="none" xmlns="http://www.w3.org/2000/svg">
<circle cx="123" cy="123" r="118" fill="#003AAA" stroke="#D4AF37" stroke-width="10"/>
<path d="M189.249 128.023L168.715 147.571L174.941 149.375C166.017 163.988 149.885 170.404 131.514 171.664V97.6235H148.552C149.984 99.0477 151.949 99.9181 154.121 99.9181C158.447 99.9181 161.976 96.4281 161.976 92.1123C161.976 87.797 158.447 84.2951 154.121 84.2951C151.949 84.2951 149.983 85.1752 148.552 86.5995L131.516 86.6V77.6738C139.805 74.4556 145.715 66.4747 145.715 57.1051C145.714 44.9259 135.754 35 123.499 35C111.245 35 101.285 44.9264 101.285 57.1037C101.285 67.1269 108.068 75.532 117.274 78.2277V86.5993H98.4344C97.0151 85.1751 95.0491 84.2949 92.8745 84.2949C88.5493 84.2949 85.0216 87.7969 85.0216 92.1121C85.0216 96.4274 88.5493 99.9179 92.8745 99.9179C95.0486 99.9179 97.015 99.0476 98.4344 97.6234H117.274V171.621C97.9088 170.186 81.0124 162.694 72.5376 146.877L78.7413 145.508L59.541 124.665L51 151.628L58.2407 150.03C68.8247 173.101 92.9282 191.681 120.168 193.476L124.396 202L128.612 193.498C154.517 191.769 177.564 174.818 188.978 153.465L196 155.509L189.249 128.023ZM112.107 57.1025C112.107 50.8497 117.218 45.7735 123.5 45.7735C129.779 45.7735 134.891 50.852 134.891 57.1025C134.891 63.353 129.779 68.4417 123.5 68.4417C117.219 68.4417 112.107 63.353 112.107 57.1025Z" fill="#D4AF37"/>
</svg>
