<svg width="236" height="236" viewBox="0 0 236 236" fill="none" xmlns="http://www.w3.org/2000/svg">
<circle cx="118" cy="118" r="113" fill="#FED586" stroke="black" stroke-width="10"/>
<path d="M163.204 108.211V97.3917C163.204 93.7852 162.379 90.2815 160.868 87.0873H161.486C166.227 87.0873 170.076 83.2401 170.076 78.5003C170.076 76.5775 169.423 74.7911 168.358 73.3481C169.423 71.9052 170.076 70.1188 170.076 68.1959C170.076 63.4563 166.227 59.6089 161.486 59.6089H155.988C154.373 51.778 147.432 45.8697 139.151 45.8697C137.021 45.8697 134.959 46.2469 133 47.0029C129.908 42.0913 124.479 39 118.535 39C115.476 39 112.555 39.825 109.944 41.3706C107.333 39.825 104.413 39 101.354 39C95.718 39 90.5992 41.7141 87.4042 46.2131C86.3381 45.9723 85.2383 45.8696 84.1737 45.8696C75.8932 45.8696 68.9519 51.7779 67.3367 59.6088H61.839C57.0975 59.6088 53.2487 63.4561 53.2487 68.1958C53.2487 70.1187 53.9022 71.9051 54.9668 73.348C53.9022 74.791 53.2487 76.5774 53.2487 78.5002C53.2487 83.2399 57.0975 87.0872 61.839 87.0872H62.5599C61.0137 90.3166 60.1209 93.7849 60.1209 97.3916V153.55C60.1209 156.298 59.0563 158.873 57.0975 160.797C52.6643 165.262 51.7026 172.165 54.8303 177.25C56.6511 180.238 59.5717 182.333 62.974 183.123C63.9711 183.363 64.9666 183.466 65.9637 183.466C68.4028 183.466 70.7743 182.813 72.8697 181.474L73.9006 180.856C75.8932 179.585 78.3337 179.105 80.7728 179.413C94.379 181.234 108.331 181.818 122.246 181.165C130.422 190.851 142.655 197 156.331 197C180.968 197 201 176.975 201 152.348C201 130.055 184.576 111.542 163.203 108.209L163.204 108.211ZM61.8408 80.2177C60.879 80.2177 60.1227 79.4618 60.1227 78.5003C60.1227 77.5389 60.879 76.7829 61.8408 76.7829C63.7306 76.7829 65.2769 75.2373 65.2769 73.3481C65.2769 71.459 63.7306 69.9133 61.8408 69.9133C60.879 69.9133 60.1227 69.1574 60.1227 68.1959C60.1227 67.2345 60.879 66.4785 61.8408 66.4785H161.488C162.45 66.4785 163.206 67.2345 163.206 68.1959C163.206 69.1574 162.45 69.9133 161.488 69.9133C159.598 69.9133 158.052 71.459 158.052 73.3481C158.052 75.2373 159.598 76.7829 161.488 76.7829C162.45 76.7829 163.206 77.5389 163.206 78.5003C163.206 79.4618 162.45 80.2177 161.488 80.2177H61.8408ZM112.42 144.176C111.939 143.591 111.664 142.836 111.664 142.046C111.664 140.157 110.118 138.611 108.228 138.611C106.338 138.611 104.792 140.157 104.792 142.046L104.861 142.492C105.033 143.9 104.345 145.274 103.109 145.961C102.044 146.545 100.67 146.579 99.6392 145.961C97.2661 144.588 94.4835 146.442 94.4835 148.915H111.836C111.698 150.049 111.664 151.182 111.664 152.35C111.664 153.519 111.698 154.652 111.836 155.785H77.3029C75.4131 155.785 73.8668 154.239 73.8668 152.35C73.8668 150.461 75.4131 148.915 77.3029 148.915H87.6113C87.6113 143.042 92.5938 138.268 98.5039 138.611C99.5347 135.658 101.94 133.321 104.894 132.29C104.861 132.118 104.792 131.947 104.792 131.741V124.872H101.355C91.8725 124.872 84.1749 117.177 84.1749 107.698C84.1749 105.808 85.7211 104.263 87.611 104.263H94.4832C98.881 104.263 102.868 105.98 105.891 108.694C108.297 102.133 114.585 97.3932 121.972 97.3932H128.844C130.734 97.3932 132.28 98.9389 132.28 100.828C132.28 110.307 124.583 118.002 115.1 118.002H111.664V131.741C111.664 131.947 111.595 132.118 111.561 132.325C112.969 132.841 114.241 133.63 115.307 134.661C114 137.683 113.038 140.877 112.42 144.175L112.42 144.176ZM156.332 190.131C135.474 190.131 118.535 173.198 118.535 152.349C118.535 131.499 135.474 114.566 156.332 114.566C177.189 114.566 194.129 131.499 194.129 152.349C194.129 173.198 177.189 190.131 156.332 190.131Z" fill="black"/>
<path d="M156.332 121.436C139.289 121.436 125.407 135.314 125.407 152.349C125.407 169.385 139.289 183.263 156.332 183.263C173.374 183.263 187.257 169.385 187.257 152.349C187.257 135.314 173.374 121.436 156.332 121.436ZM156.332 148.915C162.963 148.915 168.358 154.307 168.358 160.936C168.358 166.363 164.716 170.897 159.768 172.409V176.393C159.768 178.282 158.222 179.828 156.332 179.828C154.442 179.828 152.896 178.282 152.896 176.393V172.409C147.947 170.897 144.305 166.365 144.305 160.936C144.305 159.047 145.852 157.502 147.741 157.502C149.631 157.502 151.178 159.047 151.178 160.936C151.178 163.787 153.48 166.089 156.332 166.089C159.183 166.089 161.486 163.787 161.486 160.936C161.486 158.086 159.183 155.784 156.332 155.784C149.7 155.784 144.305 150.391 144.305 143.762C144.305 138.336 147.947 133.801 152.896 132.289V128.306C152.896 126.417 154.442 124.871 156.332 124.871C158.222 124.871 159.768 126.417 159.768 128.306V132.289C164.717 133.801 168.358 138.334 168.358 143.762C168.358 145.651 166.812 147.197 164.922 147.197C163.032 147.197 161.486 145.651 161.486 143.762C161.486 140.912 159.183 138.61 156.332 138.61C153.48 138.61 151.178 140.912 151.178 143.762C151.178 146.613 153.48 148.915 156.332 148.915Z" fill="black"/>
</svg>
