<svg width="246" height="246" viewBox="0 0 246 246" fill="none" xmlns="http://www.w3.org/2000/svg">
<circle cx="123" cy="123" r="118" fill="#D00000" stroke="#00005E" stroke-width="10"/>
<path fill-rule="evenodd" clip-rule="evenodd" d="M137.678 67.7667C137.678 67.3433 137.334 67 136.911 67C136.487 67 136.144 67.3433 136.144 67.7667V69.9845L110.937 77.9302V75.8176C110.937 75.3412 110.551 74.955 110.075 74.955C109.598 74.955 109.212 75.3412 109.212 75.8176V78.6803L40.1719 124.96L39.1269 124.404C38.753 124.205 38.2887 124.347 38.0899 124.721C37.8911 125.095 38.033 125.559 38.4069 125.758L62.4927 138.566C62.5646 138.669 62.6613 138.758 62.7799 138.822L63.1814 139.038L62.9195 139.22L63.6991 139.316L69.7578 142.573C70.4717 143.114 71.3084 143.772 72.2086 144.526C72.1612 144.552 72.1156 144.58 72.0721 144.612C70.9343 145.447 71.5862 148.269 73.5282 150.915C75.4702 153.56 77.9668 155.028 79.1046 154.193C79.5943 153.833 79.7525 153.106 79.619 152.183C79.9475 152.632 80.2607 153.087 80.5547 153.547C82.3639 156.379 83.5104 158.468 84.4458 160.172C85.7899 162.622 86.6981 164.277 88.5097 166.198C91.5822 169.457 98.4775 170.511 98.4775 170.511C98.4775 170.511 94.2383 169.377 90.9058 166.582C88.8199 164.832 87.2642 161.688 86.7846 160.064C85.5386 155.847 86.1136 152.205 86.1136 152.205L76.1525 146.177C76 146.032 75.8471 145.894 75.6945 145.764L86.9366 151.808V154.939C86.9356 155.737 87.0025 156.536 87.1363 157.324C87.1363 157.445 87.1592 157.564 87.2021 157.677C87.293 158.228 87.4188 158.773 87.5775 159.309L88.8814 159.466C88.8838 159.466 88.8878 159.466 88.8936 159.467C88.9054 159.468 88.9244 159.47 88.9503 159.472C89.0313 159.48 89.18 159.495 89.3896 159.509C93.0547 159.821 116.024 161.697 142.681 161.697C157.408 161.719 172.11 160.575 186.654 158.274L186.655 158.275C186.87 158.24 187.033 158.212 187.143 158.193L187.143 158.193L187.144 158.193C187.173 158.188 187.198 158.184 187.219 158.18C187.236 158.177 187.251 158.175 187.264 158.173C187.294 158.168 187.312 158.165 187.317 158.165L188.355 157.878C188.589 156.846 189.112 155.904 189.863 155.161C190.615 154.417 191.562 153.904 192.595 153.681C193.629 153.457 194.516 152.398 194.516 152.398V147.45L193.169 147.433V143.458C193.175 143.201 193.061 142.956 192.859 142.796C192.649 142.644 192.382 142.595 192.132 142.661V142.662L192.128 142.663L192.124 142.664C192.118 142.666 192.109 142.668 192.097 142.671C192.082 142.675 192.063 142.68 192.04 142.686L191.958 142.708C190.818 143.013 184.221 144.777 175.536 146.507V143.412C175.709 143.551 175.943 143.615 176.183 143.561L197.4 138.807C197.883 138.699 198.139 138.168 197.922 137.723L188.336 118.028L188.391 118.002L181.191 102.859V101.705C181.191 101.193 180.722 100.868 180.282 100.949L178.699 97.6191V90.4487C178.699 89.7483 177.837 89.4146 177.365 89.9323L175.839 91.6065L175.536 90.9678V88.469C175.536 87.9926 175.15 87.6064 174.673 87.6064C174.197 87.6064 173.811 87.9926 173.811 88.469V89.3058L137.678 70.3175V67.7667ZM178.699 101.636V102.239L178.899 102.057L178.699 101.636ZM181.191 106.877V118.355C181.191 118.677 180.988 118.966 180.685 119.076L175.536 120.942V123.69C175.57 123.663 175.607 123.638 175.646 123.617L186.353 117.732L181.191 106.877ZM80.476 141.375L68.2337 139.872L69.8362 140.734L77.7871 144.962L77.8501 144.911L77.5612 144.507L84.63 139.454L104.688 123.31L105.309 110.777L80.476 141.375ZM86.9375 149.827L78.9937 145.603L79.4244 145.295L89.636 146.742L101.997 129.161L104.487 127.382L103.55 146.283C103.528 146.712 103.838 147.086 104.263 147.144L104.262 147.143L109.132 147.821L109.134 149.064C101.25 148.489 93.8952 147.694 87.8879 146.745C87.6473 146.699 87.4007 146.772 87.225 146.943C87.0443 147.098 86.9395 147.325 86.9375 147.563V149.827ZM129.937 147.316C123.57 138.399 119.014 125.239 116.939 118.481L118.599 117.295C121.573 125.047 125.372 132.466 129.937 139.423L129.937 147.316ZM129.939 136.385C125.992 130.006 122.671 123.274 120.014 116.284L129.939 109.19V136.385ZM119.392 114.608L132.305 105.378L133.572 103.777V84.8841C133.572 84.7434 133.608 84.6053 133.676 84.4823L115.949 103.41C116.911 107.202 118.061 110.939 119.392 114.608ZM141.457 102.887L141.386 102.908L141.236 121.314C141.407 122.22 144.801 139.883 156.697 149.348C159.099 149.15 161.368 148.908 163.483 148.622H163.486C150.242 135.09 144.061 114.665 141.457 102.887ZM146.536 101.412L143.05 102.425C145.651 114.244 151.92 135.065 165.532 148.332C165.561 148.325 165.593 148.32 165.625 148.316C165.664 148.31 165.703 148.305 165.737 148.294C167.394 148.027 169.051 147.742 170.641 147.451L170.639 147.45C159.037 134.394 151.342 116.293 146.536 101.412ZM142.69 100.733L146.012 99.7679C143.94 93.1658 142.448 87.2821 141.444 82.8767L141.433 82.8268V93.4404C141.444 93.5397 141.782 96.3345 142.69 100.733ZM172.542 147.102C160.742 134.209 152.948 115.951 148.111 100.955L173.811 93.4916V93.8329L170.848 97.0842C170.719 97.2254 170.648 97.4096 170.648 97.6006V107.922C170.648 108.456 171.173 108.814 171.657 108.65L168.598 111.435C168.438 111.58 168.347 111.786 168.347 112.002V122.454C168.347 122.986 168.876 123.356 169.376 123.175L173.779 121.579V146.859C173.563 146.907 173.341 146.948 173.116 146.99L173.115 146.99L173.115 146.991C172.925 147.026 172.733 147.062 172.542 147.102ZM147.588 99.3104L172.499 92.0762L143.015 82.324C144.009 86.7264 145.501 92.6534 147.588 99.3104ZM116.415 116.736L117.972 115.623C117.101 113.243 116.307 110.833 115.592 108.397L115.707 114.218C115.781 114.496 116.02 115.389 116.415 116.736ZM136.144 71.7934L110.937 79.739V84.9022L113.834 80.2815C114.243 79.6293 115.25 79.919 115.25 80.6888V84.4044L136.144 78.8475V71.7934ZM109.144 81.5696V86.3134L48.0089 129.127L41.8997 125.879L109.212 80.7572V81.2412C109.168 81.3419 109.144 81.4529 109.144 81.5696ZM49.8118 129.971L49.7184 130.036L63.3481 137.284C63.4222 137.3 63.4954 137.326 63.5656 137.364L64.3823 137.802L105.723 108.094L107.199 106.81V90.8651L108.41 88.934L102.867 92.816L70.7787 132.557L49.8118 129.971ZM134.511 81.0669L115.25 86.1895V100.922C115.259 100.932 115.268 100.943 115.277 100.954C115.302 100.992 115.325 101.033 115.343 101.076C115.382 101.142 115.413 101.214 115.432 101.288C115.442 101.328 115.451 101.368 115.46 101.408L134.511 81.0669ZM137.678 72.2664L140.447 73.7218C140.443 73.7245 140.44 73.7275 140.436 73.7304C140.426 73.7384 140.416 73.7465 140.403 73.7503C140.283 73.7863 140.174 73.8512 140.084 73.938C140.072 73.95 140.055 73.9571 140.038 73.9641C140.018 73.9723 139.999 73.9803 139.987 73.9959C139.976 74.0129 139.966 74.0309 139.957 74.0488C139.95 74.0581 139.939 74.0645 139.929 74.0709C139.915 74.079 139.902 74.0873 139.893 74.1018L137.678 77.8011V72.2664ZM141.368 74.2057C141.395 74.2649 141.414 74.3283 141.423 74.3933C141.436 74.4512 141.444 74.5101 141.445 74.57C141.549 75.1762 141.912 77.2429 142.583 80.3639L170.927 89.7391L141.368 74.2057ZM91.0459 150.545L89.3896 150.457V154.831L91.0459 154.918V150.545ZM93.8284 150.677L92.1721 150.59V154.984L93.8284 155.074V150.677ZM96.612 150.834L94.9557 150.746V155.118L96.612 155.208V150.834ZM99.3955 150.987L97.7392 150.897V155.271L99.3955 155.361V150.987ZM102.177 151.121L100.521 151.033V155.405L102.177 155.492V151.121ZM124.305 149.86L124.306 149.861L124.306 149.861L124.305 149.86ZM110.79 149.197C115.205 149.482 119.732 149.727 124.304 149.86C121.264 148.129 118.551 145.88 116.289 143.211L116.286 143.207L116.378 147.861V147.862C116.382 148.084 116.297 148.299 116.142 148.458C115.986 148.617 115.773 148.706 115.551 148.707C115.513 148.707 115.474 148.705 115.437 148.699L110.79 148.05V149.197ZM115.992 128.505L116.001 128.524V128.526C118.438 136.131 122.797 142.978 128.656 148.403C128.669 148.403 128.679 148.413 128.679 148.425L128.714 148.456C122.543 139.919 118.116 127.77 115.834 120.557L115.992 128.505ZM127.397 149.527L127.398 149.528L127.398 149.528L127.397 149.527ZM127.396 149.527C122.607 145.019 118.765 139.602 116.094 133.593L116.231 140.486H116.232C119.127 144.398 122.968 147.508 127.396 149.527ZM134.862 148.71L130.977 148.712C131.331 149.166 131.69 149.611 132.054 150.035H132.081C133.008 150.059 133.936 150.08 134.863 150.059L134.862 148.71ZM138.57 150.079C138.454 149.959 138.338 149.84 138.221 149.72L138.206 149.705L137.255 148.709H136.518V150.079C136.737 150.079 136.96 150.077 137.182 150.074H137.184C137.631 150.069 138.078 150.065 138.505 150.079H138.57ZM141.188 127.748C143.593 136.036 148.135 143.546 154.359 149.525L154.341 149.529H154.319C150.101 149.816 145.551 149.993 140.847 150.059H140.846C140.543 149.761 140.252 149.453 139.962 149.144L139.962 149.144L139.959 149.141C139.824 148.997 139.688 148.854 139.552 148.711H140.207C140.656 148.705 141.017 148.343 141.024 147.895L141.188 127.748ZM191.089 149.46H189.433V152.398H191.089V149.46ZM193.454 149.085H191.798V152.023H193.454V149.085ZM106.816 153.834C106.816 154.47 106.301 154.984 105.666 154.984C105.031 154.984 104.516 154.47 104.516 153.834C104.516 153.199 105.031 152.684 105.666 152.684C106.301 152.684 106.816 153.199 106.816 153.834ZM105.666 151.534C106.301 151.534 106.816 151.019 106.816 150.384C106.816 149.749 106.301 149.234 105.666 149.234C105.031 149.234 104.516 149.749 104.516 150.384C104.516 151.019 105.031 151.534 105.666 151.534ZM110.65 150.959C110.65 151.594 110.135 152.109 109.499 152.109C108.864 152.109 108.349 151.594 108.349 150.959C108.349 150.324 108.864 149.809 109.499 149.809C110.135 149.809 110.65 150.324 110.65 150.959ZM113.333 152.684C113.968 152.684 114.483 152.169 114.483 151.534C114.483 150.899 113.968 150.384 113.333 150.384C112.698 150.384 112.183 150.899 112.183 151.534C112.183 152.169 112.698 152.684 113.333 152.684ZM110.65 154.409C110.65 155.045 110.135 155.56 109.499 155.56C108.864 155.56 108.349 155.045 108.349 154.409C108.349 153.774 108.864 153.259 109.499 153.259C110.135 153.259 110.65 153.774 110.65 154.409ZM113.333 156.135C113.968 156.135 114.483 155.62 114.483 154.984C114.483 154.349 113.968 153.834 113.333 153.834C112.698 153.834 112.183 154.349 112.183 154.984C112.183 155.62 112.698 156.135 113.333 156.135ZM118.317 154.984C118.317 155.62 117.802 156.135 117.167 156.135C116.532 156.135 116.017 155.62 116.017 154.984C116.017 154.349 116.532 153.834 117.167 153.834C117.802 153.834 118.317 154.349 118.317 154.984ZM121.001 156.135C121.636 156.135 122.151 155.62 122.151 154.984C122.151 154.349 121.636 153.834 121.001 153.834C120.366 153.834 119.851 154.349 119.851 154.984C119.851 155.62 120.366 156.135 121.001 156.135ZM125.985 154.984C125.985 155.62 125.47 156.135 124.834 156.135C124.199 156.135 123.684 155.62 123.684 154.984C123.684 154.349 124.199 153.834 124.834 153.834C125.47 153.834 125.985 154.349 125.985 154.984ZM128.668 156.135C129.303 156.135 129.818 155.62 129.818 154.984C129.818 154.349 129.303 153.834 128.668 153.834C128.033 153.834 127.518 154.349 127.518 154.984C127.518 155.62 128.033 156.135 128.668 156.135ZM133.652 154.984C133.652 155.62 133.137 156.135 132.502 156.135C131.867 156.135 131.352 155.62 131.352 154.984C131.352 154.349 131.867 153.834 132.502 153.834C133.137 153.834 133.652 154.349 133.652 154.984ZM136.336 156.135C136.971 156.135 137.486 155.62 137.486 154.984C137.486 154.349 136.971 153.834 136.336 153.834C135.701 153.834 135.186 154.349 135.186 154.984C135.186 155.62 135.701 156.135 136.336 156.135ZM141.32 154.984C141.32 155.62 140.805 156.135 140.169 156.135C139.534 156.135 139.019 155.62 139.019 154.984C139.019 154.349 139.534 153.834 140.169 153.834C140.805 153.834 141.32 154.349 141.32 154.984ZM144.003 156.135C144.638 156.135 145.153 155.62 145.153 154.984C145.153 154.349 144.638 153.834 144.003 153.834C143.368 153.834 142.853 154.349 142.853 154.984C142.853 155.62 143.368 156.135 144.003 156.135ZM148.987 154.984C148.987 155.62 148.472 156.135 147.837 156.135C147.202 156.135 146.687 155.62 146.687 154.984C146.687 154.349 147.202 153.834 147.837 153.834C148.472 153.834 148.987 154.349 148.987 154.984ZM151.671 156.135C152.306 156.135 152.821 155.62 152.821 154.984C152.821 154.349 152.306 153.834 151.671 153.834C151.035 153.834 150.521 154.349 150.521 154.984C150.521 155.62 151.035 156.135 151.671 156.135ZM156.655 154.984C156.655 155.62 156.14 156.135 155.504 156.135C154.869 156.135 154.354 155.62 154.354 154.984C154.354 154.349 154.869 153.834 155.504 153.834C156.14 153.834 156.655 154.349 156.655 154.984ZM159.338 156.135C159.973 156.135 160.488 155.62 160.488 154.984C160.488 154.349 159.973 153.834 159.338 153.834C158.703 153.834 158.188 154.349 158.188 154.984C158.188 155.62 158.703 156.135 159.338 156.135ZM164.322 154.601C164.322 155.236 163.807 155.751 163.172 155.751C162.537 155.751 162.022 155.236 162.022 154.601C162.022 153.966 162.537 153.451 163.172 153.451C163.807 153.451 164.322 153.966 164.322 154.601ZM167.006 155.368C167.641 155.368 168.156 154.853 168.156 154.218C168.156 153.582 167.641 153.068 167.006 153.068C166.37 153.068 165.856 153.582 165.856 154.218C165.856 154.853 166.37 155.368 167.006 155.368ZM171.99 153.834C171.99 154.47 171.475 154.984 170.839 154.984C170.204 154.984 169.689 154.47 169.689 153.834C169.689 153.199 170.204 152.684 170.839 152.684C171.475 152.684 171.99 153.199 171.99 153.834ZM174.673 154.601C175.308 154.601 175.823 154.086 175.823 153.451C175.823 152.816 175.308 152.301 174.673 152.301C174.038 152.301 173.523 152.816 173.523 153.451C173.523 154.086 174.038 154.601 174.673 154.601ZM179.657 153.068C179.657 153.703 179.142 154.218 178.507 154.218C177.872 154.218 177.357 153.703 177.357 153.068C177.357 152.432 177.872 151.917 178.507 151.917C179.142 151.917 179.657 152.432 179.657 153.068ZM182.341 153.834C182.976 153.834 183.491 153.319 183.491 152.684C183.491 152.049 182.976 151.534 182.341 151.534C181.705 151.534 181.191 152.049 181.191 152.684C181.191 153.319 181.705 153.834 182.341 153.834ZM187.325 152.301C187.325 152.936 186.81 153.451 186.174 153.451C185.539 153.451 185.024 152.936 185.024 152.301C185.024 151.666 185.539 151.151 186.174 151.151C186.81 151.151 187.325 151.666 187.325 152.301ZM186.174 148.275C186.81 148.275 187.325 147.76 187.325 147.125C187.325 146.49 186.81 145.975 186.174 145.975C185.539 145.975 185.024 146.49 185.024 147.125C185.024 147.76 185.539 148.275 186.174 148.275ZM183.491 148.084C183.491 148.719 182.976 149.234 182.341 149.234C181.705 149.234 181.191 148.719 181.191 148.084C181.191 147.449 181.705 146.934 182.341 146.934C182.976 146.934 183.491 147.449 183.491 148.084ZM178.507 150.192C179.142 150.192 179.657 149.677 179.657 149.042C179.657 148.407 179.142 147.892 178.507 147.892C177.872 147.892 177.357 148.407 177.357 149.042C177.357 149.677 177.872 150.192 178.507 150.192ZM175.823 149.809C175.823 150.444 175.308 150.959 174.673 150.959C174.038 150.959 173.523 150.444 173.523 149.809C173.523 149.174 174.038 148.659 174.673 148.659C175.308 148.659 175.823 149.174 175.823 149.809ZM170.839 151.151C171.475 151.151 171.99 150.636 171.99 150.001C171.99 149.365 171.475 148.85 170.839 148.85C170.204 148.85 169.689 149.365 169.689 150.001C169.689 150.636 170.204 151.151 170.839 151.151ZM168.156 150.576C168.156 151.211 167.641 151.726 167.006 151.726C166.37 151.726 165.856 151.211 165.856 150.576C165.856 149.94 166.37 149.426 167.006 149.426C167.641 149.426 168.156 149.94 168.156 150.576ZM105.666 158.818C106.301 158.818 106.816 158.303 106.816 157.668C106.816 157.033 106.301 156.518 105.666 156.518C105.031 156.518 104.516 157.033 104.516 157.668C104.516 158.303 105.031 158.818 105.666 158.818ZM110.65 158.243C110.65 158.878 110.135 159.393 109.499 159.393C108.864 159.393 108.349 158.878 108.349 158.243C108.349 157.608 108.864 157.093 109.499 157.093C110.135 157.093 110.65 157.608 110.65 158.243ZM113.333 159.968C113.968 159.968 114.483 159.453 114.483 158.818C114.483 158.183 113.968 157.668 113.333 157.668C112.698 157.668 112.183 158.183 112.183 158.818C112.183 159.453 112.698 159.968 113.333 159.968ZM118.317 158.818C118.317 159.453 117.802 159.968 117.167 159.968C116.532 159.968 116.017 159.453 116.017 158.818C116.017 158.183 116.532 157.668 117.167 157.668C117.802 157.668 118.317 158.183 118.317 158.818ZM121.001 159.968C121.636 159.968 122.151 159.453 122.151 158.818C122.151 158.183 121.636 157.668 121.001 157.668C120.366 157.668 119.851 158.183 119.851 158.818C119.851 159.453 120.366 159.968 121.001 159.968ZM125.985 158.818C125.985 159.453 125.47 159.968 124.834 159.968C124.199 159.968 123.684 159.453 123.684 158.818C123.684 158.183 124.199 157.668 124.834 157.668C125.47 157.668 125.985 158.183 125.985 158.818ZM128.668 159.968C129.303 159.968 129.818 159.453 129.818 158.818C129.818 158.183 129.303 157.668 128.668 157.668C128.033 157.668 127.518 158.183 127.518 158.818C127.518 159.453 128.033 159.968 128.668 159.968ZM133.652 158.818C133.652 159.453 133.137 159.968 132.502 159.968C131.867 159.968 131.352 159.453 131.352 158.818C131.352 158.183 131.867 157.668 132.502 157.668C133.137 157.668 133.652 158.183 133.652 158.818ZM136.336 159.968C136.971 159.968 137.486 159.453 137.486 158.818C137.486 158.183 136.971 157.668 136.336 157.668C135.701 157.668 135.186 158.183 135.186 158.818C135.186 159.453 135.701 159.968 136.336 159.968ZM141.32 158.818C141.32 159.453 140.805 159.968 140.169 159.968C139.534 159.968 139.019 159.453 139.019 158.818C139.019 158.183 139.534 157.668 140.169 157.668C140.805 157.668 141.32 158.183 141.32 158.818ZM144.003 159.968C144.638 159.968 145.153 159.453 145.153 158.818C145.153 158.183 144.638 157.668 144.003 157.668C143.368 157.668 142.853 158.183 142.853 158.818C142.853 159.453 143.368 159.968 144.003 159.968ZM148.987 158.818C148.987 159.453 148.472 159.968 147.837 159.968C147.202 159.968 146.687 159.453 146.687 158.818C146.687 158.183 147.202 157.668 147.837 157.668C148.472 157.668 148.987 158.183 148.987 158.818ZM151.671 159.968C152.306 159.968 152.821 159.453 152.821 158.818C152.821 158.183 152.306 157.668 151.671 157.668C151.035 157.668 150.521 158.183 150.521 158.818C150.521 159.453 151.035 159.968 151.671 159.968ZM156.655 158.818C156.655 159.453 156.14 159.968 155.504 159.968C154.869 159.968 154.354 159.453 154.354 158.818C154.354 158.183 154.869 157.668 155.504 157.668C156.14 157.668 156.655 158.183 156.655 158.818ZM159.338 159.968C159.973 159.968 160.488 159.453 160.488 158.818C160.488 158.183 159.973 157.668 159.338 157.668C158.703 157.668 158.188 158.183 158.188 158.818C158.188 159.453 158.703 159.968 159.338 159.968ZM164.322 158.435C164.322 159.07 163.807 159.585 163.172 159.585C162.537 159.585 162.022 159.07 162.022 158.435C162.022 157.8 162.537 157.285 163.172 157.285C163.807 157.285 164.322 157.8 164.322 158.435ZM167.006 159.202C167.641 159.202 168.156 158.687 168.156 158.051C168.156 157.416 167.641 156.901 167.006 156.901C166.37 156.901 165.856 157.416 165.856 158.051C165.856 158.687 166.37 159.202 167.006 159.202ZM171.99 157.668C171.99 158.303 171.475 158.818 170.839 158.818C170.204 158.818 169.689 158.303 169.689 157.668C169.689 157.033 170.204 156.518 170.839 156.518C171.475 156.518 171.99 157.033 171.99 157.668ZM174.673 158.435C175.308 158.435 175.823 157.92 175.823 157.285C175.823 156.649 175.308 156.135 174.673 156.135C174.038 156.135 173.523 156.649 173.523 157.285C173.523 157.92 174.038 158.435 174.673 158.435ZM179.657 156.901C179.657 157.537 179.142 158.051 178.507 158.051C177.872 158.051 177.357 157.537 177.357 156.901C177.357 156.266 177.872 155.751 178.507 155.751C179.142 155.751 179.657 156.266 179.657 156.901ZM182.341 157.668C182.976 157.668 183.491 157.153 183.491 156.518C183.491 155.883 182.976 155.368 182.341 155.368C181.705 155.368 181.191 155.883 181.191 156.518C181.191 157.153 181.705 157.668 182.341 157.668ZM187.325 156.135C187.325 156.77 186.81 157.285 186.174 157.285C185.539 157.285 185.024 156.77 185.024 156.135C185.024 155.499 185.539 154.984 186.174 154.984C186.81 154.984 187.325 155.499 187.325 156.135ZM117.416 150.377C116.993 150.356 116.633 150.682 116.612 151.105L116.584 151.679C116.563 152.102 116.888 152.462 117.311 152.483L125.352 152.883C125.775 152.904 126.135 152.578 126.156 152.155L126.185 151.58C126.206 151.157 125.88 150.798 125.457 150.777L117.416 150.377ZM128.905 151.604C128.903 151.181 129.244 150.836 129.667 150.833L137.718 150.791C138.142 150.788 138.487 151.13 138.489 151.553L138.492 152.128C138.494 152.552 138.153 152.897 137.729 152.899L129.679 152.942C129.255 152.944 128.91 152.603 128.908 152.179L128.905 151.604ZM142.066 150.707C141.642 150.718 141.308 151.07 141.319 151.493L141.334 152.068C141.345 152.491 141.697 152.826 142.121 152.815L150.169 152.604C150.592 152.593 150.926 152.241 150.915 151.818L150.9 151.243C150.889 150.819 150.537 150.485 150.114 150.496L142.066 150.707ZM153.605 151.239C153.575 150.817 153.892 150.45 154.315 150.419L162.344 149.838C162.767 149.807 163.134 150.125 163.165 150.547L163.206 151.121C163.237 151.543 162.919 151.91 162.497 151.941L154.467 152.522C154.045 152.553 153.677 152.235 153.647 151.813L153.605 151.239Z" fill="#00005E"/>
<path d="M187.671 159.776L188.333 159.599C188.129 163.325 186.05 166.693 182.811 168.546C177.909 171.901 155.755 173.271 132.124 173.271C126.912 173.271 121.656 173.204 116.466 173.094C106.307 172.829 98.4001 170.776 92.9672 166.932V166.931C90.8706 165.442 89.2262 163.402 88.2179 161.037L88.7041 161.104C88.749 161.104 89.2332 161.147 90.1398 161.234C95.7705 161.698 117.592 163.355 142.68 163.355H142.681C157.413 163.369 172.124 162.225 186.674 159.931C187.04 159.879 187.305 159.834 187.47 159.806L187.474 159.806C187.516 159.798 187.552 159.792 187.581 159.788C187.599 159.785 187.614 159.782 187.627 159.78C187.632 159.78 187.636 159.779 187.641 159.778C187.646 159.778 187.651 159.777 187.655 159.777C187.661 159.776 187.666 159.776 187.669 159.776L187.671 159.776Z" fill="#00005E"/>
<path d="M193.075 153.93L193.65 169.073L181.286 169.84C181.286 169.84 184.833 168.307 186.366 166.198C187 165.326 187.832 164.107 188.187 162.748C188.954 160.543 188.858 158.435 188.858 158.435C188.858 158.435 188.954 156.71 189.816 155.655C190.679 154.601 193.075 153.93 193.075 153.93Z" fill="#00005E"/>
</svg>
