<svg width="246" height="246" viewBox="0 0 246 246" fill="none" xmlns="http://www.w3.org/2000/svg">
<circle cx="123" cy="123" r="118" fill="#D4AF37" stroke="#222222" stroke-width="10"/>
<mask id="mask0_415_72" style="mask-type:alpha" maskUnits="userSpaceOnUse" x="18" y="19" width="211" height="209">
<ellipse cx="123" cy="123.5" rx="104" ry="103.5" fill="#003AAA" stroke="#D4AF37" stroke-width="2"/>
</mask>
<g mask="url(#mask0_415_72)">
<path d="M51.6325 68.2825L125.01 124.178L127.612 121.306L84.8325 88.7186C84.8313 88.7174 84.8288 88.7161 84.8276 88.7137L53.9734 65.2108C53.5627 64.8985 53.0573 64.7645 52.5446 64.8333C52.0331 64.9022 51.5794 65.1665 51.2671 65.576C50.9536 65.9867 50.8208 66.4932 50.8896 67.0047C50.9597 67.5162 51.2228 67.9699 51.6335 68.2835L51.6325 68.2825Z" fill="#222222"/>
<path d="M65.438 114.173C65.8315 113.851 66.3442 113.712 66.8483 113.791C67.3512 113.869 67.7975 114.158 68.0742 114.586L71.1063 119.262C72.3961 118.04 74.399 116.767 77.0559 116.872C80.0425 116.99 82.825 119.515 84.5684 121.507C86.1742 118.707 89.1388 114.631 93.1407 113.76C97.341 112.845 100.807 116.268 102.739 118.821C103.789 116.767 104.328 114.859 104.398 112.979L93.913 104.99C92.3539 106.993 89.2123 110.239 84.4357 111.609C84.271 111.656 84.105 111.679 83.9415 111.679C83.1631 111.679 82.4463 111.166 82.2213 110.382C81.9484 109.432 82.498 108.439 83.4484 108.168C87.2416 107.081 89.8038 104.416 91.0594 102.818L79.5777 94.072C78.8326 97.463 76.8592 102.58 71.646 104.597C71.3398 104.715 71.0324 104.817 70.725 104.911C71.7099 105.985 73.2542 107.241 75.5189 107.994C76.4571 108.307 76.9649 109.32 76.6526 110.259C76.4017 111.01 75.7034 111.485 74.9533 111.485C74.7652 111.485 74.5746 111.456 74.3877 111.393C70.0906 109.963 67.7185 107.103 66.6883 105.528C66.5911 105.529 66.4928 105.534 66.3956 105.534C63.6218 105.534 61.0188 104.852 59.0245 104.121C60.3401 109.194 60.6942 113.969 60.0868 118.545L65.438 114.173Z" fill="#222222"/>
<path d="M101.985 78.0268L102.006 78.017C102.476 77.803 102.835 77.4194 103.015 76.9362C103.195 76.453 103.178 75.9292 102.964 75.4595C102.75 74.9898 102.367 74.6308 101.883 74.4513C101.401 74.2705 100.876 74.2877 100.407 74.5017L82.6741 82.5713L86.161 85.2272L101.983 78.0269H101.985L101.985 78.0268Z" fill="#222222"/>
<path d="M107.481 93.0172C106.632 90.22 105.518 87.5812 104.159 85.1235C103.617 87.3121 102.468 89.5916 100.113 90.879C98.8876 91.5491 97.4343 91.8073 95.9233 91.8073C95.5299 91.8073 95.1327 91.7889 94.7344 91.7557L109.382 102.913C109.048 99.3997 108.413 96.0824 107.481 93.0169L107.481 93.0172Z" fill="#222222"/>
<path d="M195.748 51.4067L119.603 135.487C120.781 135.521 121.989 135.538 123.232 135.538C124.962 135.538 126.617 135.51 128.202 135.444L151.526 108.41C152.171 107.661 153.302 107.577 154.051 108.224C154.8 108.869 154.882 110.001 154.237 110.749L133.261 135.062C140.795 134.182 146.241 131.873 149.449 126.491C149.772 125.949 150.356 125.617 150.987 125.617C151.618 125.617 152.203 125.949 152.525 126.491C153.049 127.371 153.642 128.166 154.295 128.889L159.026 122.343C159.606 121.541 160.725 121.362 161.525 121.941C162.327 122.521 162.507 123.64 161.928 124.44L157.008 131.247C161.18 134.088 166.957 135.161 174.01 135.451L173.846 131.77L167.706 128.454C167.196 128.178 166.851 127.672 166.781 127.096C166.709 126.521 166.922 125.947 167.351 125.556L170.432 122.745L166.044 119.128C165.509 118.686 165.277 117.977 165.448 117.304L166.845 111.815C167.039 111.053 167.708 110.507 168.494 110.468L175.074 110.147L173.928 83.5665C173.911 83.1767 174.023 82.7919 174.244 82.471L195.748 51.4067Z" fill="#222222"/>
<path d="M178.744 175.656C191.244 175.656 200.485 174.116 204.962 166.608C205.285 166.065 205.869 165.733 206.5 165.733C207.131 165.733 207.716 166.065 208.038 166.608C212.317 173.787 220.576 175.498 232.465 175.643V139.112C222.791 139.014 212.493 137.955 206.51 130.549C200.905 137.621 191.607 139.12 178.745 139.12C168.572 139.12 157.353 138.413 150.998 130.549C146.281 136.502 138.945 138.506 129.069 138.991C129.063 138.991 129.057 138.993 129.05 138.993H129.044C127.196 139.084 125.26 139.12 123.233 139.12C113.06 139.12 101.842 138.413 95.4862 130.549C89.8818 137.621 80.584 139.12 67.7218 139.12C57.5486 139.12 46.33 138.413 39.9746 130.549C34.6334 137.287 25.9367 138.967 14.0002 139.109V175.644C25.8898 175.499 34.1489 173.786 38.4275 166.608C38.7509 166.066 39.3349 165.734 39.9657 165.734C40.5964 165.734 41.1817 166.066 41.5039 166.608C45.9808 174.117 55.2219 175.656 67.7216 175.656C68.7101 175.656 69.5118 176.458 69.5118 177.447C69.5118 178.435 68.7101 179.237 67.7216 179.237C57.5484 179.237 46.3298 178.53 39.9744 170.666C34.6332 177.404 25.9353 179.082 14 179.226V225.273H232.466L232.465 179.226C220.528 179.082 211.83 177.404 206.49 170.666C200.136 178.53 188.916 179.237 178.743 179.237C177.754 179.237 176.953 178.435 176.953 177.447C176.954 176.458 177.756 175.656 178.744 175.656L178.744 175.656ZM53.3951 157.721C52.4066 157.721 51.6049 156.92 51.6049 155.931C51.6049 154.943 52.4066 154.141 53.3951 154.141C66.2514 154.141 75.1212 152.627 79.6129 145.093C79.9362 144.55 80.5203 144.219 81.151 144.219C81.7818 144.219 82.3671 144.551 82.6892 145.093C87.1661 152.601 96.4073 154.141 108.907 154.141C109.895 154.141 110.697 154.943 110.697 155.931C110.697 156.92 109.895 157.721 108.907 157.721C98.7337 157.721 87.5152 157.014 81.1598 149.15C75.5554 156.22 66.2563 157.721 53.3953 157.721H53.3951ZM108.907 203.986C98.7339 203.986 87.5154 203.279 81.1599 195.415C75.5555 202.486 66.2577 203.986 53.3955 203.986C52.4069 203.986 51.6052 203.184 51.6052 202.195C51.6052 201.207 52.4069 200.405 53.3955 200.405C66.2517 200.405 75.1215 198.892 79.6132 191.357C79.9365 190.815 80.5206 190.483 81.1513 190.483C81.7821 190.483 82.3674 190.815 82.6895 191.357C87.1664 198.866 96.4076 200.405 108.907 200.405C109.896 200.405 110.697 201.207 110.697 202.195C110.697 203.184 109.896 203.986 108.907 203.986H108.907ZM123.24 170.665C117.636 177.736 108.338 179.236 95.4754 179.236C94.4869 179.236 93.6852 178.434 93.6852 177.445C93.6852 176.457 94.4869 175.655 95.4754 175.655C108.332 175.655 117.201 174.142 121.693 166.607C122.017 166.065 122.601 165.733 123.231 165.733C123.862 165.733 124.447 166.065 124.769 166.607C129.246 174.116 138.488 175.655 150.987 175.655C151.976 175.655 152.777 176.457 152.777 177.445C152.777 178.434 151.976 179.236 150.987 179.236C140.814 179.236 129.595 178.53 123.24 170.665H123.24ZM193.067 200.405C194.056 200.405 194.858 201.206 194.858 202.195C194.858 203.184 194.056 203.985 193.067 203.985C180.206 203.985 170.907 202.485 165.303 195.414C158.948 203.278 147.729 203.985 137.556 203.985C136.567 203.985 135.766 203.184 135.766 202.195C135.766 201.206 136.567 200.405 137.556 200.405C150.055 200.405 159.297 198.865 163.773 191.357C164.097 190.814 164.681 190.482 165.312 190.482C165.942 190.482 166.528 190.814 166.85 191.357C171.341 198.891 180.211 200.405 193.068 200.405H193.067ZM165.303 149.148C158.948 157.013 147.729 157.72 137.556 157.72C136.567 157.72 135.766 156.918 135.766 155.929C135.766 154.941 136.567 154.139 137.556 154.139C150.055 154.139 159.297 152.6 163.773 145.091C164.097 144.549 164.681 144.217 165.312 144.217C165.942 144.217 166.528 144.549 166.85 145.091C171.341 152.626 180.211 154.139 193.068 154.139C194.056 154.139 194.858 154.941 194.858 155.929C194.858 156.918 194.056 157.72 193.068 157.72C180.207 157.72 170.907 156.218 165.303 149.148H165.303Z" fill="#222222"/>
<path d="M71.2864 87.7544L53.8292 95.6984C52.8604 96.1398 52.43 97.287 52.8714 98.2559C53.3128 99.226 54.4612 99.6539 55.4289 99.2137L74.7734 90.4101L71.2864 87.7544Z" fill="#222222"/>
<path d="M55.0319 65.5761L175.256 67.3159H175.282C176.26 67.3159 177.058 66.5315 177.072 65.5515C177.086 64.563 176.297 63.7502 175.308 63.7342L86.8968 62.4555L187.423 52.5735C188.407 52.4763 189.127 51.6009 189.03 50.616C188.933 49.6324 188.054 48.9106 187.073 49.009L54.8842 62.0028C53.9387 62.095 53.2304 62.9102 53.271 63.8594C53.3091 64.8086 54.0837 65.5611 55.033 65.5758L55.0319 65.5761Z" fill="#222222"/>
</g>
</svg>
