<svg width="236" height="236" viewBox="0 0 236 236" fill="none" xmlns="http://www.w3.org/2000/svg">
<mask id="mask0_420_96" style="mask-type:alpha" maskUnits="userSpaceOnUse" x="0" y="0" width="236" height="236">
<circle cx="118" cy="118" r="115.5" fill="#D9D9D9" stroke="#FABD00" stroke-width="5"/>
</mask>
<g mask="url(#mask0_420_96)">
<rect x="-12" y="5" width="130" height="226" fill="#AD1519"/>
<path fill-rule="evenodd" clip-rule="evenodd" d="M93.672 75.0412L105.198 172.923L110 172.922V193H70V163.5C70 163.5 70.5 155.5 59 155.5C47 155.5 48 163.5 48 163.5V193H12V172.922H15.8884L27.845 75.0399H27.0763V65H34.6149V75.0399H38.9228V65H47.538V75.0399H51.846V65H60.4612L62.6148 65.0014L70.1535 65.0014V75.0412H74.4614V65.0014H83.0766V75.0412H85.2303V65.0014H93.8455V75.0412H93.672ZM41.0776 115.199H43.2313V95.1206H41.0776V115.199ZM60.4623 115.199H62.616V95.1206H60.4623V115.199ZM76.6164 115.199H78.7701V95.1206H76.6164V115.199Z" fill="#FABD00"/>
<rect x="118" y="-37" width="139" height="311" fill="white"/>
<path d="M227.316 78.3662C227.316 78.3662 228.618 81.7334 225.357 82.7234C225.255 82.3877 224.965 81.9673 224.392 81.437C224.392 81.437 224.826 82.1568 224.733 82.8676C221.619 83.3878 220.431 80.3351 220.431 80.3351C222.778 80.1043 223.775 78.2876 223.007 76.8611C222.238 75.4315 221.043 76.0878 221.043 76.0878C222.814 76.2048 223.125 79.3704 220.234 79.6032C217.349 79.8341 216.081 77.2472 216.081 77.2472C219.465 75.9729 218.349 71.7619 218.349 71.7619C218.774 73.7318 216.463 74.9678 214.696 75.1613C212.926 75.3549 211.387 76.5143 211.387 76.5143C210.786 76.2169 210.195 75.9749 209.61 75.7854C209.166 75.5989 208.687 75.4285 208.172 75.2914C205.645 74.621 201.828 74.6018 197.989 78.3319C190.61 85.4978 191.66 92.9004 193.897 99.8333C194.755 102.491 196.309 105.844 198.07 109.47C196.832 109.363 194.265 109.394 192.662 111.033C190.506 113.234 191.969 116.556 191.969 116.556C192.778 113.237 196.432 114.509 196.432 114.509C194.085 115.899 194.969 118.836 194.969 118.836C195.585 115.938 198.083 116.441 198.083 116.441C195.585 119.3 198.588 120.998 198.588 120.998C196.93 119.762 198.507 116.481 199.78 117.522C200.624 118.216 201.71 118.298 202.344 118.275C203.336 120.399 204.229 122.418 204.88 124.188C199.05 125.307 199.69 130.08 199.69 130.08C200.149 127.878 201.859 128.557 201.859 128.557C201.55 131.647 197.511 131.998 196.008 130.723C194.508 129.448 194.931 127.71 194.931 127.71C192.662 130.841 195.124 134.701 196.93 134.779C198.741 134.856 202.346 132.783 203.845 135.875C204.34 136.892 203.984 137.813 203.207 138.601C203.083 138.692 202.955 138.782 202.822 138.867C200.673 140.231 198.783 140.895 197.045 140.895H197.022C194.743 140.888 192.715 139.727 190.842 137.358C190.303 134.196 187.103 125.688 185.338 121.122C183.528 116.449 183.412 107.219 183.412 107.219C184.644 106.253 185.106 105.056 185.298 103.859C185.415 103.145 185.199 102.253 185.01 101.649C185.292 102.188 185.871 102.822 186.995 102.662C188.613 102.429 188.273 100.629 188.145 100.126C188.283 100.777 187.859 101.653 186.995 101.58C186.069 101.503 185.34 99.2625 185.878 97.5245C186.418 95.7874 185.377 93.7007 185.377 93.7007C185.377 93.7007 186.389 95.3016 187.658 95.9196C187.659 95.9226 189.141 97.3986 190.448 96.6636C190.448 96.6636 189.308 96.5265 188.782 96.1464C188.812 96.1434 188.847 96.1404 188.879 96.1354C190.264 95.8944 189.929 94.6121 189.719 94.0657C190.037 95.1827 188.338 96.6344 187.302 94.0495C186.186 91.2692 188.264 88.8365 188.264 88.8365C190.443 86.6166 188.706 83.3824 188.014 82.2967C188.658 82.8491 190.11 82.5406 190.11 82.5406C190.11 82.5406 187.956 82.3098 188.456 80.107C188.957 77.9062 187.801 75.0098 187.801 75.0098C188.765 76.2841 190.65 75.3577 190.65 75.3577C188.112 75.5109 186.88 71.1083 186.88 71.1083C187.881 71.9188 189.497 71.3009 189.497 71.3009C187.611 71.6104 185.11 67.6332 185.11 67.6332C185.919 66.9376 185.727 65.3932 185.727 65.3932C185.11 67.0909 183.416 66.7441 183.416 66.7441C184.149 65.6633 183.224 63.6935 183.224 63.6935C183.032 65.8177 181.533 65.857 181.533 65.857C182.185 64.3881 180.377 63 180.377 63C181.147 64.0031 180.723 65.2774 179.799 65.2391C178.876 65.2018 175.953 65.23 173.374 65.2391C170.421 65.2492 169.738 67.8581 169.214 68.2251C168.692 68.5921 168.429 68.4882 168.429 68.4882C164.455 68.4882 162.939 69.695 162.939 69.695L161.736 69.9057C160.793 73.6892 162.718 76.7751 163.265 77.5524C161.361 77.6724 159.569 77.6825 158.546 76.7822C157.29 75.6793 159.015 74.3133 159.015 74.3133C156.504 73.7366 154.674 76.6753 155.824 78.1987C156.974 79.721 159.537 79.7724 161.945 78.9327C162.328 78.7986 162.712 78.7058 163.085 78.6423C162.929 79.1454 162.826 79.6061 162.76 80.0285C162.631 80.5809 162.634 81.1395 162.691 81.6345C162.773 82.688 163.096 83.2374 163.096 83.2374C164.613 82.0831 167.279 82.0831 167.279 82.0831C167.855 83.2374 166.965 86.3363 162.417 85.1287C157.867 83.922 154.519 88.0685 154.519 88.0685C154.519 88.0685 150.494 86.6521 148.296 83.7627C146.1 80.8752 145.889 79.4065 145.889 79.4065L145.734 79.8259C144.897 78.9337 144.532 77.7794 144.532 77.7794L144.373 78.2522C143.693 77.2551 142.646 75.5756 142.646 73.265C142.646 70.9553 139.823 68.3825 139.823 68.3825C139.301 67.07 137.627 67.702 137.627 67.702C138.516 67.5448 138.935 68.5418 138.935 68.5418L137.993 68.6457C136.528 67.4913 135.325 68.9098 135.325 68.9098C136.215 68.3835 136.528 68.6457 137.103 69.0136C137.679 69.3806 136.32 70.5359 136.32 70.5359C134.959 69.5903 134.071 71.3767 134.071 71.3767C134.907 70.7466 135.585 71.4805 135.585 71.4805C134.071 73.6329 136.32 76.9929 137.521 77.7269C138.724 78.4629 139.508 78.8298 140.189 79.7744C140.87 80.7201 140.553 81.822 139.823 81.4016C139.09 80.9812 139.352 79.721 139.352 79.721C137.627 80.8239 139.09 82.5034 139.09 82.5034C138.881 85.812 143.014 86.3889 143.014 86.3889C140.294 86.5461 140.713 88.8044 140.713 88.8044C140.713 88.8044 140.816 87.7015 142.071 87.7539C143.326 87.8073 144.477 89.4869 144.477 89.4869C143.589 92.3743 145.576 93.0043 145.576 93.0043C144.426 92.1111 145.733 91.3237 145.733 91.3237C146.257 92.1645 146.464 93.4106 146.464 94.8804C146.464 96.3512 147.72 96.6648 147.72 96.6648C147.8 95.9873 148.348 96.0347 148.348 96.0347C148.767 96.9279 147.198 97.8715 146.362 97.4521C145.524 97.0318 145.943 96.0347 145.943 96.0347C145.943 96.0347 145.106 96.4551 145.158 97.2949C145.211 98.1347 146.152 98.922 147.669 98.3454C149.187 97.7687 150.127 98.5561 150.127 98.5561C148.819 98.2405 147.878 99.1861 147.878 99.1861C147.878 99.1861 148.925 99.6569 149.501 100.13C150.077 100.603 151.332 100.813 151.332 100.813C150.389 100.707 150.128 102.073 150.128 102.073C150.128 102.073 150.808 101.549 151.278 101.706C151.75 101.864 151.332 102.704 149.971 102.809C148.61 102.913 147.616 101.182 147.616 101.182C147.616 101.182 148.035 103.281 149.552 103.439C151.069 103.597 152.063 103.703 152.063 103.703C150.597 104.753 149.502 105.12 147.513 104.909C145.526 104.7 146.257 105.276 146.257 105.276C146.257 105.276 146.726 105.436 144.478 105.487C142.229 105.539 143.956 105.96 143.956 105.96C140.714 107.64 131.77 105.75 131.77 105.75C129.048 104.7 125.492 105.33 125.492 105.33C122.825 104.909 123.4 107.902 123.4 107.902C123.506 106.898 124.133 106.696 124.865 106.538C125.597 106.381 125.336 107.955 123.923 108.481C122.512 109.005 123.139 110.581 123.139 110.581C123.349 109.217 124.429 109.951 124.429 109.951C122.474 112.032 124.241 113.031 124.841 113.291C124.157 112.924 124.324 111.597 125.389 111.841C127.481 112.418 127.743 112.734 129.992 111.947C132.241 111.156 134.116 111.096 134.116 111.096C133.176 111.517 132.129 113.196 132.129 113.196C131.502 113.512 130.509 112.776 130.509 112.776C131.292 115.663 134.012 114.036 134.012 114.036C136.891 115.452 138.721 112.409 138.721 112.409C139.399 113.931 136.576 114.772 136.576 114.772C138.197 115.822 139.608 113.826 139.608 113.826C141.752 115.715 143.427 112.986 143.427 112.986C142.171 114.089 139.502 112.933 140.708 111.569C141.91 110.205 145.415 112.882 146.983 114.089C148.551 115.296 149.284 113.512 149.755 112.147C150.226 110.784 152.056 110.047 152.056 111.726C152.056 113.406 150.174 113.616 150.174 113.616C150.174 113.616 152.265 114.509 153.05 111.676C153.833 108.84 155.718 108.683 155.718 108.683C155.82 110.152 154.669 110.94 154.669 110.94C156.343 110.887 156.397 109.785 156.397 109.785C159.534 119.444 165.549 119.34 168.843 123.487C172.14 127.634 173.552 132.779 173.552 132.779C169.631 131.832 166.282 128.423 166.282 128.423L166.492 129.157C165.184 129.998 160.425 129.787 158.751 130.469C157.077 131.152 155.351 130.1 155.351 130.1C155.561 131.257 157.129 131.203 157.129 131.203C153.312 132.779 151.532 131.939 151.532 131.939C152.631 133.303 154.619 132.515 154.619 132.515C154.619 132.515 153.101 133.092 151.114 135.297C149.128 137.503 148.082 140.6 146.878 140.129C145.675 139.657 146.094 137.189 146.094 137.189C145.363 137.242 145.623 139.185 145.623 139.185C144.994 138.869 144.89 137.505 144.89 137.505C144.106 138.818 145.464 139.761 145.464 139.761C145.727 141.968 147.924 142.019 147.924 142.019C147.924 144.854 143.793 144.908 143.793 144.908C145.57 147.9 149.754 145.119 149.963 146.165C150.173 147.218 147.612 148.322 148.239 148.687C148.865 149.056 150.016 146.487 150.434 147.06C150.852 147.638 150.225 148.741 149.544 150.106C148.864 151.472 148.708 152.626 149.282 151.836C149.857 151.049 150.8 149.369 150.85 150.366C150.903 151.363 149.282 152.31 150.016 152.413C150.747 152.516 151.583 150.366 151.323 151.73C151.061 153.096 149.021 154.197 150.434 154.041C151.846 153.883 152.317 150.734 153.1 153.465C153.884 156.192 147.296 156.984 143.792 157.715C140.286 158.451 139.763 162.126 139.763 162.126C138.299 163.332 139.292 164.539 139.292 164.539C138.77 163.536 140.6 162.543 140.024 163.753C138.978 165.276 140.546 166.533 140.546 166.533C139.761 164.539 142.795 162.858 142.742 165.483C142.689 168.109 143.945 168.793 143.945 168.793C143.265 167.689 143.945 166.847 143.945 166.847C143.945 166.847 146.558 167.584 147.501 165.432C148.442 163.282 149.855 162.543 149.855 162.543C148.497 163.489 149.386 164.802 149.386 164.802C149.334 166.062 147.137 166.636 147.137 166.636C149.597 167.69 150.59 165.747 150.59 165.747C150.59 165.747 155.297 165.065 156.134 162.49C156.971 159.92 159.534 158.553 159.534 158.553C158.905 161.075 160.579 162.176 160.579 162.176C160.579 162.176 160.005 160.339 161.468 159.08C162.934 157.817 163.404 156.087 163.404 156.087C163.089 157.295 163.978 158.028 163.978 158.028C164.03 156.613 165.027 155.405 163.666 154.25C162.305 153.096 161.939 151.416 161.939 151.416C162.879 154.146 165.548 154.04 165.548 154.04C161.417 152.515 163.874 147.111 165.391 145.378C166.909 143.647 167.066 142.493 167.066 142.493C167.066 143.804 168.008 143.962 168.008 143.962C167.117 141.493 170.516 141.968 170.516 141.968C170.516 141.968 166.699 146.798 166.752 149.684C166.804 152.573 166.071 156.664 166.597 155.933C167.118 155.196 166.805 151.05 167.171 154.725C167.536 158.399 165.654 160.762 166.699 159.814C167.748 158.872 167.483 156.508 167.849 158.504C168.215 160.498 165.966 162.389 167.066 161.653C168.164 160.922 168.111 160.134 168.111 161.182C168.111 162.233 166.49 163.81 167.171 163.442C167.852 163.073 168.479 161.654 168.268 162.601C168.059 163.545 167.171 164.072 167.171 164.072C165.862 165.069 163.718 165.28 163.718 165.28C166.596 166.012 168.635 164.174 168.635 164.174C168.529 166.379 165.603 167.8 165.603 167.8C169.16 167.008 169.42 164.438 169.42 164.438C171.302 163.702 171.562 161.132 171.562 161.132C171.772 162.436 172.555 163.591 173.621 164.735C173.808 165.725 174.043 166.472 174.219 165.349C174.243 165.376 174.271 165.4 174.295 165.426C174.491 166.527 174.753 167.469 174.94 166.142C175.127 167.098 175.359 167.766 175.528 166.581C175.544 166.594 175.558 166.61 175.574 166.623C175.781 167.817 176.069 168.909 176.264 167.246C176.608 167.557 176.955 167.872 177.305 168.197C177.514 169.411 177.809 170.55 178.003 168.853C178.225 169.071 178.448 169.291 178.67 169.516C178.879 170.857 179.22 172.379 179.43 170.323C179.487 170.389 179.546 170.453 179.604 170.521C182.874 174.227 177.14 180.983 175.449 181.603C173.755 182.223 172.677 184.386 172.717 186.741C172.755 189.097 174.564 189.83 174.564 189.83C173.563 188.4 174.487 184.46 175.025 187.861C175.565 191.26 178.449 190.995 178.449 190.995C176.218 188.841 179.525 187.975 179.718 189.136C180.219 191.684 183.295 190.873 183.295 190.873C181.371 190.369 181.642 188.71 181.642 188.71C183.488 186.973 184.604 184.77 184.604 184.77C184.604 184.77 186.184 184.617 186.375 182.84C186.567 181.064 188.451 178.008 188.451 178.008C188.336 179.478 189.451 180.291 190.028 180.635C190.182 182.14 188.951 182.838 188.951 182.838C190.914 182.566 191.3 181.446 191.3 181.446C191.3 181.446 190.991 180.289 191.452 178.704C191.913 177.12 190.569 175.924 190.569 175.924C192.568 176.154 193.299 178.704 193.299 178.704C194.568 175.151 191.837 172.95 191.837 172.95C194.645 172.718 195.607 175.344 195.607 175.344C196.838 173.296 195.146 171.791 195.146 171.791C197.76 170.555 197.647 168.084 197.647 168.084C194.567 170.402 191.376 167.851 191.376 167.851C192.837 166.575 195.798 166.348 195.798 166.348C194.414 166.422 193.568 165.071 193.568 165.071C193.107 164.644 192.721 163.834 192.721 163.834C191.068 164.184 186.95 162.523 188.873 160.786C190.796 159.049 192.759 161.945 192.759 161.945C192.68 158.896 188.334 157.89 188.334 157.89C190.912 157.117 191.257 153.523 191.257 153.523C190.258 155.028 189.065 155.494 187.293 155.187C185.525 154.873 185.871 152.287 187.372 151.861C188.873 151.438 189.064 153.445 189.064 153.445C191.026 151.438 189.143 150.162 189.143 150.162C191.757 149.47 190.95 146.379 190.95 146.379C191.411 148.273 188.757 150.009 187.719 148.579C186.68 147.15 187.795 146.108 188.988 144.717C190.064 143.463 190.23 141.822 190.254 141.51C192.05 143.076 194.288 144.194 197.008 144.194C199.205 144.194 201.719 143.465 204.573 141.651C205.367 141.147 206.296 140.398 207.14 139.307C213.997 140.491 218.498 137.031 218.498 137.031C215.421 138.112 214.268 137.301 214.268 137.301C214.46 136.877 214.885 135.911 214.885 135.911C218.692 136.104 218.81 132.472 218.81 132.472C218.04 134.789 215.193 135.292 215.193 135.292C216.462 130.116 211.616 127.413 211.616 127.413C211.809 124.476 207.999 122.93 207.999 122.93C207.999 122.93 207.933 122.837 207.82 122.671C206.949 120.366 205.758 117.762 204.472 115.084C204.587 113.141 205.843 111.654 205.843 111.654C200.765 106.518 208.5 105.128 209.422 107.098C210.347 109.068 207.653 111.268 207.653 111.268C212.193 110.689 212.999 102.693 207.46 102.848C203.402 102.961 201.473 105.865 200.726 107.414C199.169 104.193 197.763 101.114 197.018 98.8138C194.752 91.7831 194.504 86.2988 200.268 80.7015C202.438 78.5975 204.772 77.8394 207.216 78.4513C207.947 78.6318 208.587 78.9121 209.106 79.1913C209.129 79.8123 209.203 80.9384 209.459 82.1884C209.844 84.0807 209.074 84.7752 208.34 85.4315C207.612 86.0878 205.919 85.9739 205.686 84.2348C205.456 82.4978 208.267 81.6086 208.267 81.6086C208.267 81.6086 206.072 81.531 204.877 83.1914C203.684 84.8518 204.685 88.1747 207.264 88.9469C209.843 89.7191 211.574 86.0878 211.574 86.0878C211.574 86.0878 213.287 86.8812 213.305 89.4873C213.322 92.0761 209.996 93.4644 209.533 92.1136C209.074 90.7627 210.495 90.2596 210.495 90.2596C208.725 89.4874 207.146 91.0328 207.61 93.1186C208.072 95.2045 211.187 95.512 211.187 95.512C211.148 102.078 215.92 100.495 215.92 100.495C214.496 100.688 213.957 99.1424 213.918 97.9065C213.879 96.6725 214.955 96.0908 215.762 96.3237C216.572 96.5545 217.609 98.6011 220.07 97.5203C222.537 96.4376 222.265 94.7005 222.265 94.7005C225.688 92.035 222.228 88.6366 222.228 88.6366C222.763 87.2091 224.844 86.5134 226.037 87.943C227.231 89.3705 224.5 91.7657 224.5 91.7657C225.655 91.9966 227.46 90.4128 227.808 88.4429C228.154 86.474 226.038 84.2723 226.038 84.2723C229.511 82.6905 227.316 78.3662 227.316 78.3662ZM164.867 77.4347L163.834 77.5083C163.832 77.5093 164.315 76.2461 164.867 77.4347ZM164.243 79.6203C163.723 79.6647 163.834 78.5477 163.834 78.5477H165.047C165.047 78.5477 164.763 79.577 164.243 79.6203ZM166.02 79.9631C165.349 79.9671 165.373 78.5769 165.373 78.5769C165.373 78.5769 166.08 78.6797 166.402 78.7463C166.721 78.8138 166.694 79.9581 166.02 79.9631ZM166.657 77.2573C166.637 77.5184 165.95 77.4963 165.334 77.4277C165.334 77.4277 165.157 76.4347 165.958 76.354C166.756 76.2744 166.678 76.9962 166.657 77.2573ZM172.559 68.8363C172.797 67.2989 175.498 68.8363 175.498 68.8363H172.559Z" fill="#AD1519"/>
<circle cx="118" cy="118" r="115.5" stroke="#FABD00" stroke-width="5"/>
</g>
</svg>
